<svg xmlns="http://www.w3.org/2000/svg" viewBox="0 0 500 500"><defs><style>.cls-1{fill:#06daf7;}.cls-2{fill:#284cb2;}.cls-3{fill:#ff6ca8;}</style></defs><g id="Layer_2" data-name="Layer 2"><g id="Layer_2-2" data-name="Layer 2"><circle class="cls-1" cx="250" cy="250" r="223.34"/><path class="cls-1" d="M358.36,54.68a222.67,222.67,0,0,1,66,158.48c0,123.34-100,223.34-223.34,223.34a222.32,222.32,0,0,1-108.36-28A222.61,222.61,0,0,0,250,473.34c123.35,0,223.34-100,223.34-223.34A223.27,223.27,0,0,0,358.36,54.68Z"/><path class="cls-2" d="M250,492.73A242.74,242.74,0,0,1,78.36,78.36,242.74,242.74,0,0,1,421.64,421.64,241.17,241.17,0,0,1,250,492.73Zm0-446.68c-112.46,0-203.95,91.49-203.95,204s91.49,204,204,204S454,362.46,454,250,362.46,46.05,250,46.05Z"/><path class="cls-1" d="M421.64,78.36q-5.61-5.6-11.51-10.77a242.72,242.72,0,0,1-182.4,402.87A240.92,240.92,0,0,1,67.6,410.14q5.18,5.88,10.76,11.5A242.74,242.74,0,0,0,421.64,78.36Z"/><path class="cls-3" d="M247.1,350.17l-81.78-57.31a1,1,0,0,0-1.42,1.38l81.9,122.85a5,5,0,0,0,8.4,0l81.9-122.85a1,1,0,0,0-1.41-1.38L252.9,350.17a5.09,5.09,0,0,1-5.8,0Z"/><path class="cls-3" d="M346.81,242.25,254.42,75.43a5.05,5.05,0,0,0-8.84,0L153.19,242.25Z"/><path class="cls-3" d="M250,242.25h96.81L254.42,75.43a5,5,0,0,0-4.42-2.6Z"/><path class="cls-3" d="M247.1,313.5l-92.38-64.74a5,5,0,0,1,0-8.26l92.38-64.74a5.05,5.05,0,0,1,5.8,0l92.38,64.74a5,5,0,0,1,0,8.26L252.9,313.5A5.05,5.05,0,0,1,247.1,313.5Z"/><path class="cls-3" d="M252.9,313.5l92.38-64.74a5,5,0,0,0,0-8.26L252.9,175.76a5.05,5.05,0,0,0-2.9-.91V314.41A5.05,5.05,0,0,0,252.9,313.5Z"/><path class="cls-3" d="M319.87,235.28a5.06,5.06,0,0,1-1.26,7h28.2L254.42,75.43a5,5,0,0,0-4.42-2.6v36.31Z"/><path class="cls-3" d="M254.2,417.09l81.9-122.85a1,1,0,0,0-1.42-1.38L252.9,350.17a5.13,5.13,0,0,1-2.9.91v68.26a5,5,0,0,0,4.2-2.25Z"/><path class="cls-3" d="M345.28,240.5l-36.81-25.8,11.4,20.58a5,5,0,0,1-1.28,7L250,290.33v24.08a5.05,5.05,0,0,0,2.9-.91l92.38-64.73a5,5,0,0,0,0-8.27Z"/><path class="cls-3" d="M334.68,292.86l-43.2,30.27L250,385.35v34a5,5,0,0,0,4.2-2.25l81.9-122.85A1,1,0,0,0,334.68,292.86Z"/><path d="M92.14,367.19a7.27,7.27,0,1,0-11.66,8.69A213.68,213.68,0,0,0,153.67,438,208.56,208.56,0,0,0,250,461.22c116.47,0,211.22-94.75,211.22-211.22S366.47,38.78,250,38.78,38.78,133.53,38.78,250a208.76,208.76,0,0,0,22.31,94.45,7.27,7.27,0,0,0,13-6.52A194.29,194.29,0,0,1,53.32,250C53.32,141.55,141.55,53.32,250,53.32S446.68,141.55,446.68,250,358.45,446.68,250,446.68A197.74,197.74,0,0,1,92.14,367.19Z"/><path d="M426.78,73.22A249.25,249.25,0,0,0,349.71,20.6a7.27,7.27,0,0,0-5.79,13.34,235.58,235.58,0,0,1,72.57,382.55,235.45,235.45,0,1,1-333-333A233.88,233.88,0,0,1,250,14.54a236.92,236.92,0,0,1,61.13,8,7.27,7.27,0,1,0,3.76-14A251.83,251.83,0,0,0,250,0,250,250,0,0,0,73.22,426.78,250,250,0,0,0,426.78,73.22Z"/><path d="M354.71,244.63a12.35,12.35,0,0,0-1.65-6.11L260.78,71.91a12.33,12.33,0,0,0-21.56,0L146.93,238.53c-2.65,4.33-2,12.12,3.61,16.19l92.39,64.73a12.67,12.67,0,0,0,14.14,0l92.38-64.73a12.32,12.32,0,0,0,5.26-10.09Zm-30.13-27.52-67.33-47.17V95.54Zm-103.7-23a7.27,7.27,0,0,0-10.13-1.78l-35.33,24.75L242.7,95.65l0,205.9-81.24-56.92,57.61-40.37a7.26,7.26,0,0,0,1.78-10.12Zm36.39,107.42,0-113.87,81.26,56.94Z"/><path d="M330.51,286.9,250,343.32,169.49,286.9a8.28,8.28,0,0,0-11.64,11.38l81.9,122.84a12.34,12.34,0,0,0,20.5,0l81.9-122.84a8.28,8.28,0,0,0-11.64-11.38Zm-142.08,31L242.73,356v43.4Zm68.84,81.45V356l54.3-38.05Z"/></g></g></svg>