<svg xmlns="http://www.w3.org/2000/svg" viewBox="0 0 500 500.75"><defs><style>.cls-1{fill:#06daf7;}.cls-2{fill:#284cb2;}.cls-3{fill:#ff6ca8;}.cls-4{fill:#f1f2f2;}</style></defs><g id="Layer_2" data-name="Layer 2"><g id="Layer_2-2" data-name="Layer 2"><rect class="cls-1" x="141.67" y="141.67" width="216.67" height="216.67" rx="33.33"/><path class="cls-2" d="M350,341.67H200a33.34,33.34,0,0,1-33.33-33.34v-150a33,33,0,0,1,4.4-16.27A33.22,33.22,0,0,0,141.67,175V325A33.33,33.33,0,0,0,175,358.33H325a33.17,33.17,0,0,0,28.93-17.06A34.65,34.65,0,0,1,350,341.67Z"/><circle class="cls-3" cx="250" cy="50" r="16.67"/><circle class="cls-3" cx="383.33" cy="41.67" r="16.67"/><circle class="cls-3" cx="133.33" cy="25" r="16.67"/><circle class="cls-3" cx="316.67" cy="475" r="16.67"/><circle class="cls-3" cx="391.67" cy="425" r="16.67"/><circle class="cls-3" cx="133.33" cy="475" r="16.67"/><circle class="cls-3" cx="441.74" cy="141.47" r="16.67"/><circle class="cls-3" cx="475.17" cy="349.78" r="16.67"/><circle class="cls-3" cx="475.11" cy="216.45" r="16.67"/><circle class="cls-3" cx="58.37" cy="141.73" r="16.67"/><circle class="cls-3" cx="58.19" cy="383.47" r="16.66"/><path class="cls-3" d="M24.34,283.33a16.66,16.66,0,0,0,12.74-28.12l-3.75,3.12,3.75-3.12a16.67,16.67,0,1,0-12.74,28.12Z"/><rect class="cls-3" x="200" y="225" width="100" height="100" rx="16.67"/><path class="cls-3" d="M216.67,291.67V225A16.72,16.72,0,0,0,200,241.67v66.66A16.72,16.72,0,0,0,216.67,325h66.66A16.72,16.72,0,0,0,300,308.33H233.33A16.7,16.7,0,0,1,216.67,291.67Z"/><circle class="cls-4" cx="250.13" cy="266.55" r="16.67"/><path d="M208.33,75H225V91.67H208.33Z"/><path d="M425,275h16.67v16.67H425Z"/><path d="M275,408.33h16.67V425H275Z"/><path d="M208.33,433.33H225V450H208.33Z"/><path d="M75,241.67H91.67v16.66H75Z"/><path d="M275,75h16.67V91.67H275Z"/><path d="M408.33,208.33H425V225H408.33Z"/><path d="M366.67,125h16.66v16.67H366.67Z"/><path d="M116.67,125h16.66v16.67H116.67Z"/><path d="M366.67,358.33h16.66V375H366.67Z"/><path d="M116.67,358.33h16.66V375H116.67Z"/><path d="M249,241.67a24.94,24.94,0,0,0-7.35,48.51v18.15h16.66V290.12A24.94,24.94,0,0,0,249,241.67Zm9.31,24.67a8.32,8.32,0,0,1-8,8.66h0a8.34,8.34,0,0,1-.66-16.67H250a8.33,8.33,0,0,1,8.33,8Z"/><path d="M291.67,218.2v-9.87a41.67,41.67,0,0,0-83.34,0v9.87a25,25,0,0,0-16.66,23.47v66.66a25,25,0,0,0,25,25h66.66a25,25,0,0,0,25-25V241.67A25,25,0,0,0,291.67,218.2ZM225,208.33a25,25,0,0,1,50,0v8.34H225Zm66.67,100a8.33,8.33,0,0,1-8.34,8.34H216.67a8.33,8.33,0,0,1-8.34-8.34V241.67a8.33,8.33,0,0,1,8.34-8.34h66.66a8.33,8.33,0,0,1,8.34,8.34Z"/><path d="M475,325a24.57,24.57,0,0,0-10.71,2.5l-19.16-19.17H366.67V291.67h41.66V275H366.67V258.33H410.3l47.39-23.7a24.95,24.95,0,1,0-7.69-18,23.59,23.59,0,0,0,.31,3l-43.94,22h-39.7V225h25V208.33h-25V191.67h36.78l27.5-27.5a24.73,24.73,0,0,0,10.72,2.5,25,25,0,1,0-25-25,24.5,24.5,0,0,0,2.5,10.7L396.55,175H366.67A41.73,41.73,0,0,0,325,133.33V111.78l47.63-47.61a24.64,24.64,0,0,0,10.7,2.5,25,25,0,1,0-25-25,24.64,24.64,0,0,0,2.5,10.7l-52.5,52.5v28.46H291.67v-25H275v25H258.33V73.47a25,25,0,1,0-16.66,0v59.86H225v-25H208.33v25H191.67V71.55L155.83,35.72A24.45,24.45,0,0,0,158.33,25a25,25,0,1,0-25,25A24.51,24.51,0,0,0,144,47.5l31,31v54.88A41.73,41.73,0,0,0,133.33,175H103.45L80.83,152.37a24.5,24.5,0,0,0,2.5-10.7,25,25,0,1,0-25,25A24.65,24.65,0,0,0,69,164.17l27.5,27.5h36.79v16.66h-53L36.67,244.7a24.56,24.56,0,0,0-11.67-3,25,25,0,1,0,25,25h0a24.86,24.86,0,0,0-2-9.74L86.35,225h47v16.67h-25v16.66h25V275h-75v16.67h75v16.66H87.21L53.62,358.7a25.67,25.67,0,0,0-3.62-.37,25.24,25.24,0,1,0,18.42,8.24L96.12,325h37.21A41.73,41.73,0,0,0,175,366.67v54.88L144,452.5a24.51,24.51,0,0,0-10.71-2.5,25,25,0,1,0,25,25,24.57,24.57,0,0,0-2.5-10.71l35.84-35.83V366.67h16.66v50H225v-50h16.67V438l50.61,31.67a25.37,25.37,0,1,0,8.91-14.09l-42.86-26.81V366.67H275v25h16.67v-25h16.66v66.66H368.2a25,25,0,1,0,0-16.66H325v-50A41.73,41.73,0,0,0,366.67,325h71.55l14.28,14.29A24.57,24.57,0,0,0,450,350a25,25,0,1,0,25-25Zm0-116.67a8.34,8.34,0,1,1-8.33,8.34A8.33,8.33,0,0,1,475,208.33Zm-33.33-75a8.34,8.34,0,1,1-8.34,8.34A8.33,8.33,0,0,1,441.67,133.33Zm-58.34-100A8.34,8.34,0,1,1,375,41.67,8.33,8.33,0,0,1,383.33,33.33ZM250,41.67A8.33,8.33,0,1,1,241.67,50,8.33,8.33,0,0,1,250,41.67ZM125,25a8.34,8.34,0,1,1,8.33,8.33A8.33,8.33,0,0,1,125,25ZM50,141.67A8.34,8.34,0,1,1,58.33,150,8.33,8.33,0,0,1,50,141.67ZM25,275a8.34,8.34,0,1,1,8.33-8.33A8.33,8.33,0,0,1,25,275ZM50,391.67a8.34,8.34,0,1,1,8.33-8.34A8.33,8.33,0,0,1,50,391.67Zm83.33,91.66a8.33,8.33,0,1,1,8.34-8.33A8.33,8.33,0,0,1,133.33,483.33Zm183.34-16.66a8.33,8.33,0,1,1-8.34,8.33A8.33,8.33,0,0,1,316.67,466.67Zm75-50a8.33,8.33,0,1,1-8.34,8.33A8.33,8.33,0,0,1,391.67,416.67ZM350,325a25,25,0,0,1-25,25H175a25,25,0,0,1-25-25V175a25,25,0,0,1,25-25H325a25,25,0,0,1,25,25Zm125,33.33a8.33,8.33,0,1,1,8.33-8.33A8.33,8.33,0,0,1,475,358.33Z"/></g></g></svg>