<svg id="Layer_1" data-name="Layer 1" xmlns="http://www.w3.org/2000/svg" viewBox="0 0 753.76 234"><defs><style>.cls-1{fill:#ff6ca8;}</style></defs><path class="cls-1" d="M123.62,16a109,109,0,1,0,109,109A109,109,0,0,0,123.62,16ZM73.3,146.19a54.55,54.55,0,0,1,43.29-75.28Zm50.32-28.5,30.31,52.69a54.44,54.44,0,0,1-60.62,0Zm16-31.14a3.84,3.84,0,0,0-.18-.35l-8.82-15.29a54.55,54.55,0,0,1,43.28,75.28Z" transform="translate(-6.62 -8)"/><path d="M123.62,8a117,117,0,1,0,117,117A117,117,0,0,0,123.62,8Zm0,226.2A109.2,109.2,0,1,1,232.82,125,109.2,109.2,0,0,1,123.62,234.2Z" transform="translate(-6.62 -8)"/><path d="M221.08,126.2l-11.69-.61a3.93,3.93,0,0,0-4.09,3.69l-.21,4.1-.66,4.37c-.11.56-.18,1.13-.27,1.7-.11.84-.23,1.68-.4,2.41l-.14.54-3.76-1,0-.1c.21-.91.34-1.83.47-2.76.06-.43.12-.86.2-1.35l.6-3.83a2.71,2.71,0,0,0,0-.4l.21-4.08v-7.76a1.27,1.27,0,0,0,0-.2v-.18l19.58-2a3.89,3.89,0,0,0,3.48-4.28A101.53,101.53,0,0,0,213.9,79a3.89,3.89,0,0,0-5.24-1.7L198.24,82.6a3.91,3.91,0,0,0-1.77,5.12c.36.77.74,1.54,1.11,2.3a39,39,0,0,1,2.41,5.6l.39,1c.43,1.17.85,2.29,1.22,3.41l-3.82,1a77,77,0,0,0-8.91-18.66l15.85-11.53a3.92,3.92,0,0,0,1.56-2.54,4,4,0,0,0-.7-2.91A101.58,101.58,0,0,0,178.84,40a3.91,3.91,0,0,0-5.41,1.14L167.05,51a3.9,3.9,0,0,0,1.24,5.45c1.52,1,3,2,4.38,3.12.87.67,1.75,1.34,2.44,1.82,1.21,1,2.37,2,3.53,3.11l-2.7,2.7a77.68,77.68,0,0,0-17.09-11.71l8-17.89a3.9,3.9,0,0,0-2-5.15,101.91,101.91,0,0,0-35.94-8.56,3.88,3.88,0,0,0-4.1,3.69l-.6,11.68a3.9,3.9,0,0,0,3.68,4.1l4.11.21,4.37.67,1.69.25c.84.12,1.69.24,2.43.41L141,45l-1,3.82a79.63,79.63,0,0,0-20.66-1.68l-2-19.51A3.9,3.9,0,0,0,113,24.16,100.4,100.4,0,0,0,77.59,34.71,3.91,3.91,0,0,0,75.9,40l5.32,10.42a3.88,3.88,0,0,0,5.11,1.76c.78-.36,1.56-.74,2.34-1.12a39.08,39.08,0,0,1,5.57-2.39l1-.37c1.18-.44,2.31-.86,3.44-1.24l1,3.77c-1,.33-1.89.67-2.82,1l-.93.35a37.31,37.31,0,0,0-5.53,2.35c-.67.33-1.33.66-2.34,1.14l-6.61,3.8L81,59.7,69.51,43.9A3.9,3.9,0,0,0,64.06,43,101.67,101.67,0,0,0,38.62,69.79a3.9,3.9,0,0,0,1.15,5.39l9.8,6.39a4,4,0,0,0,3,.53A3.87,3.87,0,0,0,55,80.33,49.43,49.43,0,0,1,58.14,76c.68-.88,1.35-1.77,1.83-2.45C61,72.3,62,71.13,63.08,70l2.7,2.7A77.44,77.44,0,0,0,54.07,89.77l-17.89-8a3.92,3.92,0,0,0-5.16,2,101.68,101.68,0,0,0-8.55,35.94,3.89,3.89,0,0,0,3.69,4.09l11.68.61a3.88,3.88,0,0,0,4.1-3.69l.2-4.1.67-4.37c.1-.56.18-1.13.26-1.7.12-.84.24-1.68.41-2.41l.13-.54,3.83,1a78.69,78.69,0,0,0-1.68,20.65l-19.51,2a3.89,3.89,0,0,0-3.48,4.28A101.74,101.74,0,0,0,33.33,171a3.89,3.89,0,0,0,5.25,1.7L49,167.4a3.91,3.91,0,0,0,1.77-5.12c-.36-.77-.74-1.53-1.11-2.29a40.85,40.85,0,0,1-2.41-5.61l-.38-1c-.43-1.17-.86-2.29-1.23-3.41l3.83-1a76.91,76.91,0,0,0,8.9,18.66L42.52,179.11a3.9,3.9,0,0,0-.86,5.45A101.43,101.43,0,0,0,68.4,210a3.9,3.9,0,0,0,5.4-1.14L80.18,199a3.89,3.89,0,0,0,.54-3,4,4,0,0,0-1.78-2.46q-2.26-1.46-4.37-3.12c-.88-.67-1.76-1.34-2.45-1.82-1.21-1-2.37-2.05-3.52-3.11l2.75-2.76c1.05.95,2.12,1.92,3.42,3,.76.53,1.5,1.1,2.24,1.67a45.21,45.21,0,0,0,4.34,3.06l7,4,.08,0-8,17.91a3.89,3.89,0,0,0,2,5.15,101.91,101.91,0,0,0,35.94,8.56h.2a3.91,3.91,0,0,0,3.89-3.7l.61-11.68a3.9,3.9,0,0,0-3.69-4.1l-4.1-.21-4.37-.67-1.69-.25c-.85-.12-1.69-.25-2.43-.41l-.54-.14,1-3.82a79.63,79.63,0,0,0,20.66,1.68l2,19.51a3.9,3.9,0,0,0,4.29,3.47,100.4,100.4,0,0,0,35.44-10.55,3.91,3.91,0,0,0,1.69-5.25L166,199.62a3.9,3.9,0,0,0-5.11-1.76c-.78.36-1.56.74-2.34,1.12a39.58,39.58,0,0,1-5.57,2.39l-1,.38c-1.18.43-2.31.85-3.44,1.23l-1-3.82a77,77,0,0,0,18.67-8.91l11.53,15.85a3.9,3.9,0,0,0,5.45.86,101.47,101.47,0,0,0,25.43-26.75,3.89,3.89,0,0,0-1.14-5.39l-9.81-6.39a3.93,3.93,0,0,0-3-.53,3.89,3.89,0,0,0-2.47,1.77,49.32,49.32,0,0,1-3.1,4.37c-.68.88-1.35,1.77-1.83,2.45-1,1.21-2.05,2.38-3.11,3.53l-2.7-2.7a77.44,77.44,0,0,0,11.71-17.09l17.89,8a3.91,3.91,0,0,0,5.15-2,101.91,101.91,0,0,0,8.56-35.94A3.89,3.89,0,0,0,221.08,126.2ZM210.6,159.46l-17.74-7.91a3.91,3.91,0,0,0-5.15,2,69.73,69.73,0,0,1-14.46,21.11,3.91,3.91,0,0,0,0,5.51l8.27,8.28a3.92,3.92,0,0,0,5.67-.17c.7-.78,1.41-1.55,2.12-2.32,1.35-1.47,2.7-2.94,4.13-4.7.6-.83,1.22-1.65,1.84-2.47.44-.56.88-1.13,1.31-1.72l3.28,2.13A93.92,93.92,0,0,1,181.7,198.3l-11.43-15.71a3.94,3.94,0,0,0-2.55-1.56,3.86,3.86,0,0,0-2.9.71,69.66,69.66,0,0,1-23,11A3.89,3.89,0,0,0,139,197.5l3,11.31a3.89,3.89,0,0,0,4.58,2.8,58.43,58.43,0,0,0,8.09-2.55l.81-.3a42.07,42.07,0,0,0,5.29-2.19l1.77,3.47a93.8,93.8,0,0,1-25.32,7.55l-2-19.3a3.93,3.93,0,0,0-1.4-2.63,3.89,3.89,0,0,0-2.86-.85,71.64,71.64,0,0,1-25.54-2.08,3.88,3.88,0,0,0-3,.39,3.94,3.94,0,0,0-1.82,2.37l-3,11.3a3.9,3.9,0,0,0,2.8,4.79l4.44,1.14c1,.24,2.1.4,3.17.55.49.07,1,.14,1.55.24l4.82.71.6,0-.2,3.83A94.25,94.25,0,0,1,89.16,212l7.9-17.72a3.91,3.91,0,0,0-1.86-5.11L92,187.6l-6.65-3.83a36.85,36.85,0,0,1-3.55-2.53c-.83-.63-1.66-1.26-2.26-1.68-1.13-.92-2.21-1.91-3.28-2.9-.81-.74-1.61-1.48-2.44-2.2a3.91,3.91,0,0,0-5.32.18l-8.27,8.27a3.91,3.91,0,0,0,.17,5.68c.76.68,1.53,1.38,2.29,2.08,1.48,1.36,3,2.72,4.73,4.16.83.59,1.64,1.22,2.45,1.84L71.57,198l-2.13,3.27a93.4,93.4,0,0,1-19.12-18.18L66,171.65a3.89,3.89,0,0,0,1.56-2.54,3.93,3.93,0,0,0-.7-2.9,69.64,69.64,0,0,1-11-23.05,3.91,3.91,0,0,0-4.77-2.76l-11.3,3A3.9,3.9,0,0,0,37,148a55.82,55.82,0,0,0,2.54,8.06l.31.83a41.47,41.47,0,0,0,2.19,5.29L38.58,164A94.29,94.29,0,0,1,31,138.65l19.31-2a3.89,3.89,0,0,0,3.48-4.25,71.46,71.46,0,0,1,2.08-25.55,3.89,3.89,0,0,0-2.76-4.77l-11.31-3A3.9,3.9,0,0,0,37,101.84l-1.14,4.45c-.24,1-.4,2.09-.55,3.15-.07.5-.14,1-.24,1.57l-.71,4.81,0,.6-3.83-.2a94.71,94.71,0,0,1,6.11-25.68l17.73,7.91a3.93,3.93,0,0,0,5.16-2A69.88,69.88,0,0,1,74,75.36a3.89,3.89,0,0,0,0-5.51L65.7,61.57a3.92,3.92,0,0,0-5.67.17c-.69.78-1.4,1.55-2.11,2.32-1.35,1.47-2.7,2.94-4.14,4.7-.59.83-1.21,1.65-1.84,2.47-.43.56-.87,1.13-1.31,1.72l-3.27-2.13A93.87,93.87,0,0,1,65.53,51.7L77,67.41a3.9,3.9,0,0,0,5.46.85l.9-.68a13.75,13.75,0,0,1,1.91-1.31l6.39-3.7c.75-.34,1.49-.7,2.23-1.07a31.23,31.23,0,0,1,4.57-2l1.16-.43a38.24,38.24,0,0,1,5.65-1.79,3.91,3.91,0,0,0,3-4.83l-3-11.31a3.9,3.9,0,0,0-4.58-2.8,58.43,58.43,0,0,0-8.09,2.55l-.8.31a40,40,0,0,0-5.29,2.18L84.66,40A94.41,94.41,0,0,1,110,32.41l2,19.31a3.88,3.88,0,0,0,1.41,2.62,3.82,3.82,0,0,0,2.85.85,72.1,72.1,0,0,1,25.54,2.08,3.9,3.9,0,0,0,4.78-2.76l3-11.3a3.9,3.9,0,0,0-2.79-4.79l-4.44-1.14c-1.05-.24-2.11-.4-3.17-.55l-1.55-.23-4.82-.72-.6,0,.2-3.83A94.18,94.18,0,0,1,158.07,38l-7.9,17.73a3.9,3.9,0,0,0,2,5.15,69.73,69.73,0,0,1,21.11,14.46,3.91,3.91,0,0,0,5.51,0L187,67.09a3.88,3.88,0,0,0-.16-5.67c-.77-.69-1.53-1.39-2.29-2.09-1.49-1.35-3-2.72-4.73-4.16-.83-.59-1.65-1.22-2.45-1.84L175.66,52l2.14-3.28a93.61,93.61,0,0,1,19.11,18.18l-15.7,11.43a3.9,3.9,0,0,0-.86,5.45,69.88,69.88,0,0,1,11,23,3.91,3.91,0,0,0,4.77,2.76l11.3-3a3.9,3.9,0,0,0,2.81-4.58,58,58,0,0,0-2.54-8.06l-.32-.84a40.58,40.58,0,0,0-2.18-5.29L208.66,86a94.47,94.47,0,0,1,7.56,25.31l-19.32,2a3.91,3.91,0,0,0-3.49,4.08l.2,3.78v7.46l-.19,3.67-.55,3.59c-.09.5-.16,1-.24,1.53-.09.69-.18,1.38-.32,2l-1,3.75a3.89,3.89,0,0,0,2.77,4.74l11.3,3a3.89,3.89,0,0,0,4.78-2.79l1.15-4.45c.24-1,.39-2.09.54-3.15.08-.5.15-1,.24-1.57l.72-4.81,0-.6,3.83.2A95.06,95.06,0,0,1,210.6,159.46Z" transform="translate(-6.62 -8)"/><path d="M177.77,93.9a62.38,62.38,0,1,0-108,62.54,3.26,3.26,0,0,0,.24.4A62.81,62.81,0,0,0,86,174.64a2.85,2.85,0,0,0,.26.23l.09,0a61.91,61.91,0,0,0,74.6,0l.1,0c.11-.06.17-.17.27-.23a63,63,0,0,0,15.91-17.8,3.26,3.26,0,0,0,.24-.4A62.28,62.28,0,0,0,177.77,93.9ZM76.28,97.82a54.51,54.51,0,0,1,40.31-26.91L73.3,146.19A54.52,54.52,0,0,1,76.28,97.82Zm17,72.56,30.31-52.69,30.31,52.69A54.44,54.44,0,0,1,93.31,170.38Zm66.81-4.89-31.43-54.63a5.86,5.86,0,0,0-10.15,0L87.12,165.49a54.6,54.6,0,0,1-9.49-11.18l46-80,8.92,15.48a2.79,2.79,0,0,0,.18.34l36.88,64.18A54.24,54.24,0,0,1,160.12,165.49Zm13.82-19.3L139.66,86.55a3.84,3.84,0,0,0-.18-.35l-8.82-15.29a54.55,54.55,0,0,1,43.28,75.28Z" transform="translate(-6.62 -8)"/><path d="M266.22,95.64c0-18.07,9.52-28.4,26.94-28.4s26.94,10.33,26.94,28.4v58.72c0,18.07-9.51,28.4-26.94,28.4s-26.94-10.33-26.94-28.4ZM284,155.49c0,8.07,3.55,11.13,9.19,11.13s9.2-3.06,9.2-11.13v-61c0-8.07-3.55-11.13-9.2-11.13S284,86.44,284,94.51Z" transform="translate(-6.62 -8)"/><path d="M331.56,68.53h28.07c17.75,0,26.46,9.85,26.46,27.91v57.12c0,18.06-8.71,27.91-26.46,27.91H331.56Zm17.75,16.14v80.66h10c5.65,0,9-2.9,9-11V95.64c0-8.07-3.38-11-9-11Z" transform="translate(-6.62 -8)"/><path d="M397.38,68.53h28.07c17.75,0,26.46,9.85,26.46,27.91v57.12c0,18.06-8.71,27.91-26.46,27.91H397.38Zm17.75,16.14v80.66h10c5.65,0,9-2.9,9-11V95.64c0-8.07-3.39-11-9-11Z" transform="translate(-6.62 -8)"/><path d="M477.4,144,455,68.53h18.55L487.08,120l13.55-51.47h16.94L495.15,144v37.43H477.4Z" transform="translate(-6.62 -8)"/><path d="M547.42,67.24c17.27,0,26.14,10.33,26.14,28.4v3.55H556.78V94.51c0-8.07-3.23-11.13-8.87-11.13S539,86.44,539,94.51c0,23.23,34.69,27.59,34.69,59.85,0,18.07-9,28.4-26.46,28.4s-26.46-10.33-26.46-28.4v-6.94h16.78v8.07c0,8.07,3.55,11,9.2,11s9.19-2.9,9.19-11c0-23.23-34.68-27.59-34.68-59.85C521.29,77.57,530.16,67.24,547.42,67.24Z" transform="translate(-6.62 -8)"/><path d="M607.76,67.24c17.26,0,26.14,10.33,26.14,28.4v3.55H617.12V94.51c0-8.07-3.23-11.13-8.87-11.13s-8.88,3.06-8.88,11.13c0,23.23,34.69,27.59,34.69,59.85,0,18.07-9,28.4-26.46,28.4s-26.46-10.33-26.46-28.4v-6.94h16.78v8.07c0,8.07,3.55,11,9.2,11s9.19-2.9,9.19-11c0-23.23-34.68-27.59-34.68-59.85C581.63,77.57,590.5,67.24,607.76,67.24Z" transform="translate(-6.62 -8)"/><path d="M662,116.13h24.36v16.13H662v33.07h30.65v16.14h-48.4V68.53h48.4V84.67H662Z" transform="translate(-6.62 -8)"/><path d="M720.21,144,697.79,68.53h18.55L729.89,120l13.55-51.47h16.94L738,144v37.43H720.21Z" transform="translate(-6.62 -8)"/></svg>