<svg xmlns="http://www.w3.org/2000/svg" viewBox="0 0 500 499.99"><defs><style>.cls-1{fill:#06daf7;}.cls-2{fill:#00d7df;}.cls-3{fill:#ff6ca8;}.cls-4{fill:#284cb2;}</style></defs><g id="Layer_2" data-name="Layer 2"><g id="Layer_2-2" data-name="Layer 2"><path class="cls-1" d="M58.34,125H341.67V225H58.34a50,50,0,1,1,0-100Z"/><path class="cls-2" d="M308.34,125h33.33V225H308.34Z"/><path class="cls-3" d="M58.34,258.33H341.67v100H58.34a50,50,0,0,1,0-100Z"/><path class="cls-3" d="M308.34,258.33h33.33v100H308.34Z"/><path class="cls-1" d="M58.34,391.66H341.67v100H58.34a50,50,0,0,1-50-50h0A50,50,0,0,1,58.34,391.66Z"/><path class="cls-3" d="M108.34,425h33.33v33.33H108.34Z"/><path class="cls-4" d="M108.34,291.66h33.33V325H108.34Z"/><path class="cls-3" d="M108.34,158.33h33.33v33.33H108.34Z"/><path class="cls-3" d="M70.09,163.25a16.61,16.61,0,1,1-11.85-4.92A16.66,16.66,0,0,1,70.09,163.25Z"/><path class="cls-4" d="M70.09,296.58a16.61,16.61,0,1,1-11.85-4.92A16.66,16.66,0,0,1,70.09,296.58Z"/><path class="cls-3" d="M70.09,429.91A16.61,16.61,0,1,1,58.24,425,16.66,16.66,0,0,1,70.09,429.91Z"/><circle class="cls-4" cx="366.67" cy="133.33" r="125"/><path class="cls-1" d="M491.67,133.33a125,125,0,0,1-228.5,70.17A125.06,125.06,0,0,0,436.83,29.83,125.14,125.14,0,0,1,491.67,133.33Z"/><path d="M366.67,0A133.33,133.33,0,0,0,234.59,116.66H58.34a58.33,58.33,0,0,0-25,111v28a58.27,58.27,0,0,0,0,105.33v28a58.33,58.33,0,0,0,25,111H341.67a8.33,8.33,0,0,0,8.33-8.33v-100a8.34,8.34,0,0,0-8.33-8.34h-25V366.66h25a8.33,8.33,0,0,0,8.33-8.33V265.49a136.79,136.79,0,0,0,16.67,1.17A133.33,133.33,0,0,0,366.67,0ZM322.09,25.58C304.75,48.17,293.25,83.75,291.92,125h-41.5A116.63,116.63,0,0,1,322.09,25.58ZM291.92,141.66c1.33,41.25,12.83,76.92,30.17,99.42a113.93,113.93,0,0,1-34.59-22.25,116.55,116.55,0,0,1-37.08-77.17Zm8.08,107V250H266.67V233.33h12.09A140.44,140.44,0,0,0,300,248.66ZM16.68,175a41.66,41.66,0,0,1,41.66-41.67h175A136.79,136.79,0,0,0,234.51,150H166.67v16.66h71.09a143.85,143.85,0,0,0,5.5,16.67H166.67V200h84.67a118.84,118.84,0,0,0,11.58,16.66H58.34A41.66,41.66,0,0,1,16.68,175ZM250,233.33V250H100V233.33Zm-166.67,0V250h-25a56.71,56.71,0,0,0-8.33.67v-18a55.37,55.37,0,0,0,8.33.67ZM333.34,400v83.33h-275a41.67,41.67,0,0,1,0-83.33ZM50,384V366a55.37,55.37,0,0,0,8.33.67h25v16.66h-25A56.71,56.71,0,0,0,50,384Zm50-.67V366.66H250v16.66Zm166.66,0V366.66H300v16.66ZM333.34,350h-275a41.67,41.67,0,0,1,0-83.33h275Zm25-101.41c-26.5-7.92-47.75-53-49.75-106.92h49.75Zm0-123.58H308.59c2-53.92,23.25-99,49.75-106.92Zm124.58,0h-41.5c-1.34-41.34-12.83-76.92-30.25-99.42A116.63,116.63,0,0,1,482.92,125ZM375,18.08c26.5,7.92,47.75,53,49.75,106.92H375Zm0,230.5V141.66h49.75C422.75,195.58,401.5,240.66,375,248.58Zm36.17-7.5c17.42-22.5,28.91-58.08,30.25-99.42h41.5A116.63,116.63,0,0,1,411.17,241.08Z"/><path d="M83.34,308.33a25,25,0,1,0-25,25A25,25,0,0,0,83.34,308.33Zm-33.33,0a8.34,8.34,0,1,1,8.33,8.33A8.33,8.33,0,0,1,50,308.33Z"/><path d="M108.34,333.33h33.33A8.34,8.34,0,0,0,150,325V291.66a8.33,8.33,0,0,0-8.34-8.33H108.34a8.33,8.33,0,0,0-8.33,8.33V325A8.34,8.34,0,0,0,108.34,333.33ZM116.68,300h16.66v16.67H116.68Z"/><path d="M166.67,283.33H283.34V300H166.67Z"/><path d="M166.67,316.66H283.34v16.67H166.67Z"/><path d="M83.34,175a25,25,0,1,0-25,25A25,25,0,0,0,83.34,175ZM50,175a8.34,8.34,0,1,1,8.33,8.33A8.33,8.33,0,0,1,50,175Z"/><path d="M108.34,200h33.33a8.34,8.34,0,0,0,8.34-8.34V158.33a8.33,8.33,0,0,0-8.34-8.33H108.34a8.33,8.33,0,0,0-8.33,8.33v33.33A8.34,8.34,0,0,0,108.34,200Zm8.34-33.34h16.66v16.67H116.68Z"/><path d="M33.34,441.66a25,25,0,1,0,25-25h0A25,25,0,0,0,33.34,441.66Zm33.34,0a8.34,8.34,0,1,1-8.34-8.34A8.33,8.33,0,0,1,66.68,441.66Z"/><path d="M108.34,466.66h33.33a8.33,8.33,0,0,0,8.34-8.34V425a8.33,8.33,0,0,0-8.34-8.33H108.34A8.33,8.33,0,0,0,100,425v33.33A8.33,8.33,0,0,0,108.34,466.66Zm8.34-33.34h16.66V450H116.68Z"/><path d="M166.67,416.66H283.34v16.66H166.67Z"/><path d="M166.67,450H283.34v16.67H166.67Z"/><path d="M466.67,416.66a25,25,0,0,1-25,25H400v16.66h41.67a41.7,41.7,0,0,0,41.66-41.66V250H466.67Z"/><path d="M41.68,83.33H58.34V100H41.68Z"/><path d="M58.34,58.33a25,25,0,0,1,25-25h175V16.67h-175A41.7,41.7,0,0,0,41.68,58.33v8.34H58.34Z"/><rect x="41.68" y="58.04" width="16.63" height="48.15" rx="8.32"/><rect x="237.27" y="0.91" width="16.63" height="48.15" rx="8.32" transform="translate(270.57 -220.6) rotate(90)"/><rect x="402.85" y="425.91" width="16.63" height="48.15" rx="8.32" transform="translate(861.16 38.82) rotate(90)"/><rect x="466.7" y="235.4" width="16.63" height="48.15" rx="8.32" transform="translate(950.04 518.95) rotate(-180)"/><rect x="157.62" y="150" width="40.82" height="16.67" rx="8.33"/><rect x="157.62" y="183.33" width="40.82" height="16.67" rx="8.33"/><rect x="157.62" y="283.33" width="40.82" height="16.67" rx="8.33"/><rect x="157.62" y="316.66" width="40.82" height="16.67" rx="8.33"/><rect x="259.19" y="283.33" width="40.82" height="16.67" rx="8.33"/><rect x="259.19" y="316.66" width="40.82" height="16.67" rx="8.33"/><rect x="157.62" y="416.66" width="40.82" height="16.67" rx="8.33"/><rect x="157.62" y="449.97" width="40.82" height="16.67" rx="8.33"/><rect x="262.93" y="416.66" width="40.82" height="16.67" rx="8.33"/><rect x="262.93" y="449.97" width="40.82" height="16.67" rx="8.33"/></g></g></svg>