<svg xmlns="http://www.w3.org/2000/svg" xmlns:xlink="http://www.w3.org/1999/xlink" viewBox="0 0 752 510.27"><defs><style>.cls-1,.cls-13,.cls-14,.cls-7{fill:none;}.cls-2{isolation:isolate;}.cls-3{fill:#fff;}.cls-4{fill:url(#radial-gradient);}.cls-5{opacity:0.19;}.cls-6{clip-path:url(#clip-path);}.cls-13,.cls-14,.cls-7{stroke:#5fc6ff;stroke-miterlimit:10;}.cls-7{stroke-width:0.65px;}.cls-8{fill:#60c8ff;}.cls-9{fill:#5fc6ff;}.cls-10{clip-path:url(#clip-path-2);}.cls-11{opacity:0.33;mix-blend-mode:soft-light;}.cls-12{opacity:0.22;}.cls-13{stroke-width:0.46px;}.cls-14{stroke-width:0.52px;}</style><radialGradient id="radial-gradient" cx="8.79" cy="302.07" r="873.67" gradientTransform="translate(1052.81 0.14) rotate(90) scale(0.67 2.11)" gradientUnits="userSpaceOnUse"><stop offset="0" stop-color="#3033b0"/><stop offset="1" stop-color="#171b63"/></radialGradient><clipPath id="clip-path"><rect class="cls-1" x="26.67" y="10.28" width="696.67" height="464.44"/></clipPath><clipPath id="clip-path-2"><rect class="cls-1" x="97.12" y="57.25" width="555.75" height="370.5"/></clipPath></defs><g class="cls-2"><g id="BACKGROUND"><rect class="cls-3" width="750" height="500"/><path class="cls-4" d="M691.29,0s-97.55,49-97.55,154.52S752,319,752,500H0V0Z"/><g class="cls-5"><g class="cls-6"><path class="cls-7" d="M620.25,410.46l-.84.59c-.56.38-1.33,1-2.4,1.65l-3.79,2.43c-1.47.95-3.12,2-5,3.06a177.37,177.37,0,0,1-28.35,13.57,184.64,184.64,0,0,1-30.26,8.46l-5.77,1c-1.72.28-3.23.43-4.47.6l-3.9.49"/><path class="cls-7" d="M462.21,433.83s-.62-.15-1.76-.56l-4.94-1.67c-2.15-.67-4.68-1.7-7.59-2.85s-6.14-2.59-9.65-4.18a179.64,179.64,0,0,1-22.94-12.88A188,188,0,0,1,391.67,393a182,182,0,0,1-34.76-44.26c-1-1.65-1.83-3.3-2.62-4.86L352,339.46c-1.35-2.83-2.44-5.34-3.37-7.38-.48-1-.85-1.95-1.16-2.77l-.82-2.06-.67-1.72"/><path class="cls-7" d="M557.12,426.31l-3.89.9-2.06.48c-.74.18-1.55.36-2.43.5l-5.86,1a174.32,174.32,0,0,1-63.59-1.61l-5.79-1.34c-1.73-.39-3.2-.88-4.43-1.21L465.23,424"/><path class="cls-7" d="M662.49,347.88l-.76,1.31-2.31,3.6c-1,1.55-2.18,3.45-3.7,5.52s-3.12,4.48-5.13,6.93l-3,3.88-3.45,4c-.6.69-1.2,1.38-1.8,2.09s-1.29,1.35-1.94,2l-4,4.21a192.53,192.53,0,0,1-18.73,16.16,189.3,189.3,0,0,1-20.84,13.32c-3.53,1.76-6.87,3.63-10.2,5-1.66.74-3.25,1.48-4.82,2.16l-4.58,1.8c-2.92,1.23-5.69,2.07-8.11,2.91-1.22.4-2.35.83-3.42,1.12l-2.93.83L558.59,426c-.47.15-.85.22-1.09.28l-.38.08"/><path class="cls-7" d="M685.26,355.78l-3.3,5.71-4.08,6.37c-.76,1.24-1.68,2.5-2.63,3.83l-3,4.21c-1,1.48-2.24,2.91-3.42,4.44s-2.4,3.13-3.75,4.69c-2.7,3.11-5.48,6.44-8.65,9.64s-6.46,6.45-9.87,9.71c-3.56,3.09-7.12,6.31-11,9.2s-7.69,5.73-11.54,8.45c-4,2.55-7.84,5.12-11.79,7.29s-7.77,4.21-11.43,6.1c-1.84.94-3.69,1.71-5.45,2.52s-3.46,1.62-5.14,2.27l-4.8,1.89c-1.53.59-3,1.2-4.36,1.65l-7.17,2.42c-2,.63-3.6,1.05-4.68,1.37l-1.66.47"/><path class="cls-7" d="M477.61,419.9l-1.41-.32-1.7-.39-2.27-.64c-1.69-.49-3.77-1-6.12-1.76s-5-1.65-7.81-2.68a165.94,165.94,0,0,1-39-20.9A159.28,159.28,0,0,1,401.13,378c-.68-.66-1.38-1.29-2-1.95l-1.9-2c-1.25-1.33-2.51-2.59-3.67-3.88s-2.24-2.59-3.31-3.83l-1.57-1.82-1.43-1.82c-1.87-2.39-3.62-4.54-5-6.58-.71-1-1.38-1.95-2-2.81-.3-.44-.6-.85-.88-1.25l-.76-1.17-3-4.68"/><path class="cls-7" d="M553.66,451.36l-4.48.8c-1.43.23-3.15.61-5.15.86l-6.72.86a201.88,201.88,0,0,1-36.31.68l-4.94-.38c-1.64-.15-3.26-.4-4.88-.59l-4.8-.61c-1.58-.22-3.13-.54-4.66-.8-3.06-.54-6-1-8.78-1.73l-4-.93c-1.31-.3-2.57-.6-3.76-.95l-6.52-1.86c-1.94-.53-3.59-1.17-5-1.61l-4.31-1.46"/><path class="cls-7" d="M579.62,405.93l-.88.4c-.58.26-1.42.66-2.52,1.07l-4,1.57c-.77.29-1.58.64-2.45.94l-2.75.93a156.81,156.81,0,0,1-28.85,7,160.67,160.67,0,0,1-29.7,1.47c-1,0-2-.07-2.9-.15l-2.62-.2c-1.65-.14-3.08-.21-4.26-.34l-3.69-.47"/><path class="cls-7" d="M363.32,399.4s5.85.59,11.47.91,11.28.17,11.28.17l.45.44c.3.28.74.69,1.32,1.19l4.78,4.14c.5.42,1,.88,1.55,1.33l1.72,1.35c1.18.93,2.43,1.9,3.71,2.92s2.65,2,4.06,3l4.24,3c2.89,2,5.87,3.8,8.62,5.57l7.76,4.46,7.77,4s.11.29.29.81.49,1.21.83,2.07c.7,1.72,1.66,4,2.67,6.35.52,1.16,1,2.33,1.52,3.42s1,2.06,1.41,2.92l1.44,2.85,2.87,1.13c1.81.77,4.48,1.63,7.67,2.71a209.21,209.21,0,0,0,23.83,6.41l6.59,1.18,3.24.57,3.17.41,6,.76c1.92.23,3.74.31,5.41.46,3.35.25,6.14.5,8.1.5l3.08.08"/><path class="cls-7" d="M518.56,407.25l-1.61.05c-.51,0-1.13.05-1.84,0l-2.4-.06-2.83-.07c-1,0-2.07,0-3.16-.14-2.18-.18-4.52-.32-6.84-.53l-6.8-.87-5.88-1.05c-1.74-.26-3.14-.66-4.14-.87l-1.56-.36s-.54-1.13-1.34-2.83-1.77-4.05-2.69-6.33-1.78-4.55-2.37-6.3-.94-2.92-.94-2.92l-1.36-.45-1.63-.55-1-.35-1.15-.46a125.27,125.27,0,0,1-13.19-5.85,131.27,131.27,0,0,1-35.13-26.08A133.89,133.89,0,0,1,406,333a128.45,128.45,0,0,1-10-17.84l-1.77-3.9-1.41-3.6c-.95-2.24-1.55-4.27-2.13-5.92l-.75-2.19c-.21-.65-.34-1.21-.48-1.66-.25-.89-.38-1.37-.38-1.37l-1.91-.71c-1.2-.47-3-1.12-5.05-2s-4.43-2-7-3.25l-2-1-2-1.05c-1.32-.71-2.67-1.46-4-2.24s-2.72-1.57-4.06-2.38-2.56-1.64-3.8-2.46c-2.46-1.64-4.8-3.25-6.77-4.68-3.81-2.89-6.37-5-6.37-5"/><path class="cls-7" d="M562.12,395.61l2.57-.86,6.67-2.65a155.86,155.86,0,0,0,19.29-10,139.22,139.22,0,0,0,17.58-12.85l3.07-2.65c.91-.79,1.64-1.55,2.28-2.14l2-1.88s1.2.17,3,.36,4.15.37,6.58.52l3.6.19c1.16.06,2.2.05,3.12.07h3.08l1.16-1.35,1.34-1.54,1.64-2.09c2.45-3,5.52-7.19,8.38-11.5.7-1.09,1.4-2.18,2.08-3.26.35-.53.69-1.06,1-1.59s.62-1.07.92-1.6c1.2-2.11,2.37-4,3.29-5.76l2.94-5.76s.47-.11,1.23-.33l3.19-1c1.32-.41,2.88-.9,4.55-1.46s3.5-1.18,5.23-1.86c3.5-1.36,7.1-2.84,9.76-4s4.36-2.09,4.36-2.09l.82-2.42c.25-.77.6-1.69.91-2.78l1-3.65,1.23-4.33,1.13-4.88c.2-.85.4-1.71.6-2.59l.3-1.31.24-1.35c.32-1.79.65-3.62,1-5.45s.57-3.66.8-5.48.46-3.59.67-5.32c.27-3.47.53-6.7.74-9.48.14-5.56.24-9.27.24-9.27"/><path class="cls-7" d="M715.59,265.47l-.06,2.36c0,.75,0,1.66-.08,2.71s-.17,2.22-.26,3.51c-.31,5.15-1.06,12-2.16,18.79-.31,1.7-.61,3.39-.91,5.06l-.45,2.48q-.27,1.22-.54,2.4c-.74,3.14-1.35,6.1-2,8.59l-2.35,8.29s2.29,5.08,4.44,10.49l.8,2,.71,2c.45,1.28.86,2.48,1.22,3.51l1.17,3.49-.46,1.14c-.29.75-.71,1.85-1.34,3.22l-2.23,4.93c-.44,1-.9,2-1.38,3L708,356.75c-1.19,2.28-2.4,4.8-3.85,7.36s-3,5.25-4.63,8l-5.35,8.35c-1.93,2.77-3.92,5.55-5.92,8.34a214.17,214.17,0,0,1-25,28.08l-2.68,2.54c-.86.79-1.71,1.5-2.49,2.19l-4.09,3.54-1.52,1.3-1.16.92-1,.77"/><path class="cls-7" d="M665.71,268.6s-.16,2.12-.41,5.3c-.07,1.6-.36,3.44-.6,5.42s-.48,4.09-.9,6.18c-.19,1-.38,2.09-.56,3.12s-.34,2.05-.59,3c-.45,1.94-.87,3.75-1.22,5.3s-.78,2.82-1,3.72-.4,1.4-.4,1.4-1.73.77-4.28,1.82-6.14,2.3-9.57,3.43-7,2-9.58,2.66c-1.28.32-2.34.57-3.13.73l-1.21.24s-.26.59-.74,1.63-1.06,2.55-2,4.26l-1.43,2.81c-.48,1-1.08,2-1.7,3.08s-1.23,2.15-1.86,3.27-1.41,2.17-2.1,3.27c-1.34,2.24-2.95,4.3-4.34,6.32-.67,1-1.46,1.91-2.14,2.8L614,340.86l-4.25,4.95"/><path class="cls-7" d="M361.1,372.43,358,368c-1-1.31-1.94-2.94-3.06-4.64s-2.31-3.5-3.37-5.39-2.16-3.76-3.18-5.52l-.74-1.3c-.22-.44-.44-.86-.66-1.28l-1.19-2.33-1.79-3.5c-.44-.84-.67-1.33-.67-1.33s-2-.79-5.09-2.07c-1.54-.65-3.34-1.42-5.29-2.28s-3.92-1.86-6-2.87-4.07-2.08-6-3.1-3.62-2.05-5.14-2.93c-3-1.77-5-3-5-3s-.35-1-.9-2.76-1.22-4.3-2.09-7.35c-.21-.76-.44-1.55-.67-2.37s-.39-1.69-.6-2.57c-.41-1.76-.84-3.62-1.28-5.55s-.83-3.93-1.19-6-.73-4.11-1.1-6.19-.57-4.17-.84-6.22-.54-4.08-.72-6c-.31-3.93-.61-7.6-.79-10.74-.16-6.3-.27-10.49-.27-10.49"/><path class="cls-7" d="M619.34,440.22l-2.72,1.56c-1.71,1-4.26,2.32-7.31,3.88a209.17,209.17,0,0,1-23,10l-6.46,2.2c-1.07.34-2.12.73-3.18,1l-3.14.9-5.94,1.68-5.39,1.27-4.56,1c-1.37.28-2.57.48-3.55.66L551,465l-2.69,3.27c-1.64,2-3.9,4.42-6.26,7l-3.5,3.69c-1.14,1.19-2.23,2.2-3.17,3.12l-3.17,3-3,.22c-1.89.18-4.58.24-7.81.32l-5.22.12c-1.85,0-3.81-.06-5.83-.09l-6.22-.18c-2.13-.12-4.28-.3-6.43-.46s-4.31-.29-6.42-.55l-6.21-.78c-4-.45-7.75-1.19-10.95-1.75l-4.35-.8-3.34-.76-2.9-.67"/><path class="cls-7" d="M410.52,110l.84-.59c.56-.38,1.33-1,2.4-1.65l3.8-2.43c1.46-1,3.11-2,5-3.06A176.51,176.51,0,0,1,450.9,88.66a184.92,184.92,0,0,1,30.26-8.46l5.77-1c1.72-.28,3.23-.43,4.47-.6l3.9-.5"/><path class="cls-7" d="M568.56,86.59s.62.15,1.76.55l4.94,1.68c2.15.67,4.68,1.7,7.59,2.85s6.14,2.59,9.65,4.17a181,181,0,0,1,22.94,12.89,186.26,186.26,0,0,1,23.67,18.67,182.22,182.22,0,0,1,34.75,44.26c1,1.65,1.83,3.3,2.62,4.86s1.56,3,2.28,4.44c1.34,2.83,2.43,5.34,3.36,7.38.48,1,.85,1.95,1.16,2.77l.82,2.06.68,1.72"/><path class="cls-7" d="M473.65,94.1l3.9-.89,2.05-.48c.74-.18,1.55-.36,2.43-.5l5.86-1a177.83,177.83,0,0,1,31.87-2.11,175.51,175.51,0,0,1,31.72,3.73l5.8,1.34c1.72.39,3.19.88,4.42,1.21l3.85,1.09"/><path class="cls-7" d="M368.28,172.54l.76-1.31,2.31-3.6c1-1.55,2.18-3.45,3.7-5.52s3.12-4.49,5.13-6.93c1-1.25,2-2.54,3-3.88l3.46-4,1.8-2.08c.62-.68,1.28-1.35,1.93-2l4-4.21a192.64,192.64,0,0,1,18.72-16.17A189.18,189.18,0,0,1,434,109.5c3.53-1.77,6.87-3.63,10.21-5,1.65-.74,3.24-1.49,4.81-2.16l4.58-1.81c2.92-1.22,5.69-2.07,8.11-2.9,1.22-.4,2.35-.83,3.42-1.12l2.94-.84,4.11-1.17c.47-.14.85-.21,1.09-.27l.38-.09"/><path class="cls-7" d="M345.51,164.64l3.3-5.71,4.08-6.37c.77-1.24,1.68-2.5,2.63-3.84l3-4.2c1-1.48,2.24-2.91,3.42-4.44s2.4-3.13,3.75-4.69c2.7-3.11,5.49-6.45,8.65-9.64s6.46-6.46,9.87-9.72c3.56-3.09,7.12-6.3,10.95-9.19,3.71-3,7.69-5.73,11.54-8.45,4-2.55,7.84-5.12,11.79-7.29s7.77-4.22,11.43-6.1c1.84-.94,3.69-1.71,5.45-2.53s3.46-1.61,5.14-2.26l4.8-1.89c1.53-.59,3-1.21,4.36-1.65l7.17-2.42c2-.64,3.6-1,4.68-1.37l1.66-.47"/><path class="cls-7" d="M553.16,100.51l1.41.33,1.7.39,2.27.64c1.69.49,3.77,1,6.12,1.76s5,1.64,7.81,2.68a165.74,165.74,0,0,1,39,20.9,159.28,159.28,0,0,1,18.15,15.25c.68.65,1.38,1.28,2,1.95l1.9,2c1.25,1.33,2.51,2.59,3.67,3.88l3.31,3.82,1.57,1.83,1.43,1.82c1.87,2.38,3.62,4.54,5,6.58.71,1,1.38,1.94,2,2.81l.89,1.25.75,1.17,3,4.67"/><path class="cls-7" d="M477.11,69.06l4.48-.8c1.43-.24,3.15-.61,5.15-.87l6.72-.85a201,201,0,0,1,36.31-.68l4.94.38c1.64.15,3.26.39,4.88.59l4.8.61c1.58.22,3.13.54,4.66.79,3.06.55,6,1,8.78,1.74l4,.93c1.31.3,2.57.59,3.76.95l6.52,1.85c1.94.54,3.59,1.18,5,1.62l4.31,1.46"/><path class="cls-7" d="M451.15,114.49l.88-.4c.58-.26,1.42-.66,2.53-1.07l4-1.57c.77-.29,1.58-.64,2.45-1l2.75-.92a156.81,156.81,0,0,1,28.85-7,159.81,159.81,0,0,1,29.7-1.47c1,0,2,.07,2.91.15l2.61.2c1.65.14,3.08.21,4.26.34l3.69.47"/><path class="cls-7" d="M667.46,121s-5.86-.59-11.48-.91-11.28-.18-11.28-.18l-.45-.43c-.3-.29-.74-.69-1.32-1.19l-4.78-4.14c-.5-.43-1-.88-1.55-1.33l-1.72-1.35-3.71-2.92c-1.27-1-2.65-2-4.06-3l-4.24-3c-2.89-2-5.86-3.8-8.62-5.57l-7.76-4.46-7.77-4-.29-.81-.83-2.07c-.7-1.72-1.66-4-2.67-6.35-.51-1.16-1-2.33-1.52-3.42s-1-2.07-1.41-2.92l-1.43-2.85L587.69,69c-1.81-.77-4.48-1.63-7.67-2.72a211.46,211.46,0,0,0-23.83-6.4l-6.59-1.18-3.23-.57-3.18-.41-6-.76c-1.92-.23-3.74-.32-5.41-.46-3.35-.25-6.14-.5-8.1-.5l-3.08-.08"/><path class="cls-7" d="M512.21,113.16l1.61,0c.51,0,1.13-.05,1.85,0l2.39.07,2.83.07c1,0,2.07,0,3.16.13,2.18.19,4.52.33,6.84.54l6.8.87,5.89,1c1.73.27,3.13.67,4.13.88l1.56.36,1.35,2.83c.8,1.64,1.76,4,2.69,6.33s1.77,4.54,2.36,6.29.94,2.92.94,2.92l1.36.46,1.63.55,1,.34,1.15.46A127.86,127.86,0,0,1,575,143.08a131.43,131.43,0,0,1,35.13,26.07,134.82,134.82,0,0,1,14.72,18.27,129.35,129.35,0,0,1,9.95,17.84l1.77,3.9,1.41,3.6c.95,2.24,1.55,4.27,2.13,5.91l.75,2.2c.21.65.34,1.21.48,1.65l.38,1.38,1.91.71c1.2.46,3,1.12,5,2s4.44,2,7,3.24l2,1,2,1c1.32.71,2.67,1.46,4,2.24s2.72,1.57,4.06,2.37,2.56,1.65,3.8,2.47c2.47,1.63,4.8,3.25,6.77,4.68,3.81,2.89,6.38,5,6.38,5"/><path class="cls-7" d="M468.65,124.81l-2.57.86-6.67,2.64a158.17,158.17,0,0,0-19.29,10,139.24,139.24,0,0,0-17.58,12.84l-3.07,2.66c-.91.79-1.64,1.55-2.28,2.14l-2,1.88s-1.2-.17-3-.36-4.15-.37-6.58-.52l-3.6-.2c-1.16-.05-2.2-.05-3.12-.06h-3.08l-1.16,1.35c-.37.43-.83.94-1.34,1.54l-1.64,2.09c-2.45,3-5.52,7.19-8.38,11.5l-2.08,3.26c-.35.53-.69,1.06-1,1.59s-.62,1.07-.92,1.6c-1.2,2.11-2.37,4.05-3.28,5.76l-2.95,5.75-1.23.34-3.19,1c-1.32.41-2.87.9-4.55,1.46s-3.5,1.17-5.23,1.86c-3.5,1.36-7.1,2.84-9.76,4s-4.36,2.09-4.36,2.09l-.82,2.41c-.25.78-.6,1.7-.91,2.79l-1,3.65-1.23,4.33L339.63,220c-.2.85-.39,1.71-.6,2.58l-.3,1.32-.24,1.34c-.32,1.8-.65,3.63-1,5.46s-.58,3.66-.81,5.47-.45,3.6-.67,5.33c-.27,3.46-.52,6.7-.74,9.48-.14,5.56-.23,9.27-.23,9.27"/><path class="cls-7" d="M315.18,255s0-.86.07-2.36c0-.75,0-1.66.07-2.71s.17-2.22.26-3.51c.31-5.15,1.06-12,2.17-18.8.3-1.69.6-3.39.9-5,.15-.84.3-1.67.45-2.48s.36-1.62.54-2.4c.74-3.15,1.35-6.1,2-8.59,1.41-5,2.36-8.29,2.36-8.29s-2.3-5.08-4.45-10.49c-.27-.68-.54-1.36-.8-2l-.71-2c-.44-1.29-.86-2.49-1.22-3.51l-1.17-3.49.46-1.14c.3-.75.71-1.86,1.35-3.22s1.36-3,2.22-4.94q.66-1.43,1.38-3l1.67-3.29c1.19-2.28,2.4-4.8,3.85-7.37s3-5.24,4.63-8,3.53-5.5,5.35-8.34,3.93-5.55,5.92-8.34a214.17,214.17,0,0,1,25.05-28.08l2.68-2.54c.86-.79,1.71-1.51,2.49-2.2l4.09-3.53,1.52-1.31,1.16-.91,1-.77"/><path class="cls-7" d="M365.06,251.82s.17-2.12.41-5.31c.07-1.59.36-3.43.6-5.41s.48-4.1.91-6.18c.18-1,.37-2.09.55-3.12s.34-2.05.59-3l1.23-5.31c.33-1.55.77-2.81,1-3.71l.39-1.4s1.73-.77,4.28-1.83,6.14-2.3,9.57-3.42,7-2,9.58-2.67c1.28-.31,2.34-.57,3.13-.72l1.21-.24.74-1.63c.49-1,1.06-2.55,2-4.26l1.43-2.81c.48-1,1.08-2,1.7-3.08s1.23-2.16,1.87-3.27,1.4-2.17,2.09-3.28c1.34-2.23,2.95-4.3,4.34-6.31.67-1,1.46-1.91,2.14-2.8l2-2.49,4.25-4.95"/><path class="cls-7" d="M669.68,148l3.13,4.41c1,1.31,1.94,2.94,3.06,4.64s2.31,3.5,3.37,5.39l3.18,5.52.74,1.3c.23.44.44.86.66,1.27.42.83.82,1.62,1.2,2.34l1.78,3.5c.44.84.67,1.33.67,1.33s2,.79,5.1,2.07c1.53.64,3.33,1.42,5.28,2.28s3.92,1.86,6,2.87,4.08,2.07,6,3.1,3.62,2.05,5.14,2.92c3,1.78,5,3,5,3s.35,1,.9,2.76,1.23,4.3,2.09,7.34c.22.76.44,1.56.67,2.38s.39,1.68.6,2.57c.41,1.76.84,3.62,1.28,5.55s.83,3.92,1.19,6,.73,4.11,1.1,6.18.57,4.18.84,6.23.54,4.07.72,6c.31,3.93.62,7.59.79,10.74.16,6.29.27,10.49.27,10.49"/><path class="cls-7" d="M411.43,80.2l2.72-1.57c1.71-1,4.26-2.31,7.31-3.88a213.05,213.05,0,0,1,23-10L451,62.54c1.07-.35,2.12-.73,3.18-1l3.14-.9,6-1.68,5.38-1.26,4.56-1c1.37-.28,2.57-.48,3.55-.66l3.09-.56s1.08-1.3,2.69-3.27,3.91-4.42,6.26-7l3.51-3.7c1.13-1.18,2.22-2.19,3.16-3.11l3.17-3,3-.21c1.89-.18,4.58-.24,7.81-.32l5.22-.12c1.85,0,3.81.06,5.83.09l6.23.17c2.12.13,4.27.3,6.42.46s4.31.3,6.43.56l6.2.78c4,.45,7.75,1.19,10.95,1.75l4.36.8,3.33.76,2.9.67"/><rect class="cls-8" x="538.66" y="55.77" width="7.61" height="3.19" rx="1.01" transform="translate(8.96 -56.36) rotate(6)"/><rect class="cls-8" x="457.73" y="83.62" width="7.61" height="3.19" rx="1.01" transform="translate(-4.97 136.71) rotate(-16.76)"/><rect class="cls-8" x="301.63" y="307.76" width="9.45" height="3.96" rx="1.25" transform="translate(553.37 -49.12) rotate(79.22)"/><rect class="cls-8" x="502.49" y="429.65" width="6.9" height="2.89" rx="0.91" transform="translate(25.8 -28.57) rotate(3.32)"/><rect class="cls-8" x="689.42" y="289.53" width="6.95" height="2.91" rx="0.92" transform="translate(1098.15 -341.9) rotate(99.85)"/><rect class="cls-8" x="636.03" y="126.31" width="6.95" height="2.91" rx="0.92" transform="translate(245.98 -392.26) rotate(41.59)"/><rect class="cls-8" x="623.25" y="418.97" width="6.95" height="2.91" rx="0.92" transform="translate(1381.36 411.54) rotate(145.47)"/><rect class="cls-8" x="342.44" y="125.74" width="6.95" height="2.91" rx="0.92" transform="translate(32.7 321.44) rotate(-51.99)"/><path class="cls-9" d="M382.42,92.16a2,2,0,1,1-2-2A2,2,0,0,1,382.42,92.16Z"/><path class="cls-9" d="M569.83,86.27a2,2,0,1,1-2-2A2,2,0,0,1,569.83,86.27Z"/><path class="cls-9" d="M347,165.7a2,2,0,1,1-2-2A2,2,0,0,1,347,165.7Z"/><path class="cls-9" d="M670.93,146.33a2,2,0,1,1-2-2A2,2,0,0,1,670.93,146.33Z"/><circle class="cls-9" cx="582.95" cy="77.24" r="2.03"/><circle class="cls-9" cx="663.11" cy="346.49" r="2.03"/><path class="cls-9" d="M667.74,267.2a2,2,0,1,1-2-2A2,2,0,0,1,667.74,267.2Z"/><path class="cls-9" d="M521.74,407.23a2,2,0,1,1-2-2A2,2,0,0,1,521.74,407.23Z"/><circle class="cls-9" cx="448.35" cy="443.03" r="2.03"/><path class="cls-9" d="M536,442.43a2,2,0,1,1-2-2A2,2,0,0,1,536,442.43Z"/><circle class="cls-9" cx="648.98" cy="429.05" r="2.03"/><path class="cls-9" d="M302.34,258.42a2,2,0,1,1-2-2A2,2,0,0,1,302.34,258.42Z"/><path class="cls-9" d="M364,374a2,2,0,1,1-2-2A2,2,0,0,1,364,374Z"/><path class="cls-7" d="M363.39,399a2,2,0,1,1-2-2A2,2,0,0,1,363.39,399Z"/><path class="cls-7" d="M346.63,270.41a2,2,0,1,1-2-2A2,2,0,0,1,346.63,270.41Z"/><path class="cls-7" d="M472.56,123.77a2,2,0,1,1-2-2A2,2,0,0,1,472.56,123.77Z"/><path class="cls-7" d="M571.12,41.5a2,2,0,1,1-2-2A2,2,0,0,1,571.12,41.5Z"/><path class="cls-7" d="M512.4,113.24a2,2,0,1,1-2-2A2,2,0,0,1,512.4,113.24Z"/><path class="cls-7" d="M671.46,121.26a2,2,0,1,1-2-2A2,2,0,0,1,671.46,121.26Z"/><path class="cls-7" d="M658.23,175.93a2,2,0,1,1-2-2A2,2,0,0,1,658.23,175.93Z"/><path class="cls-7" d="M717.44,263.65a2,2,0,1,1-2-2A2,2,0,0,1,717.44,263.65Z"/><circle class="cls-7" cx="685.49" cy="196.63" r="2.03"/><path class="cls-7" d="M562.52,396.31a2,2,0,1,1-2-2A2,2,0,0,1,562.52,396.31Z"/></g></g></g><g id="OBJECTS"><g class="cls-10"><g class="cls-11"><path class="cls-3" d="M116.05,34a1,1,0,1,1-1-1.05A1,1,0,0,1,116.05,34Z"/><path class="cls-3" d="M158.94,34a1,1,0,1,1-1.05-1.05A1,1,0,0,1,158.94,34Z"/><path class="cls-3" d="M201.83,34a1,1,0,1,1-1-1.05A1,1,0,0,1,201.83,34Z"/><path class="cls-3" d="M244.73,34a1,1,0,1,1-1-1.05A1,1,0,0,1,244.73,34Z"/><path class="cls-3" d="M287.62,34a1,1,0,1,1-1.05-1.05A1,1,0,0,1,287.62,34Z"/><path class="cls-3" d="M330.52,34a1,1,0,1,1-1-1.05A1,1,0,0,1,330.52,34Z"/><path class="cls-3" d="M373.41,34a1.05,1.05,0,1,1-1.05-1.05A1,1,0,0,1,373.41,34Z"/><path class="cls-3" d="M416.3,34a1,1,0,1,1-1-1.05A1,1,0,0,1,416.3,34Z"/><path class="cls-3" d="M459.2,34a1.05,1.05,0,1,1-1.05-1.05A1,1,0,0,1,459.2,34Z"/><path class="cls-3" d="M502.09,34a1,1,0,1,1-1-1.05A1,1,0,0,1,502.09,34Z"/><path class="cls-3" d="M545,34a1,1,0,1,1-1-1.05A1,1,0,0,1,545,34Z"/><path class="cls-3" d="M587.88,34a1.05,1.05,0,1,1-1-1.05A1,1,0,0,1,587.88,34Z"/><path class="cls-3" d="M630.77,34a1,1,0,1,1-1-1.05A1,1,0,0,1,630.77,34Z"/><path class="cls-3" d="M673.66,34a1,1,0,1,1-1-1.05A1,1,0,0,1,673.66,34Z"/><circle class="cls-3" cx="115" cy="75.72" r="1.05"/><path class="cls-3" d="M158.94,75.72a1,1,0,1,1-1.05-1A1,1,0,0,1,158.94,75.72Z"/><circle class="cls-3" cx="200.79" cy="75.72" r="1.05"/><circle class="cls-3" cx="243.68" cy="75.72" r="1.05"/><path class="cls-3" d="M287.62,75.72a1,1,0,1,1-1.05-1A1,1,0,0,1,287.62,75.72Z"/><circle class="cls-3" cx="329.47" cy="75.72" r="1.05"/><path class="cls-3" d="M373.41,75.72a1.05,1.05,0,1,1-1.05-1A1,1,0,0,1,373.41,75.72Z"/><path class="cls-3" d="M416.3,75.72a1,1,0,1,1-1-1A1,1,0,0,1,416.3,75.72Z"/><circle class="cls-3" cx="458.15" cy="75.72" r="1.05"/><circle class="cls-3" cx="501.04" cy="75.72" r="1.05"/><circle class="cls-3" cx="543.94" cy="75.72" r="1.05"/><circle class="cls-3" cx="586.83" cy="75.72" r="1.05"/><circle class="cls-3" cx="629.72" cy="75.72" r="1.05"/><circle class="cls-3" cx="672.62" cy="75.72" r="1.05"/><path class="cls-3" d="M116.05,117.5a1,1,0,1,1-1-1A1,1,0,0,1,116.05,117.5Z"/><path class="cls-3" d="M158.94,117.5a1,1,0,1,1-1.05-1A1,1,0,0,1,158.94,117.5Z"/><path class="cls-3" d="M201.83,117.5a1,1,0,1,1-1-1A1,1,0,0,1,201.83,117.5Z"/><path class="cls-3" d="M244.73,117.5a1,1,0,1,1-1-1A1,1,0,0,1,244.73,117.5Z"/><path class="cls-3" d="M287.62,117.5a1,1,0,1,1-1.05-1A1,1,0,0,1,287.62,117.5Z"/><path class="cls-3" d="M330.52,117.5a1,1,0,1,1-1-1A1,1,0,0,1,330.52,117.5Z"/><path class="cls-3" d="M373.41,117.5a1.05,1.05,0,1,1-1.05-1A1,1,0,0,1,373.41,117.5Z"/><path class="cls-3" d="M416.3,117.5a1,1,0,1,1-1-1A1,1,0,0,1,416.3,117.5Z"/><path class="cls-3" d="M459.2,117.5a1.05,1.05,0,1,1-1.05-1A1,1,0,0,1,459.2,117.5Z"/><path class="cls-3" d="M502.09,117.5a1,1,0,1,1-1-1A1,1,0,0,1,502.09,117.5Z"/><path class="cls-3" d="M545,117.5a1,1,0,1,1-1-1A1,1,0,0,1,545,117.5Z"/><path class="cls-3" d="M587.88,117.5a1.05,1.05,0,1,1-1-1A1,1,0,0,1,587.88,117.5Z"/><path class="cls-3" d="M630.77,117.5a1,1,0,1,1-1-1A1,1,0,0,1,630.77,117.5Z"/><path class="cls-3" d="M673.66,117.5a1,1,0,1,1-1-1A1,1,0,0,1,673.66,117.5Z"/><circle class="cls-3" cx="115" cy="159.27" r="1.05"/><path class="cls-3" d="M158.94,159.27a1,1,0,1,1-1.05-1A1,1,0,0,1,158.94,159.27Z"/><circle class="cls-3" cx="200.79" cy="159.27" r="1.05"/><circle class="cls-3" cx="243.68" cy="159.27" r="1.05"/><path class="cls-3" d="M287.62,159.27a1,1,0,1,1-1.05-1A1,1,0,0,1,287.62,159.27Z"/><circle class="cls-3" cx="329.47" cy="159.27" r="1.05"/><path class="cls-3" d="M373.41,159.27a1.05,1.05,0,1,1-1.05-1A1,1,0,0,1,373.41,159.27Z"/><path class="cls-3" d="M416.3,159.27a1,1,0,1,1-1-1A1,1,0,0,1,416.3,159.27Z"/><circle class="cls-3" cx="458.15" cy="159.27" r="1.05"/><circle class="cls-3" cx="501.04" cy="159.27" r="1.05"/><circle class="cls-3" cx="543.94" cy="159.27" r="1.05"/><circle class="cls-3" cx="586.83" cy="159.27" r="1.05"/><circle class="cls-3" cx="629.72" cy="159.27" r="1.05"/><circle class="cls-3" cx="672.62" cy="159.27" r="1.05"/><path class="cls-3" d="M116.05,201.05a1,1,0,1,1-1-1.05A1,1,0,0,1,116.05,201.05Z"/><path class="cls-3" d="M158.94,201.05a1,1,0,1,1-1.05-1.05A1,1,0,0,1,158.94,201.05Z"/><path class="cls-3" d="M201.83,201.05a1,1,0,1,1-1-1.05A1,1,0,0,1,201.83,201.05Z"/><path class="cls-3" d="M244.73,201.05a1,1,0,1,1-1-1.05A1,1,0,0,1,244.73,201.05Z"/><path class="cls-3" d="M287.62,201.05a1,1,0,1,1-1.05-1.05A1,1,0,0,1,287.62,201.05Z"/><path class="cls-3" d="M330.52,201.05a1,1,0,1,1-1-1.05A1,1,0,0,1,330.52,201.05Z"/><path class="cls-3" d="M373.41,201.05a1.05,1.05,0,1,1-1.05-1.05A1,1,0,0,1,373.41,201.05Z"/><path class="cls-3" d="M416.3,201.05a1,1,0,1,1-1-1.05A1,1,0,0,1,416.3,201.05Z"/><path class="cls-3" d="M459.2,201.05a1.05,1.05,0,1,1-1.05-1.05A1,1,0,0,1,459.2,201.05Z"/><path class="cls-3" d="M502.09,201.05a1,1,0,1,1-1-1.05A1,1,0,0,1,502.09,201.05Z"/><path class="cls-3" d="M545,201.05a1,1,0,1,1-1-1.05A1,1,0,0,1,545,201.05Z"/><path class="cls-3" d="M587.88,201.05a1.05,1.05,0,1,1-1-1.05A1,1,0,0,1,587.88,201.05Z"/><path class="cls-3" d="M630.77,201.05a1,1,0,1,1-1-1.05A1,1,0,0,1,630.77,201.05Z"/><path class="cls-3" d="M673.66,201.05a1,1,0,1,1-1-1.05A1,1,0,0,1,673.66,201.05Z"/><circle class="cls-3" cx="115" cy="242.82" r="1.05"/><path class="cls-3" d="M158.94,242.82a1,1,0,1,1-2.09,0,1,1,0,0,1,2.09,0Z"/><circle class="cls-3" cx="200.79" cy="242.82" r="1.05"/><circle class="cls-3" cx="243.68" cy="242.82" r="1.05"/><path class="cls-3" d="M287.62,242.82a1,1,0,1,1-2.09,0,1,1,0,0,1,2.09,0Z"/><circle class="cls-3" cx="329.47" cy="242.82" r="1.05"/><path class="cls-3" d="M373.41,242.82a1.05,1.05,0,1,1-1.05-1A1,1,0,0,1,373.41,242.82Z"/><path class="cls-3" d="M416.3,242.82a1,1,0,1,1-1-1A1,1,0,0,1,416.3,242.82Z"/><circle class="cls-3" cx="458.15" cy="242.82" r="1.05"/><circle class="cls-3" cx="501.04" cy="242.82" r="1.05"/><circle class="cls-3" cx="543.94" cy="242.82" r="1.05"/><circle class="cls-3" cx="586.83" cy="242.82" r="1.05"/><circle class="cls-3" cx="629.72" cy="242.82" r="1.05"/><circle class="cls-3" cx="672.62" cy="242.82" r="1.05"/><path class="cls-3" d="M116.05,284.6a1,1,0,1,1-1-1.05A1,1,0,0,1,116.05,284.6Z"/><path class="cls-3" d="M158.94,284.6a1,1,0,1,1-1.05-1.05A1,1,0,0,1,158.94,284.6Z"/><path class="cls-3" d="M201.83,284.6a1,1,0,1,1-1-1.05A1,1,0,0,1,201.83,284.6Z"/><path class="cls-3" d="M244.73,284.6a1,1,0,1,1-1-1.05A1,1,0,0,1,244.73,284.6Z"/><path class="cls-3" d="M287.62,284.6a1,1,0,1,1-1.05-1.05A1,1,0,0,1,287.62,284.6Z"/><path class="cls-3" d="M330.52,284.6a1,1,0,1,1-1-1.05A1,1,0,0,1,330.52,284.6Z"/><path class="cls-3" d="M373.41,284.6a1.05,1.05,0,1,1-1.05-1.05A1,1,0,0,1,373.41,284.6Z"/><path class="cls-3" d="M416.3,284.6a1,1,0,1,1-1-1.05A1,1,0,0,1,416.3,284.6Z"/><path class="cls-3" d="M459.2,284.6a1.05,1.05,0,1,1-1.05-1.05A1,1,0,0,1,459.2,284.6Z"/><path class="cls-3" d="M502.09,284.6a1,1,0,1,1-1-1.05A1,1,0,0,1,502.09,284.6Z"/><path class="cls-3" d="M545,284.6a1,1,0,1,1-1-1.05A1,1,0,0,1,545,284.6Z"/><path class="cls-3" d="M587.88,284.6a1.05,1.05,0,1,1-1-1.05A1,1,0,0,1,587.88,284.6Z"/><path class="cls-3" d="M630.77,284.6a1,1,0,1,1-1-1.05A1,1,0,0,1,630.77,284.6Z"/><path class="cls-3" d="M673.66,284.6a1,1,0,1,1-1-1.05A1,1,0,0,1,673.66,284.6Z"/><circle class="cls-3" cx="115" cy="326.37" r="1.05"/><path class="cls-3" d="M158.94,326.37a1,1,0,1,1-2.09,0,1,1,0,0,1,2.09,0Z"/><circle class="cls-3" cx="200.79" cy="326.37" r="1.05"/><circle class="cls-3" cx="243.68" cy="326.37" r="1.05"/><path class="cls-3" d="M287.62,326.37a1,1,0,1,1-2.09,0,1,1,0,0,1,2.09,0Z"/><circle class="cls-3" cx="329.47" cy="326.37" r="1.05"/><path class="cls-3" d="M373.41,326.37a1.05,1.05,0,1,1-1.05-1A1,1,0,0,1,373.41,326.37Z"/><path class="cls-3" d="M416.3,326.37a1,1,0,1,1-1-1A1,1,0,0,1,416.3,326.37Z"/><circle class="cls-3" cx="458.15" cy="326.37" r="1.05"/><circle class="cls-3" cx="501.04" cy="326.37" r="1.05"/><circle class="cls-3" cx="543.94" cy="326.37" r="1.05"/><circle class="cls-3" cx="586.83" cy="326.37" r="1.05"/><circle class="cls-3" cx="629.72" cy="326.37" r="1.05"/><circle class="cls-3" cx="672.62" cy="326.37" r="1.05"/><circle class="cls-3" cx="115" cy="368.15" r="1.05"/><path class="cls-3" d="M158.94,368.15a1,1,0,1,1-1.05-1A1,1,0,0,1,158.94,368.15Z"/><circle class="cls-3" cx="200.79" cy="368.15" r="1.05"/><circle class="cls-3" cx="243.68" cy="368.15" r="1.05"/><path class="cls-3" d="M287.62,368.15a1,1,0,1,1-1.05-1A1,1,0,0,1,287.62,368.15Z"/><circle class="cls-3" cx="329.47" cy="368.15" r="1.05"/><path class="cls-3" d="M373.41,368.15a1.05,1.05,0,1,1-1.05-1A1,1,0,0,1,373.41,368.15Z"/><path class="cls-3" d="M416.3,368.15a1,1,0,0,1-2.09,0,1,1,0,1,1,2.09,0Z"/><circle class="cls-3" cx="458.15" cy="368.15" r="1.05"/><circle class="cls-3" cx="501.04" cy="368.15" r="1.05"/><circle class="cls-3" cx="543.94" cy="368.15" r="1.05"/><circle class="cls-3" cx="586.83" cy="368.15" r="1.05"/><circle class="cls-3" cx="629.72" cy="368.15" r="1.05"/><circle class="cls-3" cx="672.62" cy="368.15" r="1.05"/><circle class="cls-3" cx="115" cy="409.92" r="1.05"/><path class="cls-3" d="M158.94,409.92a1,1,0,1,1-1.05-1.05A1,1,0,0,1,158.94,409.92Z"/><circle class="cls-3" cx="200.79" cy="409.92" r="1.05"/><circle class="cls-3" cx="243.68" cy="409.92" r="1.05"/><path class="cls-3" d="M287.62,409.92a1,1,0,1,1-1.05-1.05A1,1,0,0,1,287.62,409.92Z"/><circle class="cls-3" cx="329.47" cy="409.92" r="1.05"/><path class="cls-3" d="M373.41,409.92a1.05,1.05,0,1,1-1.05-1.05A1,1,0,0,1,373.41,409.92Z"/><path class="cls-3" d="M416.3,409.92a1,1,0,1,1-1-1.05A1,1,0,0,1,416.3,409.92Z"/><circle class="cls-3" cx="458.15" cy="409.92" r="1.05"/><circle class="cls-3" cx="501.04" cy="409.92" r="1.05"/><circle class="cls-3" cx="543.94" cy="409.92" r="1.05"/><circle class="cls-3" cx="586.83" cy="409.92" r="1.05"/><circle class="cls-3" cx="629.72" cy="409.92" r="1.05"/><circle class="cls-3" cx="672.62" cy="409.92" r="1.05"/></g></g><g class="cls-10"><g class="cls-12"><path class="cls-13" d="M597.41,450.53,594.6,452c-1.8.95-4.33,2.37-7.43,3.95l-5.08,2.42c-1.8.84-3.67,1.81-5.7,2.61-4,1.68-8.27,3.56-12.66,5.06a224,224,0,0,1-24.42,7.43c-1.68.47-3.25.75-4.63,1.05l-3.59.75L528,476"/><path class="cls-13" d="M467.78,477.7l-1.5-.13c-1-.1-2.41-.19-4.23-.39l-6.55-.9-4-.56-4.43-.83c-3.09-.58-6.45-1.14-9.93-2.05s-7.21-1.66-10.95-2.84l-5.74-1.69c-1.94-.56-3.84-1.31-5.79-2l-5.88-2.06L403,461.93c-1.93-.81-3.89-1.53-5.78-2.41l-5.64-2.64c-3.77-1.66-7.3-3.66-10.78-5.48L378.17,450c-.85-.45-1.65-1-2.47-1.45L371,445.74c-3.13-1.77-5.89-3.77-8.52-5.49-1.3-.88-2.56-1.7-3.73-2.51l-3.27-2.43-5.3-3.94-4.45-3.66"/><path class="cls-13" d="M545.36,463.07l-3.24.84-3.71,1-2.28.6c-.8.2-1.66.35-2.55.55-3.57.71-7.71,1.72-12.22,2.34-2.26.34-4.57.78-6.94,1.06l-7.21.79c-2.41.32-4.84.37-7.22.54l-3.55.22-1.74.11-1.72,0c-4.55,0-8.8.19-12.44,0s-6.68-.18-8.79-.43l-3.33-.29"/><path class="cls-13" d="M641,406.06l-3.43,3.41-1.8,1.8-1,1-1.15,1-5.35,4.82c-1,.91-2,1.78-3.13,2.67l-3.41,2.79c-1.19.94-2.34,2-3.64,2.9l-3.9,2.89c-1.34,1-2.66,2-4.06,3l-4.28,2.85c-1.45.95-2.87,2-4.36,2.88l-4.52,2.71c-1.52.89-3,1.85-4.54,2.68L587.75,446c-1.54.81-3,1.68-4.56,2.4l-4.53,2.16c-1.49.7-2.94,1.43-4.4,2.07L570,454.4l-4.06,1.71c-1.31.55-2.62,1-3.86,1.44L555.28,460l-5.3,1.65-3.41,1.06c-.79.26-1.21.36-1.21.36"/><path class="cls-13" d="M655.79,415.06l-.92,1c-.58.67-1.54,1.56-2.7,2.75-2.38,2.32-5.65,5.77-9.95,9.51-2.12,1.91-4.37,4-6.94,6l-3.88,3.18-2,1.64-2.12,1.58L622.9,444c-1.46,1.09-2.95,2.2-4.53,3.21l-4.69,3.13-2.36,1.58c-.8.51-1.62,1-2.43,1.48a239.28,239.28,0,0,1-37.27,18.69l-7.29,2.67-3.05,1.11c-.94.33-1.83.58-2.62.83l-5,1.55"/><path class="cls-13" d="M477.91,465.86l-1.23,0c-.8-.05-2,0-3.48-.18l-5.4-.46-3.32-.29c-1.17-.1-2.39-.31-3.67-.47-2.54-.38-5.32-.67-8.23-1.18l-9.12-1.71-9.65-2.32c-3.26-.9-6.55-1.91-9.85-2.86s-6.49-2.25-9.69-3.34l-1.19-.42-1.17-.48-2.32-.94-4.54-1.85c-.74-.31-1.49-.59-2.21-.92l-2.13-1-4.12-1.92c-1.33-.64-2.66-1.2-3.88-1.85l-3.55-1.89c-2.26-1.23-4.39-2.27-6.19-3.34l-4.65-2.79-3-1.78c-.34-.21-.61-.37-.78-.49l-.26-.18"/><path class="cls-13" d="M542.74,481.25s-1.26.35-3.49.89L530,484.08c-1.92.43-4,.68-6.26,1.06s-4.56.78-7,1.07c-4.88.51-10.08,1.22-15.32,1.44l-3.92.23-1.95.12-1.94,0-7.58.1-1.83,0-1.79-.06-3.46-.13-6.35-.25-9.46-.81c-1.15-.09-2-.18-2.65-.28l-.93-.13"/><path class="cls-13" d="M565,447.19l-3,1.24-7.94,2.9-1.26.46-1.33.41-2.78.86c-1.92.58-3.93,1.26-6,1.84-4.24,1.07-8.72,2.38-13.31,3.23l-3.42.72-1.7.35-1.71.28-6.65,1.06-1.61.26-1.58.17-3.07.34c-2,.21-3.87.44-5.61.6l-8.43.51c-1,.08-1.82.08-2.37.09h-.84"/><path class="cls-13" d="M384.65,473.11s4.25-1,8.34-2.17,8.18-2.57,8.18-2.57l1.78.72,2,.83c.78.33,1.67.68,2.66,1l6.75,2.36c1.24.41,2.49.91,3.82,1.28l4,1.17,4,1.18,2,.57c.65.18,1.3.32,1.93.48l7,1.66c1,.24,1.95.49,2.78.65l2.17.41,1.88.35s2.35,2.93,4.84,5.87c1.24,1.5,2.52,2.84,3.49,3.92l1.63,1.76,2.38.32,2.72.37,1.68.22,1.87.18,8.9.76c3.26.22,6.75.28,10.24.43l2.61.08,2.59,0,5-.06c1.63,0,3.22,0,4.71-.11l4.21-.25,6.31-.39,2.38-.26"/><path class="cls-13" d="M511.72,452.35l-5.18.57-2.51.28c-.89.1-1.84.12-2.81.19l-6.12.38c-2.08.12-4.16.07-6.12.12s-3.77.1-5.34,0l-5.2-.19-1.69-1.82-1.7-1.86-1.9-2.24c-2.57-3.05-4.95-6.06-4.95-6.06l-1.35-.11c-.88-.09-2.16-.3-3.79-.51l-5.88-.81-7.57-1.42c-1.4-.22-2.81-.63-4.3-1l-4.58-1.1c-1.59-.32-3.16-.87-4.8-1.33l-5-1.46c-1.69-.52-3.37-1.17-5.09-1.76s-3.48-1.16-5.2-1.85l-5.2-2.12-2.62-1.06c-.87-.36-1.71-.8-2.57-1.19l-5.13-2.4-1.28-.59-1.24-.66-2.47-1.31-4.87-2.59-4.62-2.76c-.75-.46-1.51-.9-2.25-1.35l-1.12-.66-1.06-.71-4.14-2.77c-2.74-1.73-5.11-3.66-7.4-5.32s-4.27-3.32-6-4.77l-2.48-2c-.39-.31-.75-.62-1.1-.91l-1-.87-3.83-3.49-1.64.1-1.9.11-2.42.05c-1.78,0-3.88,0-6.16,0s-4.78,0-7.18-.19-4.89-.32-7.22-.51-4.56-.39-6.39-.65c-3.72-.49-6.25-.88-6.25-.88"/><path class="cls-13" d="M550.55,440.41l2.32-.85c1.46-.56,3.6-1.25,6.09-2.27s5.39-2.21,8.46-3.6l4.67-2.23,2.41-1.15c.81-.37,1.58-.83,2.38-1.25,3.15-1.72,6.36-3.32,9.2-5.12l4.16-2.49c1.34-.76,2.51-1.64,3.64-2.37,2.23-1.5,4.11-2.72,5.4-3.61l2-1.47s3.71.57,7.55,1.05c1.94.27,3.8.4,5.25.53l2.4.19,4.33-3.54,4.26-3.84c1.55-1.41,3.25-2.87,4.8-4.49l4.66-4.63c1.5-1.47,2.75-3,3.9-4.21l3.76-4.13s5.65-.63,11.54-1.53l2.19-.35,2.08-.39,3.72-.74,3.67-.78,1.24-1.68c.82-1,1.86-2.63,3.12-4.52s2.76-4.08,4.29-6.48l4.57-7.65c.81-1.29,1.49-2.64,2.19-4l2.06-3.87c.66-1.26,1.31-2.47,1.92-3.62L686.3,352c1.93-4.12,3.21-6.87,3.21-6.87"/><path class="cls-13" d="M700.89,354.64,698,360.73c-.83,1.84-2,3.89-3.17,6.13L693,370.3c-.62,1.17-1.25,2.37-2,3.51-2.77,4.63-5.46,9.3-7.8,12.61L679.52,392l.07.73c0,.46.06,1.12.11,1.91.07,1.61.17,3.74.28,5.88s.13,4.36.18,6,0,2.73,0,2.73l-2.28,2.78-2.63,3.18c-1,1.22-2.13,2.64-3.47,4.07a244.76,244.76,0,0,1-20.24,20.4c-3.82,3.57-7.93,6.8-11.72,9.91-1.86,1.59-3.82,2.92-5.61,4.28s-3.52,2.59-5.09,3.76c-3.23,2.22-6,4-7.86,5.28l-2.21,1.46c-.51.34-.8.5-.8.5"/><path class="cls-13" d="M666.86,343.35l-.55,1.17-.62,1.35-.91,1.7-2.26,4.26c-.83,1.56-1.67,3.24-2.68,4.83s-1.92,3.23-2.83,4.74l-1.3,2.19-1.27,1.89-2.61,3.91-3.59.73c-2.19.39-5.14.83-8,1.24s-5.66.77-7.87.92l-3.58.27-1.09,1.32c-.71.83-1.64,2.09-2.91,3.46l-4.3,4.73c-.4.43-.78.88-1.2,1.31l-1.3,1.28-2.64,2.63c-.89.87-1.74,1.79-2.65,2.61L610,392.3c-1.76,1.55-3.31,3.09-4.8,4.23l-4.83,4"/><path class="cls-13" d="M374.13,455.36l-3.72-2.22-3.8-2.27-2.14-1.29-2.15-1.44c-2.87-1.93-5.78-3.81-7.89-5.32L351,440.24l-4.2.25c-1.26.07-2.76.16-4.36.2l-5,0c-3.4,0-6.88-.06-9.51-.13s-4.32-.25-4.32-.25l-5.94-5.4c-1.75-1.65-3.7-3.68-5.83-5.8l-3.27-3.3-3.22-3.55-3.21-3.56c-.52-.59-1.05-1.17-1.56-1.74l-1.46-1.77-5.2-6.37c-.78-.93-1.43-1.81-2-2.6l-1.51-2c-.84-1.12-1.31-1.77-1.31-1.77"/><path class="cls-13" d="M594,472.28l-8,3.79c-4.85,2.08-11.31,4.91-18,7.21-1.66.59-3.3,1.24-5,1.75l-4.86,1.52L553.66,488c-1.44.45-2.84.77-4.12,1.12l-6.18,1.6-1.73.44-.62.13s-3.11,3.88-6.44,7.79l-2.46,2.87-2.21,2.42-2.2,2.34-2.2.35c-1.41.21-3.4.58-5.81.88-4.83.52-11.26,1.36-17.75,1.64l-4.82.29c-1.6.1-3.17.07-4.69.11l-8.31.1-8.1-.28"/><path class="cls-13" d="M263.84,255.3s0-.29,0-.83,0-1.34.06-2.36c.07-2,.18-4.93.3-8.41s.62-7.52,1-11.86c.29-2.16.6-4.39.91-6.65.15-1.13.31-2.27.46-3.42s.41-2.28.61-3.42c.43-2.29.86-4.57,1.28-6.82.19-1.12.47-2.22.73-3.31s.52-2.17.77-3.23c.52-2.11,1-4.17,1.49-6.09s1.1-3.73,1.59-5.4l1.34-4.56c.43-1.34.86-2.5,1.19-3.46l1.05-3"/><path class="cls-13" d="M305.12,129.44l.22-.32c.14-.2.34-.53.64-.91l2.53-3.42,3.95-5.29c1.63-2,3.46-4.19,5.45-6.62a224.13,224.13,0,0,1,33.24-31.76,230.16,230.16,0,0,1,20.28-13.89l5-3c1.61-1,3.27-1.8,4.85-2.66l4.62-2.48c1.49-.81,3-1.46,4.4-2.15L394.33,55l1.88-.9,1.82-.76,6.09-2.56c1.68-.73,3-1.22,4-1.55l1.41-.51"/><path class="cls-13" d="M279,204l.2-.84c.14-.56.3-1.38.62-2.39.6-2,1.46-4.95,2.48-8.45.5-1.75,1.23-3.59,1.89-5.57s1.4-4.05,2.19-6.19l2.65-6.5,1.36-3.34,1.54-3.3,3.07-6.57,3.29-6.2c.53-1,1.06-2,1.57-3s1.1-1.87,1.62-2.78l3-5.05c.47-.78.9-1.53,1.34-2.24l1.31-2,2.13-3.18,1.86-2.78"/><path class="cls-13" d="M280.61,315.24l-1.21-4.68c-.39-1.49-.86-3.3-1.39-5.38s-.93-4.47-1.47-7.05-1-5.41-1.48-8.39l-.74-4.59c-.17-1.58-.35-3.19-.53-4.83s-.36-3.31-.55-5-.22-3.4-.34-5.13-.22-3.47-.32-5.22-.06-3.51-.1-5.27l-.06-5.27c0-1.75.11-3.5.17-5.23s.12-3.44.18-5.14.28-3.36.41-5c.28-3.28.51-6.46,1-9.45.21-1.5.4-3,.6-4.37s.35-2.77.62-4.06c1-5.19,1.71-9.53,2.52-12.5S279,204,279,204"/><path class="cls-13" d="M265.45,323.58l-.4-1.3c-.25-.86-.69-2.09-1.08-3.7s-.92-3.56-1.5-5.8c-.29-1.12-.6-2.31-.92-3.57s-.55-2.6-.84-4-.6-2.84-.91-4.34c-.16-.75-.32-1.52-.48-2.29s-.26-1.58-.39-2.38c-.49-3.23-1.11-6.61-1.55-10.15s-.85-7.19-1.15-10.91-.52-7.52-.64-11.31a227,227,0,0,1,2.48-41.65c.33-2.83.92-5.38,1.32-7.66s.8-4.25,1.11-5.89c.76-3.23,1.2-5.08,1.2-5.08"/><path class="cls-13" d="M310.31,144.13l2.63-3.93,3-4.5,4.19-5.64c.78-1,1.54-2.14,2.43-3.21l2.73-3.32c.94-1.13,1.9-2.31,2.88-3.5s2.1-2.33,3.17-3.53c2.17-2.38,4.36-4.88,6.81-7.22s4.78-4.85,7.38-7.1,5.07-4.64,7.73-6.72,5.16-4.3,7.79-6.15c5.12-3.92,10.17-7.19,14.48-10,4.43-2.63,8.07-4.93,10.76-6.27l4.16-2.24"/><path class="cls-13" d="M264.59,192.58l1-3.45c.35-1.1.68-2.45,1.22-4l1.76-5.06c.67-1.85,1.32-3.88,2.14-6l2.67-6.56,1.41-3.46c.51-1.15,1.07-2.3,1.61-3.47l3.31-7.08a240.33,240.33,0,0,1,14.42-24.92c2.19-3.27,4-6,5.39-7.82l2.15-2.9"/><path class="cls-13" d="M282.93,228.86s.16-1.16.43-3.18c.07-.5.15-1.06.23-1.67s.23-1.26.36-1.95c.26-1.4.56-3,.88-4.69.55-3.46,1.62-7.4,2.61-11.66.45-2.13,1.18-4.28,1.81-6.49.32-1.1.65-2.21,1-3.32s.64-2.24,1-3.33c1.56-4.4,3-8.84,4.74-12.86l2.39-5.83,2.4-5.12,2-4.33,1.73-3.25,1.51-2.83"/><path class="cls-13" d="M350.66,59.69l-.77,2.59c-.42,1.59-1,3.7-1.48,5.79-1.05,4.19-2,8.28-2,8.28l-5.4,4.41-2.61,2.14c-.94.76-1.85,1.64-2.83,2.5l-6.07,5.5c-3.94,3.95-8,7.8-10.72,11L314.14,107s-3.67.61-7.42,1.33l-5.18,1-1.73.36-.64.15-5.2,7c-1.61,2.07-3.26,4.64-5.08,7.35l-2.8,4.19c-.94,1.44-1.79,3-2.7,4.45l-2.66,4.46c-.44.74-.89,1.46-1.3,2.2s-.78,1.47-1.17,2.19l-4.18,7.89c-1.15,2.34-2.05,4.32-2.7,5.7l-1,2.17"/><path class="cls-13" d="M305.16,180.23s.2-.48.54-1.33c.18-.42.37-.94.64-1.52l.9-1.94c.67-1.42,1.44-3.07,2.27-4.85.43-.88.81-1.82,1.31-2.72l1.46-2.75c1-1.84,2-3.69,2.87-5.42l2.74-4.59,1.93-3.25c.24-.39.42-.7.54-.91l.21-.31s4-.87,7.83-1.59c1.94-.37,3.84-.71,5.27-.94l2.44-.34,3.09-4.15c.5-.65,1-1.41,1.64-2.18l2.05-2.47,2.32-2.82c.41-.5.82-1,1.26-1.53s.92-1,1.4-1.52a175.71,175.71,0,0,1,13.53-13.72l4-3.61c1.39-1.17,2.83-2.31,4.26-3.49,2.81-2.42,5.91-4.57,8.92-6.83A186.76,186.76,0,0,1,414.7,85.27l3.74-1.57c1.18-.52,2.35-.88,3.43-1.29l5.59-2,5-1.54s1-2.13,2.75-5.33S439.33,66.22,442,62c2.68-4,5.55-8.17,7.81-11.22s3.88-4.95,3.88-4.95"/><path class="cls-13" d="M296,219.81s-.17.88-.46,2.42c-.14.77-.32,1.7-.52,2.78s-.33,2.3-.53,3.62a186.57,186.57,0,0,0-1.84,19.6c-.07,1.79-.14,3.58-.2,5.34s0,3.5,0,5.18,0,3.3.05,4.84.19,3,.27,4.33c.19,2.68.23,4.92.46,6.48s.27,2.45.27,2.45-2.36,2.92-4.71,6-4.41,6.28-4.41,6.28l.25,1.52c.17,1,.31,2.36.68,4s.75,3.56,1.18,5.61c.22,1,.44,2.09.67,3.17s.56,2.15.84,3.23c.57,2.17,1.13,4.33,1.66,6.37s1.21,3.87,1.71,5.47.9,2.95,1.21,3.88l.53,1.44s-2.33,5.23-4.5,10.78c-2,5.45-3.89,11.23-3.89,11.23l.21.5c.14.33.34.81.63,1.41l2.37,5,1.58,3.31c.56,1.18,1.25,2.37,1.91,3.63l2.07,3.86c.71,1.32,1.41,2.66,2.22,3.95l4.58,7.63,4.32,6.47c.64.94,1.2,1.82,1.73,2.57l1.43,1.93,1.24,1.67"/><path class="cls-13" d="M295.09,392.9l-.29-.39c-.19-.25-.45-.64-.77-1.13l-2.72-4.06-1.81-2.72c-.64-1-1.34-2-2-3.07-1.3-2.16-2.69-4.47-4.07-6.79l-1-1.73c-.32-.59-.63-1.18-.95-1.76-.63-1.17-1.25-2.32-1.84-3.43s-1.18-2.19-1.72-3.21l-.8-1.49c-.24-.49-.46-1-.68-1.42l-2.9-6.08s-3.91-1.8-7.65-3.86-7.63-4.19-7.63-4.19-.52-1.19-1.28-3.35-1.9-5.21-3.24-8.89c-.58-1.87-1.22-3.89-1.89-6l-1-3.3c-.35-1.12-.71-2.27-1-3.46-1.21-4.74-2.65-9.77-3.62-14.9-.52-2.56-1.11-5.11-1.54-7.64s-.81-5-1.19-7.45c-.19-1.21-.39-2.4-.55-3.57s-.26-2.31-.38-3.43c-.25-2.23-.48-4.34-.69-6.29s-.31-3.74-.42-5.33-.18-3-.25-4.12l-.22-3.58"/><path class="cls-13" d="M322,369.08s-1.05-1.56-2.61-3.91c-.82-1.15-1.66-2.57-2.56-4.08s-1.87-3.13-2.84-4.74c-1.87-3.27-3.58-6.62-4.94-9.09L307,343l1.2-3.5c.37-1,.78-2.24,1.27-3.52s1.07-2.65,1.62-4c1.12-2.7,2.26-5.33,3.12-7.27.44-1,.86-1.8,1.13-2.36l.44-.89-2.15-5.87c-.6-1.78-1.21-3.88-1.92-6.11-.33-1.13-.75-2.27-1-3.46s-.62-2.4-.93-3.61-.64-2.42-.95-3.61-.5-2.39-.76-3.53c-.46-2.3-1-4.43-1.29-6.28-.58-3.7-1-6.17-1-6.17"/><path class="cls-13" d="M371.35,59.55l1-.61c.65-.39,1.56-1,2.72-1.56l8.38-4.5,8.59-4.11c1.16-.57,2.15-1,2.86-1.28L396,47l1.9-3.73,2-3.86,1.17-2.18,1.27-2.19c1.71-2.93,3.5-5.88,4.88-8.11s2.35-3.68,2.35-3.68l7.65-2.38c2.28-.76,5-1.42,7.92-2.19s6-1.61,9.16-2.21,6.27-1.35,9.23-1.88l8.12-1.3c2.37-.41,4.37-.61,5.76-.76l2.19-.25"/><path class="cls-13" d="M246.66,241.45l.75-8.79c.17-2.64.67-5.69,1.09-9,.23-1.64.46-3.33.7-5.05s.63-3.45,1-5.18c1.16-7,3-13.8,4.2-18.94l2.48-8.45-1.18-2.95c-.69-1.76-1.51-4.12-2.35-6.53s-1.64-4.85-2.24-6.7c-.3-.93-.55-1.7-.73-2.24s-.25-.85-.25-.85l3-7.49,1.49-3.63c.53-1.28,1.18-2.59,1.81-4l4.05-8.59c3-5.72,6-11.49,8.56-15.61l3-5,.85-1.41.32-.49"/><path class="cls-13" d="M599.68,64.09l2.74,1.64c1.74,1,4.26,2.48,7.12,4.47s6.33,4.12,9.77,6.79l5.39,4c1.76,1.45,3.55,2.93,5.35,4.4l2.68,2.21c.89.74,1.72,1.55,2.57,2.31l5,4.52c.82.71,1.57,1.48,2.3,2.22l2.17,2.18,4,4c2.34,2.59,4.28,4.74,5.65,6.24l1.58,1.75a7.18,7.18,0,0,1,.54.64"/><path class="cls-13" d="M688,162.75l.65,1.35.78,1.64c.28.65.59,1.4,1,2.25l2.56,6.09c.24.59.51,1.19.75,1.82s.47,1.29.72,2L696,182.1c.52,1.48,1.14,3,1.63,4.62s1,3.28,1.56,5,1.13,3.47,1.59,5.3.95,3.7,1.45,5.6c1.07,3.78,1.77,7.77,2.65,11.8.46,2,.75,4.07,1.08,6.13l1,6.19a225.23,225.23,0,0,1,1.43,45.95c-.27,3.13-.52,6-.74,8.54s-.65,4.73-.9,6.54-.44,3.24-.57,4.22-.28,1.48-.28,1.48"/><path class="cls-13" d="M636.61,102.84,639,105.2c1.49,1.52,3.7,3.61,6.09,6.36l3.94,4.37c1.39,1.55,2.73,3.3,4.19,5,3,3.46,5.77,7.43,8.67,11.32a218.45,218.45,0,0,1,14,22.71l2.35,4.38,1.66,3.46c.91,1.92,1.44,3,1.44,3"/><path class="cls-13" d="M539.4,48.61l1.23.29,1.48.36,2,.58,5.33,1.57c1,.3,2.13.6,3.27,1l3.57,1.25L560.14,55c1.34.47,2.74.93,4.13,1.54l8.81,3.59,9.21,4.31c3.09,1.56,6.18,3.26,9.29,4.89s6.06,3.59,9,5.34c1.51.85,2.89,1.87,4.32,2.8l4.17,2.79c1.39.89,2.69,1.86,4,2.81l3.74,2.78c2.46,1.75,4.63,3.62,6.67,5.29,4.14,3.28,7.31,6.33,9.6,8.39s3.52,3.32,3.52,3.32"/><path class="cls-13" d="M539.8,31.28l5.07,1.22c1.63.34,3.55,1,5.77,1.61s4.73,1.36,7.45,2.22A241,241,0,0,1,596.41,52.7c1.67.9,3.36,1.76,5,2.7l4.85,2.89L611,61.14l4.51,3,4.36,2.92c1.42,1,2.74,2,4.06,3l3.81,2.83,1.82,1.35c.59.45,1.14.93,1.69,1.38l6,4.94,1.3,1.07,1.16,1.05,2,1.85L645.62,88"/><path class="cls-13" d="M672.69,159.88l.59,1.09c.4.69.9,1.76,1.55,3.12,1.26,2.73,3.24,6.55,5.14,11.34,1,2.38,2.13,4.93,3.09,7.73l1.55,4.26.81,2.21c.23.76.47,1.52.71,2.29,2,6.12,3.83,12.75,5.32,19.46a215.51,215.51,0,0,1,4.87,37.41c0,2.58.07,4.94.1,7,0,1.05,0,2,0,2.93s-.05,1.74-.07,2.49c-.11,3-.17,4.71-.17,4.71"/><path class="cls-13" d="M653.7,96l.66.67c.44.43,1,1.09,1.82,2l6.36,7,4,4.91c1.41,1.76,3,3.55,4.4,5.56l4.5,6.09c.79,1,1.49,2.11,2.22,3.2l2.18,3.26L682,132c.74,1.08,1.37,2.22,2,3.32l3.9,6.49c1.2,2.14,2.3,4.25,3.37,6.23s2.11,3.84,2.92,5.63c1.68,3.55,3.09,6.5,4.07,8.58l1.4,3.32"/><path class="cls-13" d="M613.1,93.77s1,.68,2.51,2,3.82,3.15,6.52,5.37a213,213,0,0,1,18.2,18c.79.86,1.57,1.73,2.35,2.59s1.48,1.78,2.21,2.66c1.46,1.78,2.89,3.52,4.27,5.22s2.56,3.45,3.76,5.05,2.37,3.1,3.3,4.58l4.7,7,1.64,2.75"/><path class="cls-13" d="M725.74,237l-.51-.54-1.4-1.41c-1.16-1.16-2.71-2.69-4.26-4.18s-3.09-3-4.24-4c-.57-.54-1.08-1-1.43-1.29l-.56-.48s-.44-2.76-1.09-6.89c-.18-1-.32-2.16-.57-3.33s-.5-2.41-.76-3.69-.55-2.6-.83-3.94-.55-2.71-.93-4.06c-.7-2.7-1.4-5.4-2-7.93s-1.47-4.83-2.07-6.84-1.14-3.66-1.51-4.82-.65-1.8-.65-1.8,1.32-3.49,2.6-7.1c.63-1.8,1.3-3.65,1.71-5s.69-2.28.69-2.28l-3.37-8-3.83-8.06L699.61,149q-.6-1.11-1.2-2.25L696,142.2c-1.59-3.1-3.42-6.06-5.1-8.87l-2.43-4c-.8-1.27-1.6-2.43-2.32-3.52l-3.51-5.26c-.83-1.27-1.37-2-1.37-2"/><path class="cls-13" d="M644.09,137.32l3.1,4.19c1,1.23,2,2.76,3,4.39l3.4,5.1c1.07,1.79,2.15,3.58,3.15,5.26.51.83,1,1.64,1.46,2.41s.83,1.53,1.21,2.22l2.46,4.6-.71,2.36c-.45,1.42-1.13,3.33-1.79,5.19-1.34,3.74-2.74,7.31-2.74,7.31s.2.43.53,1.25.85,2,1.48,3.54c1.36,3,2.94,7.45,4.83,12.78.81,2.71,1.79,5.62,2.67,8.74.4,1.56.82,3.18,1.25,4.82.21.83.43,1.66.65,2.5s.36,1.7.55,2.57c.36,1.72.73,3.48,1.1,5.26l.29,1.34.21,1.36c.14.91.29,1.82.43,2.74.27,1.83.63,3.67.85,5.53s.41,3.74.61,5.61a182.22,182.22,0,0,1-.52,41.31c-.19,1.39-.37,2.73-.55,4s-.3,2.49-.54,3.61c-.43,2.25-.8,4.22-1.1,5.84-.15.8-.29,1.53-.4,2.16s-.28,1.15-.39,1.58c-.2.85-.32,1.31-.32,1.31s1.29,2,3.2,5l1.53,2.51c.53.89,1,1.83,1.59,2.82,1.09,2,2.24,4.12,3.39,6.31.56,1.11,1.13,2.22,1.69,3.31l1.5,3.22c1,2.1,1.85,4.11,2.6,5.85s1.36,3.23,1.8,4.26l.61,1.61"/><path class="cls-13" d="M614.43,109.62s-2.77-2.27-6.91-5.69c-2.12-1.65-4.67-3.47-7.35-5.5-.66-.51-1.37-1-2.1-1.46l-2.18-1.46-4.44-3c-3.07-1.85-6.14-3.69-9-5.4l-8.12-4.31L566.16,79s-.32-.9-.85-2.22l-2-4.79c-1.52-3.5-3.19-7.06-3.19-7.06a13.37,13.37,0,0,0-1.44-.54l-3.83-1.34-5.42-1.89-6.31-1.85-3.2-1c-1.07-.28-2.13-.51-3.14-.76l-5.58-1.34c-1.63-.43-3-.64-4-.83l-1.51-.28-2.14-2.92c-1.3-1.75-3.06-4.15-4.93-6.36s-3.79-4.52-5.27-6.22l-1.81-2.06c-.44-.5-.69-.76-.69-.76l-7.56-.65c-2.26-.25-4.91-.32-7.76-.42s-5.87-.28-8.9-.17l-4.53,0c-1.49,0-3,0-4.38.12l-7.76.48-1.63.1-1.46.16-2.38.26-2.07.23"/><path class="cls-13" d="M464.91,22.32l1.84-.2c1.17-.11,2.86-.19,4.88-.32l6.9-.42,7.92-.1c1.35,0,2.7-.06,4,0l3.9.14,6.91.26,6.72.57,2.21-1.51c1.33-.9,3.14-2.14,5-3.23,3.64-2.24,7.44-4.45,7.44-4.45l3.56.49,9.32,1.74c1,.19,2,.36,3,.59l3.18.76,6.87,1.65c1.2.27,2.39.6,3.6,1l3.67,1.07c2.46.75,5,1.41,7.45,2.26l7.36,2.57c1.21.43,2.42.83,3.59,1.28l3.45,1.4,6.53,2.66c1,.41,2,.86,3,1.31l2.76,1.29,4.83,2.26c1.45.67,2.7,1.27,3.7,1.82l3.17,1.68"/><path class="cls-13" d="M472.16,57.44l4.69-.29c2.81-.26,6.58-.2,10.33-.27.94,0,1.88-.05,2.81,0l2.71.1,4.81.17c1.41,0,2.58.13,3.4.21l1.29.12,2.42,2.81L507,63.15l1.33,1.62,1.34,1.74c1.78,2.34,3.48,4.67,4.72,6.4L515.9,75c.35.5.55.82.55.82L522.58,77c.91.19,1.92.33,3,.58l3.28.8,3.51.83c.6.15,1.2.27,1.8.44l1.8.54,7,2.07,6,2.12,2.42.84c.72.27,1.33.54,1.84.74l1.59.65"/><path class="cls-13" d="M715.51,255s0,1.73.06,4.33-.22,6.05-.34,9.51c0,1.73-.22,3.46-.35,5.07s-.27,3.13-.38,4.42-.21,2.37-.27,3.13-.15,1.18-.15,1.18,3.63,5.53,7.18,11.48c3.34,5.88,6.54,12.18,6.54,12.18l-.1.56c-.07.37-.17.92-.34,1.6-.33,1.36-.79,3.31-1.35,5.66-.28,1.17-.59,2.43-.91,3.78s-.7,2.74-1.13,4.18c-.85,2.89-1.76,6-2.66,9s-2.1,6.06-3.08,8.9c-.51,1.42-1,2.8-1.47,4.08l-1.46,3.59-3,7.41"/><path class="cls-13" d="M620.24,56.14l2,1.34L624.57,59,626,60l1.52,1.13,7.26,5.39c2.61,2,5.3,4.32,8,6.55l2,1.69,1.94,1.76,3.78,3.43c1.21,1.13,2.43,2.17,3.49,3.25l3,3c1.86,1.88,3.42,3.44,4.5,4.54l1.64,1.79s4.93.74,10,1.67c2.56.43,5,1,6.9,1.44l3.14.73,1.41,1.73c.89,1.1,2.21,2.64,3.63,4.61s3.13,4.24,4.94,6.68c.92,1.21,1.77,2.53,2.66,3.85l2.69,4c.89,1.35,1.81,2.69,2.66,4l2.41,4c1.55,2.61,3.07,5,4.22,7.15,2.29,4.28,3.83,7.13,3.83,7.13"/></g></g><path class="cls-14" d="M570.64,376.49,570,377c-.44.3-1.06.79-1.91,1.31l-3,2c-1.17.75-2.48,1.6-4,2.43a141.4,141.4,0,0,1-22.61,10.83,147.77,147.77,0,0,1-24.15,6.75l-4.6.82c-1.37.22-2.58.34-3.57.48l-3.11.39"/><path class="cls-14" d="M444.57,395.13s-.5-.12-1.4-.44l-3.95-1.34c-1.71-.53-3.73-1.35-6.05-2.27s-4.9-2.07-7.7-3.33a145.13,145.13,0,0,1-18.29-10.28,150.36,150.36,0,0,1-18.89-14.89,145.5,145.5,0,0,1-27.72-35.31c-.79-1.32-1.46-2.63-2.09-3.88l-1.82-3.55c-1.07-2.25-1.93-4.25-2.68-5.88s-1.2-3-1.58-3.85-.54-1.37-.54-1.37"/><path class="cls-14" d="M520.28,389.13l-3.1.72c-1,.21-2.18.55-3.58.78l-4.67.83a139,139,0,0,1-50.73-1.29l-4.63-1.06c-1.38-.32-2.55-.71-3.53-1l-3.06-.87"/><path class="cls-14" d="M604.34,326.56l-.6,1.05-1.85,2.87c-.79,1.24-1.73,2.75-2.95,4.4s-2.49,3.58-4.09,5.53l-2.43,3.1-2.75,3.18c-.48.54-.95,1.1-1.44,1.66L586.68,350l-3.2,3.36a153.08,153.08,0,0,1-14.94,12.89,151.05,151.05,0,0,1-16.63,10.62c-2.81,1.41-5.48,2.9-8.14,4-1.32.59-2.59,1.19-3.83,1.73L536.28,384c-2.33,1-4.54,1.65-6.47,2.32s-3.66,1.16-5.07,1.55l-3.28.94c-.76.21-1.18.28-1.18.28"/><path class="cls-14" d="M622.51,332.86l-2.63,4.56-3.26,5.08c-1.25,2-2.84,4.07-4.49,6.42-.82,1.17-1.78,2.32-2.72,3.54s-1.92,2.5-3,3.74c-2.15,2.48-4.37,5.14-6.89,7.69s-5.16,5.15-7.88,7.75-5.68,5-8.73,7.34-6.14,4.56-9.21,6.74c-3.17,2-6.26,4.08-9.4,5.81s-6.2,3.36-9.13,4.87c-1.46.75-2.94,1.36-4.34,2s-2.76,1.29-4.1,1.81c-2.68,1-5.1,2.06-7.31,2.82L533.7,405c-1.6.5-2.87.83-3.73,1.08l-1.33.38"/><path class="cls-14" d="M456.86,384l-1.13-.26-1.36-.31-1.81-.51c-1.35-.39-3-.83-4.88-1.4s-4-1.32-6.23-2.14a131.62,131.62,0,0,1-56.7-41c-1.49-1.9-2.89-3.62-4-5.25s-2.17-3-2.9-4.17l-2.39-3.73"/><path class="cls-14" d="M517.52,409.11l-3.57.64c-1.14.19-2.52.49-4.11.69l-5.36.68a160.31,160.31,0,0,1-29,.55,158.35,158.35,0,0,1-28.61-4.78l-5.2-1.48c-1.55-.43-2.87-.94-4-1.29L434.3,403"/><path class="cls-14" d="M538.24,372.87s-3.92,1.83-10,3.92a124.32,124.32,0,0,1-23,5.56,128.57,128.57,0,0,1-23.69,1.18c-1.62,0-3.1-.22-4.41-.29s-2.46-.17-3.39-.27l-2.95-.38"/><path class="cls-14" d="M365.68,367.66s4.67.47,9.15.73,9,.14,9,.14l.36.34c.24.23.59.56,1.05.95l3.82,3.31c.78.7,1.66,1.4,2.61,2.14l3,2.32c1,.83,2.11,1.61,3.23,2.4l3.39,2.41c2.3,1.56,4.67,3,6.87,4.44l6.19,3.56,6.2,3.18.24.65c.16.4.38,1,.66,1.65.55,1.37,1.32,3.21,2.12,5.06.42.93.83,1.86,1.21,2.74s.8,1.64,1.13,2.32l1.15,2.28,2.29.9c1.44.61,3.58,1.3,6.12,2.16a157.67,157.67,0,0,0,38.49,7.81c2.67.2,4.9.4,6.46.4l2.46.06"/><path class="cls-14" d="M489.52,373.93l-1.28,0c-.41,0-.9,0-1.47,0l-1.91-.05c-1.4-.06-3,0-4.78-.16s-3.61-.26-5.46-.43l-5.43-.69-4.69-.84c-1.38-.2-2.5-.53-3.29-.7l-1.25-.28s-1.79-3.58-3.22-7.31c-.73-1.84-1.42-3.62-1.89-5l-.75-2.33-1.08-.37c-.7-.26-1.76-.52-3-1.07a105.13,105.13,0,0,1-38.54-25.48,106.85,106.85,0,0,1-11.75-14.57,103.37,103.37,0,0,1-7.94-14.22l-1.41-3.12c-.4-1-.77-2-1.12-2.87-.76-1.79-1.24-3.41-1.7-4.72-.23-.66-.43-1.24-.6-1.75s-.28-1-.38-1.32c-.2-.72-.31-1.1-.31-1.1l-1.52-.56c-1-.37-2.41-.9-4-1.61a113.64,113.64,0,0,1-12-6c-1.08-.61-2.16-1.25-3.23-1.89s-2.05-1.31-3-2c-2-1.3-3.82-2.59-5.4-3.74-3-2.3-5.08-4-5.08-4"/><path class="cls-14" d="M524.27,364.64l2.06-.69,5.31-2.11a124.32,124.32,0,0,0,15.39-8,111.52,111.52,0,0,0,14-10.25l2.45-2.12c.73-.63,1.31-1.24,1.82-1.71l1.58-1.5s1,.14,2.37.29,3.31.29,5.25.42,3.92.21,5.36.2h2.46s.33-.39.93-1.07c.29-.34.65-.76,1.07-1.23l1.3-1.67c2-2.4,4.4-5.74,6.69-9.18.55-.87,1.11-1.74,1.66-2.59s1.09-1.7,1.56-2.55c1-1.68,1.88-3.23,2.61-4.59l2.35-4.6s.37-.08,1-.26l2.54-.77c1.06-.32,2.3-.72,3.64-1.16s2.79-.94,4.17-1.49c2.79-1.08,5.66-2.26,7.78-3.22l3.48-1.66.66-1.93c.2-.62.48-1.36.73-2.22s.52-1.85.82-2.92.64-2.22,1-3.45.59-2.54.91-3.9c.68-2.69,1.16-5.61,1.68-8.53.29-1.45.46-2.92.64-4.37s.37-2.87.54-4.24c.22-2.77.42-5.35.59-7.57.11-4.43.19-7.39.19-7.39"/><path class="cls-14" d="M646.7,260.82s0,.69-.05,1.88c0,.6,0,1.33-.06,2.17s-.13,1.77-.21,2.8c-.25,4.1-.84,9.57-1.73,15-.24,1.35-.48,2.71-.72,4-.12.66-.24,1.32-.35,2s-.29,1.29-.43,1.92c-.6,2.51-1.08,4.86-1.63,6.85l-1.88,6.61s1.83,4.06,3.54,8.37c.9,2.17,1.59,4.31,2.18,6l.93,2.78-.36.91c-.24.6-.57,1.48-1.08,2.57s-1.09,2.41-1.77,3.93L642,331l-1.32,2.63c-.95,1.82-1.92,3.83-3.08,5.88l-3.69,6.4-4.27,6.66c-1.53,2.21-3.13,4.43-4.72,6.65a169.91,169.91,0,0,1-20,22.4c-6,5.62-10.29,9-10.29,9"/><path class="cls-14" d="M606.91,263.32s-.13,1.69-.33,4.23c-.05,1.28-.28,2.74-.48,4.32s-.38,3.27-.72,4.93-.54,3.35-.91,4.89-.69,3-1,4.23-.62,2.25-.8,3-.32,1.12-.32,1.12-1.38.61-3.41,1.45-4.9,1.83-7.64,2.73-5.6,1.62-7.64,2.13c-1,.25-1.87.45-2.5.57l-1,.2-.59,1.3c-.4.81-.85,2-1.6,3.4s-1.47,3-2.5,4.7l-1.49,2.6c-.54.87-1.12,1.74-1.67,2.62-1.07,1.78-2.36,3.43-3.46,5s-2.33,3-3.27,4.22l-3.39,4"/><path class="cls-14" d="M363.91,346.15l-2.51-3.52c-.77-1-1.54-2.35-2.43-3.7s-1.85-2.8-2.7-4.3c-1.73-3-3.47-6-4.6-8.32-.59-1.16-1.08-2.12-1.43-2.79s-.53-1.06-.53-1.06-1.61-.63-4.06-1.66-5.78-2.46-9-4.1c-1.61-.82-3.24-1.66-4.78-2.47s-2.89-1.64-4.1-2.34c-2.39-1.41-4-2.41-4-2.41s-.28-.8-.72-2.2-1-3.44-1.67-5.86c-.17-.61-.35-1.24-.53-1.9s-.32-1.34-.48-2c-.33-1.4-.67-2.89-1-4.42s-.66-3.14-.95-4.77-.58-3.28-.87-4.93c-.48-3.33-.9-6.66-1.25-9.79s-.48-6.06-.63-8.56c-.12-5-.21-8.37-.21-8.37"/><path class="cls-14" d="M569.92,400.23l-2.17,1.25c-1.37.82-3.4,1.85-5.84,3.09a167.89,167.89,0,0,1-18.37,8c-3.46,1.15-6.89,2.43-10.2,3.3l-4.74,1.34-4.3,1-3.64.83c-1.08.22-2,.38-2.82.53l-2.47.44-2.15,2.61c-1.31,1.56-3.11,3.52-5,5.54s-3.82,4-5.32,5.43l-2.53,2.4-2.36.18c-1.51.14-3.66.18-6.23.25l-4.17.1c-1.47,0-3,0-4.64-.08l-5-.14c-1.69-.1-3.41-.24-5.13-.36s-3.44-.23-5.12-.44l-4.95-.63c-3.22-.36-6.18-.95-8.74-1.39l-3.47-.64-2.66-.61-2.32-.53"/><path class="cls-14" d="M403.34,136.77l.67-.48c.44-.3,1.06-.78,1.91-1.31l3-1.94c1.17-.76,2.48-1.61,4-2.44a141.15,141.15,0,0,1,22.62-10.82A148.53,148.53,0,0,1,459.69,113l4.6-.82c1.37-.22,2.58-.34,3.57-.47l3.11-.4"/><path class="cls-14" d="M529.41,118.13s.5.12,1.4.44l4,1.33c1.71.54,3.73,1.36,6,2.27s4.9,2.08,7.7,3.34a143.89,143.89,0,0,1,18.29,10.28,148.55,148.55,0,0,1,18.89,14.89A145.47,145.47,0,0,1,613.41,186c.79,1.32,1.46,2.64,2.09,3.89l1.82,3.54c1.07,2.26,1.94,4.25,2.68,5.88s1.2,3,1.58,3.86l.54,1.37"/><path class="cls-14" d="M453.7,124.12l3.1-.72c1-.2,2.18-.55,3.58-.77l4.67-.84a142.3,142.3,0,0,1,25.43-1.69,139.87,139.87,0,0,1,25.3,3l4.63,1.07c1.38.31,2.55.7,3.53,1L527,126"/><path class="cls-14" d="M369.64,186.69l.61-1c.42-.67,1-1.64,1.84-2.88s1.73-2.75,3-4.4,2.49-3.58,4.09-5.53l2.43-3.09,2.75-3.18,1.44-1.66,1.55-1.64,3.2-3.35A154.53,154.53,0,0,1,405.44,147a151.05,151.05,0,0,1,16.63-10.62c2.81-1.41,5.48-2.89,8.14-4,1.32-.59,2.59-1.18,3.84-1.72l3.65-1.44c2.33-1,4.54-1.65,6.48-2.32s3.65-1.16,5.06-1.56l3.28-.93c.76-.21,1.18-.29,1.18-.29"/><path class="cls-14" d="M351.47,180.39l2.64-4.55,3.25-5.09c1.25-2,2.84-4.06,4.49-6.41.82-1.18,1.78-2.32,2.72-3.55s1.92-2.49,3-3.73c2.15-2.48,4.37-5.15,6.89-7.7s5.16-5.15,7.88-7.75,5.68-5,8.73-7.33,6.14-4.57,9.21-6.74,6.26-4.09,9.4-5.82,6.2-3.36,9.13-4.86c1.46-.75,2.94-1.37,4.34-2s2.76-1.28,4.1-1.8c2.68-1,5.1-2.07,7.31-2.83l5.72-1.93c1.6-.51,2.87-.84,3.73-1.09l1.33-.38"/><path class="cls-14" d="M517.13,129.23l1.12.26,1.36.31,1.81.51c1.35.4,3,.84,4.88,1.41s4,1.31,6.23,2.14a131.49,131.49,0,0,1,56.7,41c1.49,1.9,2.89,3.62,4,5.25s2.17,3,2.9,4.17c1.53,2.37,2.39,3.73,2.39,3.73"/><path class="cls-14" d="M456.46,104.14l3.57-.64c1.14-.19,2.52-.48,4.11-.69l5.36-.68a161.32,161.32,0,0,1,29-.54,158.35,158.35,0,0,1,28.61,4.78l5.2,1.48c1.55.42,2.87.93,4,1.28l3.44,1.17"/><path class="cls-14" d="M435.75,140.38s3.91-1.82,10-3.92a125.18,125.18,0,0,1,23-5.55,127.69,127.69,0,0,1,23.69-1.18c1.62,0,3.1.21,4.41.28s2.46.17,3.39.27l3,.38"/><path class="cls-14" d="M608.3,145.59s-4.67-.47-9.15-.72-9-.15-9-.15l-.36-.34c-.24-.23-.59-.55-1-.95l-3.82-3.3c-.78-.7-1.66-1.41-2.61-2.14l-3-2.33c-1-.82-2.11-1.6-3.23-2.39s-2.25-1.61-3.39-2.41c-2.3-1.57-4.67-3-6.87-4.45l-6.19-3.56-6.2-3.18s-.09-.23-.24-.64-.38-1-.66-1.66c-.55-1.37-1.32-3.21-2.12-5.06-.42-.93-.83-1.86-1.21-2.73s-.8-1.65-1.13-2.33L547,105l-2.29-.91c-1.44-.61-3.58-1.29-6.12-2.16a157.67,157.67,0,0,0-38.49-7.81c-2.67-.19-4.9-.39-6.46-.4l-2.46-.06"/><path class="cls-14" d="M484.46,139.33l1.28,0c.41,0,.9,0,1.47,0l1.91.05c1.4.07,3,0,4.78.17s3.61.25,5.46.43l5.43.68,4.69.84c1.38.21,2.5.53,3.29.7l1.25.29s1.79,3.58,3.22,7.3c.73,1.85,1.42,3.63,1.89,5l.75,2.32,1.08.37c.7.26,1.76.53,3,1.08a101.67,101.67,0,0,1,10.53,4.67,104.85,104.85,0,0,1,28,20.8,108,108,0,0,1,11.74,14.57,104,104,0,0,1,7.94,14.23l1.41,3.11,1.12,2.88c.77,1.78,1.24,3.4,1.7,4.71.23.66.43,1.25.6,1.76s.28,1,.38,1.31l.31,1.1,1.52.57c1,.37,2.41.89,4,1.6a117.67,117.67,0,0,1,12,6c1.08.62,2.16,1.25,3.23,1.9s2,1.31,3,2c2,1.31,3.82,2.59,5.4,3.74,3,2.3,5.08,4,5.08,4"/><path class="cls-14" d="M449.71,148.61l-2.06.69-5.31,2.11a125.23,125.23,0,0,0-15.39,8,110.55,110.55,0,0,0-14,10.24l-2.45,2.12c-.73.63-1.31,1.24-1.82,1.71-1,1-1.58,1.5-1.58,1.5s-.95-.14-2.37-.29-3.31-.29-5.25-.41-3.92-.21-5.36-.21h-2.46l-.93,1.08-1.07,1.23-1.3,1.66c-1.95,2.41-4.4,5.74-6.68,9.18l-1.67,2.6c-.56.85-1.09,1.69-1.55,2.54-1,1.69-1.89,3.23-2.62,4.6l-2.35,4.59s-.37.09-1,.27l-2.54.76c-1.06.33-2.3.72-3.64,1.17s-2.79.93-4.17,1.48c-2.79,1.09-5.66,2.27-7.78,3.22l-3.48,1.67-.66,1.93c-.2.61-.48,1.35-.72,2.22s-.53,1.84-.83,2.91-.64,2.23-1,3.45-.59,2.55-.91,3.9c-.68,2.69-1.16,5.62-1.68,8.53-.29,1.46-.46,2.93-.64,4.37s-.37,2.87-.54,4.25c-.22,2.76-.42,5.35-.59,7.56l-.19,7.4"/><path class="cls-14" d="M327.28,252.43s0-.68.05-1.88c0-.6,0-1.33.06-2.16s.13-1.78.21-2.8c.25-4.11.84-9.57,1.73-15,.24-1.35.48-2.7.72-4,.12-.67.24-1.33.35-2s.29-1.29.43-1.91c.6-2.51,1.09-4.87,1.63-6.85l1.88-6.62s-1.83-4-3.54-8.37c-.9-2.16-1.59-4.31-2.18-6l-.93-2.78.36-.92c.24-.59.57-1.47,1.08-2.56l1.77-3.94,1.11-2.42,1.32-2.63c.95-1.82,1.92-3.83,3.08-5.87l3.69-6.41,4.27-6.65c1.54-2.21,3.13-4.43,4.72-6.66a171.21,171.21,0,0,1,20-22.4c6-5.62,10.29-9,10.29-9"/><path class="cls-14" d="M367.07,249.94l.33-4.24c.05-1.27.28-2.74.48-4.32s.38-3.26.72-4.93.54-3.34.91-4.89.69-3,1-4.23.62-2.24.8-3l.32-1.12s1.38-.61,3.41-1.46,4.9-1.83,7.64-2.73,5.6-1.61,7.64-2.12c1-.26,1.87-.46,2.5-.58l1-.19.59-1.3c.4-.82.85-2,1.6-3.4s1.47-3,2.5-4.7l1.49-2.61c.54-.87,1.12-1.73,1.67-2.61,1.07-1.79,2.36-3.43,3.46-5s2.33-3,3.27-4.22l3.39-3.95"/><path class="cls-14" d="M610.07,167.1l2.51,3.53c.77,1,1.54,2.34,2.43,3.69s1.85,2.8,2.7,4.31c1.73,3,3.47,6,4.6,8.32l1.43,2.79c.34.67.53,1.06.53,1.06s1.61.63,4.06,1.65,5.78,2.46,9,4.11c1.62.81,3.24,1.65,4.78,2.47s2.89,1.63,4.1,2.33c2.39,1.42,4,2.42,4,2.42s.28.79.72,2.2l1.67,5.86.53,1.89c.16.66.32,1.35.48,2.05l1,4.43c.37,1.53.66,3.13,1,4.76s.58,3.28.87,4.94c.48,3.32.9,6.65,1.25,9.78s.49,6.06.63,8.57c.12,5,.21,8.37.21,8.37"/><path class="cls-14" d="M404.06,113l2.17-1.25c1.37-.83,3.4-1.85,5.84-3.1a169.85,169.85,0,0,1,18.37-8c3.46-1.15,6.89-2.42,10.2-3.29l4.74-1.34,4.3-1,3.64-.84c1.09-.22,2-.37,2.83-.52l2.46-.44,2.15-2.61c1.31-1.56,3.11-3.53,5-5.55s3.82-4,5.32-5.43l2.53-2.4,2.36-.17c1.51-.15,3.66-.19,6.23-.26l4.17-.09c1.47,0,3,0,4.64.07l5,.14c1.69.1,3.41.24,5.13.37s3.44.23,5.12.44l4.95.62c3.22.36,6.19,1,8.74,1.4l3.47.64L526,81l2.32.54"/><rect class="cls-8" x="505.55" y="93.54" width="6.07" height="2.54" rx="0.8" transform="matrix(0.99, 0.1, -0.1, 0.99, 12.69, -52.61)"/><rect class="cls-8" x="440.99" y="115.76" width="6.07" height="2.54" rx="0.8" transform="translate(-14.89 133.01) rotate(-16.76)"/><rect class="cls-8" x="316.47" y="294.56" width="7.54" height="3.16" rx="1" transform="translate(551.29 -73.82) rotate(79.22)"/><rect class="cls-8" x="476.71" y="391.79" width="5.5" height="2.31" rx="0.73" transform="translate(23.54 -27.09) rotate(3.32)"/><rect class="cls-8" x="625.82" y="280.02" width="5.55" height="2.32" rx="0.73" transform="translate(1013.17 -290.04) rotate(99.85)"/><rect class="cls-8" x="583.23" y="149.81" width="5.55" height="2.32" rx="0.73" transform="translate(247.9 -350.9) rotate(41.59)"/><rect class="cls-8" x="573.04" y="383.27" width="5.55" height="2.32" rx="0.73" transform="translate(1268.09 374.75) rotate(145.47)"/><rect class="cls-8" x="349.03" y="149.36" width="5.55" height="2.32" rx="0.73" transform="translate(16.58 335.03) rotate(-51.99)"/><path class="cls-9" d="M380.92,122.57a1.62,1.62,0,1,1-1.61-1.61A1.61,1.61,0,0,1,380.92,122.57Z"/><path class="cls-9" d="M530.42,117.87a1.62,1.62,0,1,1-1.62-1.62A1.62,1.62,0,0,1,530.42,117.87Z"/><path class="cls-9" d="M352.65,181.23a1.62,1.62,0,1,1-1.61-1.62A1.62,1.62,0,0,1,352.65,181.23Z"/><path class="cls-9" d="M611.08,165.78a1.62,1.62,0,1,1-1.62-1.61A1.62,1.62,0,0,1,611.08,165.78Z"/><path class="cls-9" d="M542.51,110.67a1.62,1.62,0,1,1-1.62-1.62A1.63,1.63,0,0,1,542.51,110.67Z"/><path class="cls-9" d="M606.45,325.46a1.62,1.62,0,1,1-1.62-1.62A1.62,1.62,0,0,1,606.45,325.46Z"/><path class="cls-9" d="M608.53,262.2a1.62,1.62,0,1,1-1.62-1.61A1.61,1.61,0,0,1,608.53,262.2Z"/><path class="cls-9" d="M492.06,373.91a1.62,1.62,0,1,1-1.62-1.62A1.63,1.63,0,0,1,492.06,373.91Z"/><path class="cls-9" d="M435.13,402.47a1.62,1.62,0,1,1-1.62-1.62A1.62,1.62,0,0,1,435.13,402.47Z"/><path class="cls-9" d="M503.46,402a1.62,1.62,0,1,1-1.62-1.61A1.62,1.62,0,0,1,503.46,402Z"/><path class="cls-9" d="M595.18,391.32a1.62,1.62,0,1,1-1.62-1.62A1.62,1.62,0,0,1,595.18,391.32Z"/><path class="cls-9" d="M317,255.2a1.62,1.62,0,1,1-1.62-1.61A1.61,1.61,0,0,1,317,255.2Z"/><path class="cls-9" d="M366.26,347.37a1.62,1.62,0,1,1-1.62-1.62A1.63,1.63,0,0,1,366.26,347.37Z"/><path class="cls-14" d="M365.74,367.32a1.62,1.62,0,1,1-1.62-1.61A1.61,1.61,0,0,1,365.74,367.32Z"/><path class="cls-14" d="M352.37,264.77a1.62,1.62,0,1,1-1.62-1.62A1.62,1.62,0,0,1,352.37,264.77Z"/><path class="cls-14" d="M452.83,147.78a1.62,1.62,0,1,1-1.62-1.62A1.63,1.63,0,0,1,452.83,147.78Z"/><path class="cls-14" d="M531.45,82.15a1.62,1.62,0,1,1-1.62-1.62A1.61,1.61,0,0,1,531.45,82.15Z"/><path class="cls-14" d="M484.6,139.39a1.62,1.62,0,1,1-1.61-1.62A1.62,1.62,0,0,1,484.6,139.39Z"/><path class="cls-14" d="M611.5,145.79a1.62,1.62,0,1,1-1.62-1.62A1.62,1.62,0,0,1,611.5,145.79Z"/><path class="cls-14" d="M601,189.4a1.62,1.62,0,1,1-1.62-1.62A1.62,1.62,0,0,1,601,189.4Z"/><path class="cls-14" d="M648.17,259.38a1.62,1.62,0,1,1-1.61-1.62A1.61,1.61,0,0,1,648.17,259.38Z"/><path class="cls-14" d="M624.3,205.91a1.62,1.62,0,1,1-1.61-1.62A1.61,1.61,0,0,1,624.3,205.91Z"/><path class="cls-14" d="M524.59,365.2a1.62,1.62,0,1,1-1.61-1.61A1.61,1.61,0,0,1,524.59,365.2Z"/><rect class="cls-1" x="97.12" y="57.25" width="555.75" height="370.5"/><rect class="cls-1" x="97.12" y="57.25" width="555.75" height="370.5"/><rect class="cls-1" x="97.12" y="57.25" width="555.75" height="370.5"/></g></g></svg>