<svg xmlns="http://www.w3.org/2000/svg" xmlns:xlink="http://www.w3.org/1999/xlink" viewBox="0 0 1725.26 1204.96"><defs><style>.cls-1{fill:none;}.cls-2{isolation:isolate;}.cls-3{clip-path:url(#clip-path);}.cls-4{fill:url(#linear-gradient);}.cls-5{clip-path:url(#clip-path-2);}.cls-6{fill:url(#linear-gradient-2);}.cls-7{fill:url(#linear-gradient-3);}.cls-8{fill:url(#linear-gradient-4);}.cls-11,.cls-15,.cls-9{mix-blend-mode:overlay;}.cls-9{fill:url(#linear-gradient-5);}.cls-10{fill:url(#linear-gradient-6);}.cls-11{fill:url(#linear-gradient-7);}.cls-12{fill:url(#linear-gradient-8);}.cls-13{fill:url(#linear-gradient-9);}.cls-14{fill:url(#linear-gradient-10);}.cls-16{fill:#fff;}.cls-17{fill:url(#linear-gradient-11);}.cls-18{fill:url(#linear-gradient-12);}.cls-19{fill:url(#linear-gradient-13);}.cls-20{fill:url(#linear-gradient-14);}.cls-21{fill:url(#linear-gradient-15);}.cls-22{fill:url(#linear-gradient-16);}.cls-23{fill:url(#linear-gradient-17);}</style><clipPath id="clip-path" transform="translate(577.11 162.24)"><rect class="cls-1" width="920.24" height="920.24"/></clipPath><linearGradient id="linear-gradient" x1="270.02" y1="1018.37" x2="1672.2" y2="111.35" gradientUnits="userSpaceOnUse"><stop offset="0" stop-color="#4e0380"/><stop offset="1" stop-color="#553bd2"/></linearGradient><clipPath id="clip-path-2" transform="translate(577.11 162.24)"><rect class="cls-1" x="-423.85" y="-25.86" width="1457.93" height="971.95"/></clipPath><linearGradient id="linear-gradient-2" x1="363.54" y1="618.66" x2="1117.9" y2="618.66" xlink:href="#linear-gradient"/><linearGradient id="linear-gradient-3" x1="228.94" y1="-269.76" x2="-670.86" y2="615.2" xlink:href="#linear-gradient"/><linearGradient id="linear-gradient-4" x1="-467.29" y1="754.43" x2="272.6" y2="754.43" gradientUnits="userSpaceOnUse"><stop offset="0" stop-color="#f44ce1"/><stop offset="0.99" stop-color="#565de9"/></linearGradient><linearGradient id="linear-gradient-5" x1="-485.47" y1="731.01" x2="190" y2="731.01" gradientUnits="userSpaceOnUse"><stop offset="0" stop-color="#ff17d0"/><stop offset="1" stop-color="#ffd394"/></linearGradient><linearGradient id="linear-gradient-6" x1="288.73" y1="101.32" x2="1107.68" y2="101.32" xlink:href="#linear-gradient-4"/><linearGradient id="linear-gradient-7" x1="205.3" y1="163.85" x2="1127.05" y2="163.85" xlink:href="#linear-gradient-5"/><linearGradient id="linear-gradient-8" x1="274.76" y1="796.97" x2="1113.78" y2="796.97" gradientUnits="userSpaceOnUse"><stop offset="0" stop-color="#ff4b9a"/><stop offset="1" stop-color="#ffec7e"/></linearGradient><linearGradient id="linear-gradient-9" x1="319.43" y1="702.04" x2="801.43" y2="702.04" gradientTransform="translate(-869.85 735.84) rotate(-90)" xlink:href="#linear-gradient-8"/><linearGradient id="linear-gradient-10" x1="413.12" y1="414.91" x2="746.65" y2="414.91" gradientTransform="translate(1496.16 389.05) rotate(180)" xlink:href="#linear-gradient-8"/><linearGradient id="linear-gradient-11" x1="1298.13" y1="905.43" x2="1267.74" y2="935.32" xlink:href="#linear-gradient"/><linearGradient id="linear-gradient-12" x1="326.51" y1="379.66" x2="307.85" y2="398.01" xlink:href="#linear-gradient"/><linearGradient id="linear-gradient-13" x1="892.15" y1="916.41" x2="855.13" y2="952.82" xlink:href="#linear-gradient"/><linearGradient id="linear-gradient-14" x1="851.31" y1="250.52" x2="832.65" y2="268.87" gradientTransform="translate(900.19 -623.47) rotate(76.67)" xlink:href="#linear-gradient"/><linearGradient id="linear-gradient-15" x1="31.14" y1="245.84" x2="-0.18" y2="276.64" gradientTransform="translate(187.69 61.71) rotate(45)" xlink:href="#linear-gradient"/><linearGradient id="linear-gradient-16" x1="365.69" y1="629.61" x2="317.19" y2="677.31" xlink:href="#linear-gradient"/><linearGradient id="linear-gradient-17" x1="683.67" y1="467.57" x2="635.71" y2="514.75" gradientTransform="translate(1038.76 -249.12) rotate(80.84)" xlink:href="#linear-gradient"/></defs><g class="cls-2"><g id="OBJECTS"><g class="cls-3"><rect class="cls-4" x="153.26" y="136.38" width="1457.93" height="971.95"/><g class="cls-5"><path class="cls-6" d="M414.7,1029.74c36.17-21.48,68.73-51.52,85.18-90.24s14.24-86.88-12.46-119.4c-20.68-25.18-52.59-38.18-76.9-59.88-43.68-39-58-105.92-38.26-161s70.81-96.63,128-109.35,118.88,2.07,167,35.5C687.7,539.63,706,557.14,727.46,570s47.7,20.74,71.61,13.38c41.54-12.8,57.35-64.32,54.46-107.69s-17.81-86.52-10.9-129.43c9-55.83,54.9-100.71,107.6-121.22s111.27-20.08,167.4-13.13c1.11,6.15-1.6,13.91-.48,20.06v778C883.57,1013.91,648.28,1025.78,414.7,1029.74Z" transform="translate(577.11 162.24)"/><path class="cls-7" d="M-574.71,578.54c139.86,51.35,292.05,79.42,438.5,52s286-116.8,348.81-251.93c25.51-54.92,37.76-115,59.32-171.58S327.23,94.72,381,66.89C431.09,41,491.41,42.78,543.13,20.3,608.78-8.23,654.34-77.86,654.21-149.44c-1,0-.9,0-1.89,0H-571.78c0,4.95-5.33,6.93-5.33,11.88Z" transform="translate(577.11 162.24)"/><path class="cls-8" d="M-467.29,574.53c25.6-53.29,87.1-86.9,145.78-79.66s110.16,54.79,122,112.71c5.34,26.06,3.3,53,3.48,79.57s3,54.25,16.71,77,41,39.22,66.87,33c23.82-5.77,39.88-28.44,48.17-51.49s11.06-47.9,20.28-70.6c18.11-44.57,61.86-77.28,109.59-83.31s97.66,14.3,128.62,51.12,42.46,88.79,31.2,135.56c-6.48,26.92-20.06,53.11-17.36,80.67,2.78,28.37,22.15,51.83,38.65,75.07s31.43,51.65,23.81,79.12c-.33,0,1.41,1.68,1.07,1.68H-459.52C-470.29,871.14-435.37,715.18-467.29,574.53Z" transform="translate(577.11 162.24)"/><path class="cls-9" d="M-474.87,444c49.18-9.38,102.81,10.2,134.39,49.07S-300.73,588.48-320,634.7c-19.81,47.53-65,82.25-79.34,131.69-12.17,41.86,1.13,89.24,30.69,121.29s73.73,49,117.33,48.78,86.33-16.62,121.39-42.54C-83.5,859.61-48.15,808.39,5.91,788.16c59.27-22.18,132.58,3.25,165.38,57.37s21.4,130.89-25.69,173.15l-631.07,1.62C-483.38,828.79-477,635.56-474.87,444Z" transform="translate(577.11 162.24)"/><path class="cls-10" d="M288.73-99c.61,26.48,21.55,48.89,45.57,60s51,13.45,77.26,17.08,53.34,9.2,74.29,25.39c33.39,25.8,43,71.71,46,113.8s2.05,86.46,22.32,123.46c18.15,33.14,53,56.53,90.48,61S721.38,291.7,747.09,264c19-20.46,30.28-46.67,43.75-71.12s30.73-48.67,56.23-60c42-18.72,90.22,3.06,130.28,25.68s85.54,47.4,129.6,34.16l.73-288.07c-3.71,0-7.43-4.56-11.15-4.56Z" transform="translate(577.11 162.24)"/><path class="cls-11" d="M213-86.35c-24.85,69.89,12.9,155.91,81.15,184.94,44.67,19,95.79,14.84,143.19,4.37S531,76,579.29,71.2,680.18,75,715.51,108.26c64.07,60.33,45,169.25,91.74,243.79,33.52,53.41,100,82.1,162.74,76.28s120.47-43.33,157.06-94.68l-3.22-435-895.1,1.17C224-97.93,214.74-91.33,213-86.35Z" transform="translate(577.11 162.24)"/><path class="cls-12" d="M317.68,1014c-33.55-16.72-51.23-59.84-39.08-95.31s52.55-58.69,89.31-51.33C384.2,870.63,399,879,415,883.43s35.1,4.21,46.93-7.45c13.62-13.43,12-35.27,15.32-54.1,6.71-37.72,39.37-69.36,77.28-74.87s78.23,15.55,95.38,49.81c12.65,25.26,13,54.68,19.67,82.13s23.8,56.32,51.66,61c31.4,5.25,59.43-23.95,67.59-54.72s2.86-63.29,3.69-95.12c2-75.79,41.3-149.72,103.06-193.7s144.5-57,216.76-34l1.42,480.35c-15.46,0-28-2-43.47-2h-734C332.44,1033,321.55,1021.74,317.68,1014Z" transform="translate(577.11 162.24)"/><path class="cls-13" d="M-455.26,412.61a137,137,0,0,0,108.67-19.74,137,137,0,0,0,57.65-94.21c4.69-36.29-5.45-72.69-8-109.2s5.26-77.88,35.35-98.71c31.82-22,76-12.42,110.07,6s64.3,44.64,101.21,56.3C6,170.75,72.5,148.06,106.17,99.63S137.94-19.06,101.7-65.6L-453.73-64C-469.82,96.15-469.35,252.26-455.26,412.61Z" transform="translate(577.11 162.24)"/><path class="cls-14" d="M1060.61,110.52c-20.4-24.1-55.15-29.56-86.72-30s-64.69,2-93.17-11.58A89.72,89.72,0,0,1,832.44,7.45c-3.94-18.69-1.74-38.18-4.74-57-7.35-46.06-43.79-81.17-78.2-112.65,106.18,9.74,217.21,12.75,323.82,11.63C1093.32-65.38,1079.09,25,1060.61,110.52Z" transform="translate(577.11 162.24)"/><g class="cls-15"><rect class="cls-16" x="277.83" y="568.86" width="161.14" height="1.94" transform="translate(279.15 582.57) rotate(-45)"/></g><g class="cls-15"><rect class="cls-16" x="880.95" y="-8.66" width="161.14" height="1.94" transform="translate(864.22 839.93) rotate(-45)"/></g><g class="cls-15"><rect class="cls-16" x="-234.33" y="626.52" width="161.14" height="1.94" transform="translate(88.37 237.3) rotate(-45)"/></g><g class="cls-15"><rect class="cls-16" x="-203.97" y="225.03" width="121.65" height="1.94" transform="translate(375.38 127.21) rotate(-45)"/></g><g class="cls-15"><rect class="cls-16" x="308.17" y="5.3" width="200.63" height="1.94" transform="translate(692.31 452.92) rotate(-45)"/></g><g class="cls-15"><rect class="cls-16" x="143.99" y="945.12" width="200.63" height="1.94" transform="translate(-20.29 612.03) rotate(-45)"/></g><g class="cls-15"><rect class="cls-16" x="719.79" y="894.62" width="200.63" height="1.94" transform="translate(184.03 1004.54) rotate(-45)"/></g><g class="cls-15"><rect class="cls-16" x="772.73" y="387.53" width="200.63" height="1.94" transform="translate(558.13 893.43) rotate(-45)"/></g><g class="cls-15"><path class="cls-16" d="M873.89,693.78,943,742.1a152.88,152.88,0,0,1-16.72-7l-40.16-28.06A151.93,151.93,0,0,1,873.89,693.78Z" transform="translate(577.11 162.24)"/><path class="cls-16" d="M852.81,659.73l129.42,90.44c-2.65-.17-5.27-.44-7.9-.78L856.26,666.88C855,664.53,853.9,662.15,852.81,659.73Z" transform="translate(577.11 162.24)"/><path class="cls-16" d="M843.85,634.11l165.52,115.67c-2,.2-4,.38-6.07.5L845.48,640C844.89,638.05,844.35,636.08,843.85,634.11Z" transform="translate(577.11 162.24)"/><path class="cls-16" d="M839.91,612l191.56,133.86q-2.54.64-5.09,1.19L840.56,617.2C840.31,615.49,840.1,613.75,839.91,612Z" transform="translate(577.11 162.24)"/><path class="cls-16" d="M839.15,592.13l211.27,147.64c-1.44.57-2.91,1.14-4.39,1.67L839.09,596.83C839.08,595.26,839.09,593.68,839.15,592.13Z" transform="translate(577.11 162.24)"/><path class="cls-16" d="M840.67,573.87l226.38,158.19c-1.29.69-2.59,1.36-3.88,2L840.11,578.21C840.27,576.76,840.45,575.3,840.67,573.87Z" transform="translate(577.11 162.24)"/><path class="cls-16" d="M844.09,556.9,1081.79,723c-1.14.79-2.3,1.56-3.45,2.33L843.1,561C843.41,559.6,843.74,558.25,844.09,556.9Z" transform="translate(577.11 162.24)"/><path class="cls-16" d="M849.17,541.1l245.72,171.71c-1,.88-2,1.75-3.07,2.6l-244-170.53C848.22,543.62,848.68,542.35,849.17,541.1Z" transform="translate(577.11 162.24)"/><path class="cls-16" d="M855.73,526.33,1106.5,701.57c-.88,1-1.78,1.93-2.71,2.85L854,529.85C854.54,528.68,855.11,527.49,855.73,526.33Z" transform="translate(577.11 162.24)"/><path class="cls-16" d="M863.64,512.53l253.1,176.86c-.77,1.06-1.58,2.08-2.37,3.09L861.56,515.82C862.23,514.72,862.91,513.61,863.64,512.53Z" transform="translate(577.11 162.24)"/><path class="cls-16" d="M872.87,499.63l252.81,176.66c-.67,1.1-1.35,2.21-2.08,3.29L870.5,502.72C871.26,501.66,872.07,500.64,872.87,499.63Z" transform="translate(577.11 162.24)"/><path class="cls-16" d="M883.45,487.67l249.82,174.57c-.56,1.18-1.13,2.37-1.75,3.52L880.75,490.53C881.62,489.55,882.54,488.6,883.45,487.67Z" transform="translate(577.11 162.24)"/><path class="cls-16" d="M895.44,476.7l244,170.53c-.45,1.25-.91,2.52-1.4,3.76l-245.7-171.7C893.37,478.4,894.4,477.54,895.44,476.7Z" transform="translate(577.11 162.24)"/><path class="cls-16" d="M908.91,466.78l235.24,164.39c-.32,1.34-.66,2.69-1,4L905.44,469.1C906.58,468.31,907.75,467.54,908.91,466.78Z" transform="translate(577.11 162.24)"/><path class="cls-16" d="M924.08,458l223.06,155.87c-.17,1.44-.36,2.9-.56,4.35L920.2,460.06C921.47,459.36,922.77,458.69,924.08,458Z" transform="translate(577.11 162.24)"/><path class="cls-16" d="M941.25,450.68l206.9,144.58c0,1.58,0,3.16-.06,4.7L936.84,452.34C938.28,451.76,939.75,451.2,941.25,450.68Z" transform="translate(577.11 162.24)"/><path class="cls-16" d="M960.88,445.05l185.79,129.83c.25,1.71.46,3.45.65,5.19L955.79,446.23C957.48,445.8,959.19,445.4,960.88,445.05Z" transform="translate(577.11 162.24)"/><path class="cls-16" d="M984,441.84l157.82,110.29c.59,2,1.12,3.9,1.62,5.87L977.86,442.33C979.88,442.13,981.92,442,984,441.84Z" transform="translate(577.11 162.24)"/><path class="cls-16" d="M1012.9,442.72,1131,525.23c1.23,2.35,2.38,4.71,3.45,7.15L1005,441.94C1007.65,442.13,1010.27,442.38,1012.9,442.72Z" transform="translate(577.11 162.24)"/><path class="cls-16" d="M1061,457l40,27.92a150.06,150.06,0,0,1,12.3,13.35l-69-48.23A147.86,147.86,0,0,1,1061,457Z" transform="translate(577.11 162.24)"/></g><g class="cls-15"><path class="cls-16" d="M-418.14,650.36-483.09,696a142,142,0,0,1,11.52-12.58l37.71-26.52A143.65,143.65,0,0,1-418.14,650.36Z" transform="translate(577.11 162.24)"/><path class="cls-16" d="M-381.25,642.64l-121.56,85.5c1-2.29,2.07-4.52,3.22-6.74l110.91-78C-386.21,643.07-383.73,642.83-381.25,642.64Z" transform="translate(577.11 162.24)"/><path class="cls-16" d="M-355.7,642.93-511.18,752.28c.47-1.85,1-3.69,1.5-5.53l148.25-104.27Q-358.55,642.65-355.7,642.93Z" transform="translate(577.11 162.24)"/><path class="cls-16" d="M-334.88,646.54-514.82,773.09c.17-1.64.36-3.27.59-4.89l174.55-122.76C-338.08,645.78-336.48,646.15-334.88,646.54Z" transform="translate(577.11 162.24)"/><path class="cls-16" d="M-317,652.25-515.5,791.82c0-1.46-.07-2.94-.07-4.42l194.39-136.71C-319.78,651.18-318.39,651.7-317,652.25Z" transform="translate(577.11 162.24)"/><path class="cls-16" d="M-301.37,659.46-514,809c-.2-1.36-.38-2.73-.55-4.09L-305,657.56C-303.8,658.17-302.57,658.8-301.37,659.46Z" transform="translate(577.11 162.24)"/><path class="cls-16" d="M-287.45,667.93-510.74,825c-.33-1.26-.64-2.54-.95-3.8l221-155.41C-289.62,666.46-288.53,667.19-287.45,667.93Z" transform="translate(577.11 162.24)"/><path class="cls-16" d="M-275.1,677.5-505.92,839.83c-.45-1.18-.88-2.38-1.31-3.55L-278,675.06C-277,675.85-276,676.66-275.1,677.5Z" transform="translate(577.11 162.24)"/><path class="cls-16" d="M-264.13,688-499.69,853.7c-.59-1.08-1.14-2.19-1.66-3.31l234.66-165C-265.83,686.23-265,687.12-264.13,688Z" transform="translate(577.11 162.24)"/><path class="cls-16" d="M-254.46,699.47l-237.75,167.2c-.69-1-1.33-2.06-2-3.09l237.48-167C-255.95,697.51-255.18,698.48-254.46,699.47Z" transform="translate(577.11 162.24)"/><path class="cls-16" d="M-246,711.78l-237.47,167c-.76-.95-1.52-1.91-2.24-2.9L-248,708.69C-247.29,709.7-246.64,710.75-246,711.78Z" transform="translate(577.11 162.24)"/><path class="cls-16" d="M-238.82,725-473.48,890c-.86-.87-1.73-1.76-2.56-2.67l235.56-165.67C-239.89,722.76-239.35,723.88-238.82,725Z" transform="translate(577.11 162.24)"/><path class="cls-16" d="M-233,739.11-462.19,900.32c-1-.8-1.94-1.61-2.88-2.44l230.8-162.32C-233.8,736.73-233.37,737.92-233,739.11Z" transform="translate(577.11 162.24)"/><path class="cls-16" d="M-228.51,754.21l-221,155.41c-1.08-.72-2.17-1.45-3.25-2.19l223.28-157C-229.12,751.66-228.8,752.94-228.51,754.21Z" transform="translate(577.11 162.24)"/><path class="cls-16" d="M-225.64,770.45-435.17,917.81c-1.22-.62-2.45-1.26-3.66-1.9l212.64-149.55C-226,767.71-225.79,769.08-225.64,770.45Z" transform="translate(577.11 162.24)"/><path class="cls-16" d="M-224.64,788-419,924.68c-1.4-.49-2.79-1-4.14-1.56l198.44-139.56C-224.65,785-224.61,786.5-224.64,788Z" transform="translate(577.11 162.24)"/><path class="cls-16" d="M-226,807.18-400.48,929.92c-1.59-.33-3.2-.7-4.8-1.1l179.91-126.53C-225.53,803.93-225.73,805.56-226,807.18Z" transform="translate(577.11 162.24)"/><path class="cls-16" d="M-230.52,828.62-378.77,932.89c-1.91-.11-3.82-.27-5.71-.46L-229,823.08Q-229.7,825.85-230.52,828.62Z" transform="translate(577.11 162.24)"/><path class="cls-16" d="M-240.59,854-351.5,932c-2.48.33-4.94.59-7.44.76l121.57-85.5C-238.38,849.5-239.45,851.74-240.59,854Z" transform="translate(577.11 162.24)"/><path class="cls-16" d="M-268.69,892l-37.54,26.4A139,139,0,0,1-322,925l64.82-45.59A139.22,139.22,0,0,1-268.69,892Z" transform="translate(577.11 162.24)"/></g><g class="cls-15"><path class="cls-16" d="M17.21-6.6,6,77a151.84,151.84,0,0,1-1.49-18L11,10.39A150.83,150.83,0,0,1,17.21-6.6Z" transform="translate(577.11 162.24)"/><path class="cls-16" d="M37.82-40.93,16.75,115.54c-1.07-2.44-2-4.89-2.93-7.38L33-34.59C34.57-36.76,36.17-38.86,37.82-40.93Z" transform="translate(577.11 162.24)"/><path class="cls-16" d="M56.48-60.64,29.53,139.48c-1.11-1.7-2.19-3.41-3.23-5.16L52-56.5C53.46-57.91,55-59.3,56.48-60.64Z" transform="translate(577.11 162.24)"/><path class="cls-16" d="M74.32-74.27,43.13,157.34q-1.74-2-3.39-4L70-71.32C71.41-72.32,72.86-73.31,74.32-74.27Z" transform="translate(577.11 162.24)"/><path class="cls-16" d="M91.64-84.06,57.24,171.38c-1.18-1-2.35-2.06-3.5-3.14L87.44-81.95C88.83-82.69,90.24-83.4,91.64-84.06Z" transform="translate(577.11 162.24)"/><path class="cls-16" d="M108.57-91.07,71.71,182.63c-1.2-.83-2.4-1.68-3.58-2.53L104.45-89.59C105.82-90.11,107.2-90.61,108.57-91.07Z" transform="translate(577.11 162.24)"/><path class="cls-16" d="M125.22-95.81,86.51,191.58c-1.22-.65-2.45-1.33-3.65-2l38.3-284.41C122.51-95.18,123.86-95.51,125.22-95.81Z" transform="translate(577.11 162.24)"/><path class="cls-16" d="M141.59-98.53l-40,297.09L97.86,197,137.6-98C138.92-98.22,140.26-98.4,141.59-98.53Z" transform="translate(577.11 162.24)"/><path class="cls-16" d="M157.72-99.48l-40.83,303.2c-1.27-.33-2.54-.7-3.78-1.1l40.68-302C155.09-99.46,156.41-99.5,157.72-99.48Z" transform="translate(577.11 162.24)"/><path class="cls-16" d="M173.61-98.77l-41.21,306c-1.29-.2-2.57-.45-3.83-.69L169.74-99.12C171-99,172.32-98.92,173.61-98.77Z" transform="translate(577.11 162.24)"/><path class="cls-16" d="M189.31-96.48,148.14,209.18c-1.28-.09-2.58-.19-3.87-.34l41.21-306C186.77-97,188.05-96.73,189.31-96.48Z" transform="translate(577.11 162.24)"/><path class="cls-16" d="M204.79-92.55l-40.68,302c-1.3,0-2.62.08-3.93.06L201-93.65C202.28-93.32,203.54-92.93,204.79-92.55Z" transform="translate(577.11 162.24)"/><path class="cls-16" d="M220-86.93,180.3,208.12c-1.32.17-2.66.35-4,.48l40-297.07C217.57-88,218.81-87.46,220-86.93Z" transform="translate(577.11 162.24)"/><path class="cls-16" d="M235-79.5l-38.3,284.42c-1.34.33-2.7.65-4.06,1l38.71-287.4C232.6-80.86,233.82-80.19,235-79.5Z" transform="translate(577.11 162.24)"/><path class="cls-16" d="M249.75-70,213.43,199.67c-1.36.51-2.75,1-4.13,1.49l36.87-273.7C247.37-71.73,248.57-70.88,249.75-70Z" transform="translate(577.11 162.24)"/><path class="cls-16" d="M264.15-58.13,230.46,192c-1.39.74-2.8,1.45-4.2,2.1l34.4-255.41C261.83-60.27,263-59.23,264.15-58.13Z" transform="translate(577.11 162.24)"/><path class="cls-16" d="M278.16-43.26,247.9,181.37c-1.41,1-2.85,2-4.32,2.95L274.77-47.25Q276.51-45.28,278.16-43.26Z" transform="translate(577.11 162.24)"/><path class="cls-16" d="M291.58-24.23l-25.7,190.82c-1.46,1.41-3,2.78-4.48,4.12l27-200.13C289.46-27.72,290.54-26,291.58-24.23Z" transform="translate(577.11 162.24)"/><path class="cls-16" d="M304.07,1.91,284.84,144.66c-1.53,2.17-3.11,4.27-4.78,6.34L301.14-5.47C302.18-3,303.17-.59,304.07,1.91Z" transform="translate(577.11 162.24)"/><path class="cls-16" d="M313.43,51.24l-6.51,48.32a148.51,148.51,0,0,1-6.22,17l11.24-83.44A150.27,150.27,0,0,1,313.43,51.24Z" transform="translate(577.11 162.24)"/></g></g><circle class="cls-17" cx="1286.71" cy="916.67" r="23.42"/><path class="cls-18" d="M333.87,386.55a14.38,14.38,0,1,1-14.38-14.37A14.38,14.38,0,0,1,333.87,386.55Z" transform="translate(577.11 162.24)"/><circle class="cls-19" cx="878.23" cy="930.1" r="28.52"/><circle class="cls-20" cx="844.29" cy="257.42" r="14.38" transform="translate(976.31 1181.89) rotate(-76.67)"/><circle class="cls-21" cx="19.36" cy="257.42" r="24.13" transform="translate(400.75 251.33) rotate(-45)"/><circle class="cls-22" cx="347.46" cy="647.54" r="37.37"/><circle class="cls-23" cx="665.64" cy="485.31" r="36.96" transform="translate(657.64 1227.41) rotate(-80.84)"/><path class="cls-16" d="M385.22,882.44a2.55,2.55,0,1,1-2.55,2.55A2.55,2.55,0,0,1,385.22,882.44Z" transform="translate(577.11 162.24)"/><path class="cls-16" d="M411,882.44a2.55,2.55,0,1,1-2.55,2.55A2.55,2.55,0,0,1,411,882.44Z" transform="translate(577.11 162.24)"/><path class="cls-16" d="M436.85,882.44A2.55,2.55,0,1,1,434.3,885,2.55,2.55,0,0,1,436.85,882.44Z" transform="translate(577.11 162.24)"/><path class="cls-16" d="M462.67,882.44a2.55,2.55,0,1,1-2.55,2.55A2.55,2.55,0,0,1,462.67,882.44Z" transform="translate(577.11 162.24)"/><path class="cls-16" d="M488.48,882.44a2.55,2.55,0,1,1-2.55,2.55A2.55,2.55,0,0,1,488.48,882.44Z" transform="translate(577.11 162.24)"/><path class="cls-16" d="M514.3,882.44a2.55,2.55,0,1,1-2.55,2.55A2.55,2.55,0,0,1,514.3,882.44Z" transform="translate(577.11 162.24)"/><path class="cls-16" d="M540.11,882.44a2.55,2.55,0,1,1-2.55,2.55A2.55,2.55,0,0,1,540.11,882.44Z" transform="translate(577.11 162.24)"/><path class="cls-16" d="M385.22,857.91a2.55,2.55,0,1,1-2.55,2.54A2.55,2.55,0,0,1,385.22,857.91Z" transform="translate(577.11 162.24)"/><path class="cls-16" d="M411,857.91a2.55,2.55,0,1,1-2.55,2.54A2.55,2.55,0,0,1,411,857.91Z" transform="translate(577.11 162.24)"/><path class="cls-16" d="M436.85,857.91a2.55,2.55,0,1,1-2.55,2.54A2.55,2.55,0,0,1,436.85,857.91Z" transform="translate(577.11 162.24)"/><path class="cls-16" d="M462.67,857.91a2.55,2.55,0,1,1-2.55,2.54A2.55,2.55,0,0,1,462.67,857.91Z" transform="translate(577.11 162.24)"/><path class="cls-16" d="M488.48,857.91a2.55,2.55,0,1,1-2.55,2.54A2.55,2.55,0,0,1,488.48,857.91Z" transform="translate(577.11 162.24)"/><path class="cls-16" d="M514.3,857.91a2.55,2.55,0,1,1-2.55,2.54A2.55,2.55,0,0,1,514.3,857.91Z" transform="translate(577.11 162.24)"/><path class="cls-16" d="M540.11,857.91a2.55,2.55,0,1,1-2.55,2.54A2.55,2.55,0,0,1,540.11,857.91Z" transform="translate(577.11 162.24)"/><path class="cls-16" d="M385.22,833.37a2.55,2.55,0,1,1-2.55,2.55A2.55,2.55,0,0,1,385.22,833.37Z" transform="translate(577.11 162.24)"/><path class="cls-16" d="M411,833.37a2.55,2.55,0,1,1-2.55,2.55A2.55,2.55,0,0,1,411,833.37Z" transform="translate(577.11 162.24)"/><path class="cls-16" d="M436.85,833.37a2.55,2.55,0,1,1-2.55,2.55A2.55,2.55,0,0,1,436.85,833.37Z" transform="translate(577.11 162.24)"/><path class="cls-16" d="M462.67,833.37a2.55,2.55,0,1,1-2.55,2.55A2.55,2.55,0,0,1,462.67,833.37Z" transform="translate(577.11 162.24)"/><path class="cls-16" d="M488.48,833.37a2.55,2.55,0,1,1-2.55,2.55A2.55,2.55,0,0,1,488.48,833.37Z" transform="translate(577.11 162.24)"/><path class="cls-16" d="M514.3,833.37a2.55,2.55,0,1,1-2.55,2.55A2.55,2.55,0,0,1,514.3,833.37Z" transform="translate(577.11 162.24)"/><path class="cls-16" d="M540.11,833.37a2.55,2.55,0,1,1-2.55,2.55A2.55,2.55,0,0,1,540.11,833.37Z" transform="translate(577.11 162.24)"/><path class="cls-16" d="M385.22,808.84a2.55,2.55,0,1,1-2.55,2.55A2.55,2.55,0,0,1,385.22,808.84Z" transform="translate(577.11 162.24)"/><path class="cls-16" d="M411,808.84a2.55,2.55,0,1,1-2.55,2.55A2.55,2.55,0,0,1,411,808.84Z" transform="translate(577.11 162.24)"/><path class="cls-16" d="M436.85,808.84a2.55,2.55,0,1,1-2.55,2.55A2.55,2.55,0,0,1,436.85,808.84Z" transform="translate(577.11 162.24)"/><path class="cls-16" d="M462.67,808.84a2.55,2.55,0,1,1-2.55,2.55A2.55,2.55,0,0,1,462.67,808.84Z" transform="translate(577.11 162.24)"/><path class="cls-16" d="M488.48,808.84a2.55,2.55,0,1,1-2.55,2.55A2.55,2.55,0,0,1,488.48,808.84Z" transform="translate(577.11 162.24)"/><path class="cls-16" d="M514.3,808.84a2.55,2.55,0,1,1-2.55,2.55A2.55,2.55,0,0,1,514.3,808.84Z" transform="translate(577.11 162.24)"/><path class="cls-16" d="M540.11,808.84a2.55,2.55,0,1,1-2.55,2.55A2.55,2.55,0,0,1,540.11,808.84Z" transform="translate(577.11 162.24)"/><path class="cls-16" d="M665.64,62a2.55,2.55,0,1,1-2.55-2.55A2.55,2.55,0,0,1,665.64,62Z" transform="translate(577.11 162.24)"/><path class="cls-16" d="M665.64,87.85a2.55,2.55,0,1,1-2.55-2.55A2.55,2.55,0,0,1,665.64,87.85Z" transform="translate(577.11 162.24)"/><path class="cls-16" d="M665.64,113.67a2.55,2.55,0,1,1-2.55-2.55A2.55,2.55,0,0,1,665.64,113.67Z" transform="translate(577.11 162.24)"/><path class="cls-16" d="M665.64,139.48a2.55,2.55,0,1,1-2.55-2.55A2.55,2.55,0,0,1,665.64,139.48Z" transform="translate(577.11 162.24)"/><path class="cls-16" d="M665.64,165.3a2.55,2.55,0,1,1-2.55-2.55A2.55,2.55,0,0,1,665.64,165.3Z" transform="translate(577.11 162.24)"/><path class="cls-16" d="M665.64,191.11a2.55,2.55,0,1,1-2.55-2.55A2.55,2.55,0,0,1,665.64,191.11Z" transform="translate(577.11 162.24)"/><path class="cls-16" d="M665.64,216.93a2.55,2.55,0,1,1-2.55-2.55A2.55,2.55,0,0,1,665.64,216.93Z" transform="translate(577.11 162.24)"/><path class="cls-16" d="M690.17,62a2.55,2.55,0,1,1-2.55-2.55A2.55,2.55,0,0,1,690.17,62Z" transform="translate(577.11 162.24)"/><path class="cls-16" d="M690.17,87.85a2.55,2.55,0,1,1-2.55-2.55A2.55,2.55,0,0,1,690.17,87.85Z" transform="translate(577.11 162.24)"/><path class="cls-16" d="M690.17,113.67a2.55,2.55,0,1,1-2.55-2.55A2.55,2.55,0,0,1,690.17,113.67Z" transform="translate(577.11 162.24)"/><path class="cls-16" d="M690.17,139.48a2.55,2.55,0,1,1-2.55-2.55A2.55,2.55,0,0,1,690.17,139.48Z" transform="translate(577.11 162.24)"/><path class="cls-16" d="M690.17,165.3a2.55,2.55,0,1,1-2.55-2.55A2.55,2.55,0,0,1,690.17,165.3Z" transform="translate(577.11 162.24)"/><path class="cls-16" d="M690.17,191.11a2.55,2.55,0,1,1-2.55-2.55A2.55,2.55,0,0,1,690.17,191.11Z" transform="translate(577.11 162.24)"/><path class="cls-16" d="M690.17,216.93a2.55,2.55,0,1,1-2.55-2.55A2.55,2.55,0,0,1,690.17,216.93Z" transform="translate(577.11 162.24)"/><path class="cls-16" d="M714.7,62a2.55,2.55,0,1,1-2.55-2.55A2.55,2.55,0,0,1,714.7,62Z" transform="translate(577.11 162.24)"/><path class="cls-16" d="M714.7,87.85a2.55,2.55,0,1,1-2.55-2.55A2.55,2.55,0,0,1,714.7,87.85Z" transform="translate(577.11 162.24)"/><path class="cls-16" d="M714.7,113.67a2.55,2.55,0,1,1-2.55-2.55A2.55,2.55,0,0,1,714.7,113.67Z" transform="translate(577.11 162.24)"/><path class="cls-16" d="M714.7,139.48a2.55,2.55,0,1,1-2.55-2.55A2.55,2.55,0,0,1,714.7,139.48Z" transform="translate(577.11 162.24)"/><path class="cls-16" d="M714.7,165.3a2.55,2.55,0,1,1-2.55-2.55A2.55,2.55,0,0,1,714.7,165.3Z" transform="translate(577.11 162.24)"/><path class="cls-16" d="M714.7,191.11a2.55,2.55,0,1,1-2.55-2.55A2.55,2.55,0,0,1,714.7,191.11Z" transform="translate(577.11 162.24)"/><path class="cls-16" d="M714.7,216.93a2.55,2.55,0,1,1-2.55-2.55A2.55,2.55,0,0,1,714.7,216.93Z" transform="translate(577.11 162.24)"/><path class="cls-16" d="M739.23,62a2.55,2.55,0,1,1-2.55-2.55A2.55,2.55,0,0,1,739.23,62Z" transform="translate(577.11 162.24)"/><path class="cls-16" d="M739.23,87.85a2.55,2.55,0,1,1-2.55-2.55A2.55,2.55,0,0,1,739.23,87.85Z" transform="translate(577.11 162.24)"/><path class="cls-16" d="M739.23,113.67a2.55,2.55,0,1,1-2.55-2.55A2.55,2.55,0,0,1,739.23,113.67Z" transform="translate(577.11 162.24)"/><path class="cls-16" d="M739.23,139.48a2.55,2.55,0,1,1-2.55-2.55A2.55,2.55,0,0,1,739.23,139.48Z" transform="translate(577.11 162.24)"/><path class="cls-16" d="M739.23,165.3a2.55,2.55,0,1,1-2.55-2.55A2.55,2.55,0,0,1,739.23,165.3Z" transform="translate(577.11 162.24)"/><path class="cls-16" d="M739.23,191.11a2.55,2.55,0,1,1-2.55-2.55A2.55,2.55,0,0,1,739.23,191.11Z" transform="translate(577.11 162.24)"/><path class="cls-16" d="M739.23,216.93a2.55,2.55,0,1,1-2.55-2.55A2.55,2.55,0,0,1,739.23,216.93Z" transform="translate(577.11 162.24)"/><path class="cls-16" d="M-189.73,101.81a2.55,2.55,0,0,1-2.55-2.55,2.56,2.56,0,0,1,2.55-2.55,2.55,2.55,0,0,1,2.55,2.55A2.55,2.55,0,0,1-189.73,101.81Z" transform="translate(577.11 162.24)"/><path class="cls-16" d="M-215.54,101.81a2.55,2.55,0,0,1-2.55-2.55,2.55,2.55,0,0,1,2.55-2.55A2.55,2.55,0,0,1-213,99.26,2.55,2.55,0,0,1-215.54,101.81Z" transform="translate(577.11 162.24)"/><path class="cls-16" d="M-241.36,101.81a2.55,2.55,0,0,1-2.55-2.55,2.55,2.55,0,0,1,2.55-2.55,2.55,2.55,0,0,1,2.55,2.55A2.55,2.55,0,0,1-241.36,101.81Z" transform="translate(577.11 162.24)"/><path class="cls-16" d="M-267.17,101.81a2.55,2.55,0,0,1-2.55-2.55,2.55,2.55,0,0,1,2.55-2.55,2.55,2.55,0,0,1,2.55,2.55A2.55,2.55,0,0,1-267.17,101.81Z" transform="translate(577.11 162.24)"/><path class="cls-16" d="M-293,101.81a2.55,2.55,0,0,1-2.55-2.55A2.55,2.55,0,0,1-293,96.71a2.55,2.55,0,0,1,2.55,2.55A2.55,2.55,0,0,1-293,101.81Z" transform="translate(577.11 162.24)"/><path class="cls-16" d="M-318.8,101.81a2.55,2.55,0,0,1-2.55-2.55,2.55,2.55,0,0,1,2.55-2.55,2.55,2.55,0,0,1,2.55,2.55A2.55,2.55,0,0,1-318.8,101.81Z" transform="translate(577.11 162.24)"/><path class="cls-16" d="M-344.62,101.81a2.55,2.55,0,0,1-2.55-2.55,2.55,2.55,0,0,1,2.55-2.55,2.55,2.55,0,0,1,2.55,2.55A2.55,2.55,0,0,1-344.62,101.81Z" transform="translate(577.11 162.24)"/><path class="cls-16" d="M-189.73,126.34a2.55,2.55,0,0,1-2.55-2.55,2.56,2.56,0,0,1,2.55-2.55,2.55,2.55,0,0,1,2.55,2.55A2.55,2.55,0,0,1-189.73,126.34Z" transform="translate(577.11 162.24)"/><path class="cls-16" d="M-215.54,126.34a2.55,2.55,0,0,1-2.55-2.55,2.55,2.55,0,0,1,2.55-2.55,2.55,2.55,0,0,1,2.55,2.55A2.55,2.55,0,0,1-215.54,126.34Z" transform="translate(577.11 162.24)"/><path class="cls-16" d="M-241.36,126.34a2.55,2.55,0,0,1-2.55-2.55,2.55,2.55,0,0,1,2.55-2.55,2.55,2.55,0,0,1,2.55,2.55A2.55,2.55,0,0,1-241.36,126.34Z" transform="translate(577.11 162.24)"/><path class="cls-16" d="M-267.17,126.34a2.55,2.55,0,0,1-2.55-2.55,2.55,2.55,0,0,1,2.55-2.55,2.55,2.55,0,0,1,2.55,2.55A2.55,2.55,0,0,1-267.17,126.34Z" transform="translate(577.11 162.24)"/><path class="cls-16" d="M-293,126.34a2.55,2.55,0,0,1-2.55-2.55,2.55,2.55,0,0,1,2.55-2.55,2.55,2.55,0,0,1,2.55,2.55A2.55,2.55,0,0,1-293,126.34Z" transform="translate(577.11 162.24)"/><path class="cls-16" d="M-318.8,126.34a2.55,2.55,0,0,1-2.55-2.55,2.55,2.55,0,0,1,2.55-2.55,2.55,2.55,0,0,1,2.55,2.55A2.55,2.55,0,0,1-318.8,126.34Z" transform="translate(577.11 162.24)"/><path class="cls-16" d="M-344.62,126.34a2.55,2.55,0,0,1-2.55-2.55,2.55,2.55,0,0,1,2.55-2.55,2.55,2.55,0,0,1,2.55,2.55A2.55,2.55,0,0,1-344.62,126.34Z" transform="translate(577.11 162.24)"/><path class="cls-16" d="M-189.73,150.87a2.55,2.55,0,0,1-2.55-2.55,2.56,2.56,0,0,1,2.55-2.55,2.55,2.55,0,0,1,2.55,2.55A2.55,2.55,0,0,1-189.73,150.87Z" transform="translate(577.11 162.24)"/><path class="cls-16" d="M-215.54,150.87a2.55,2.55,0,0,1-2.55-2.55,2.55,2.55,0,0,1,2.55-2.55,2.55,2.55,0,0,1,2.55,2.55A2.55,2.55,0,0,1-215.54,150.87Z" transform="translate(577.11 162.24)"/><path class="cls-16" d="M-241.36,150.87a2.55,2.55,0,0,1-2.55-2.55,2.55,2.55,0,0,1,2.55-2.55,2.55,2.55,0,0,1,2.55,2.55A2.55,2.55,0,0,1-241.36,150.87Z" transform="translate(577.11 162.24)"/><path class="cls-16" d="M-267.17,150.87a2.55,2.55,0,0,1-2.55-2.55,2.55,2.55,0,0,1,2.55-2.55,2.55,2.55,0,0,1,2.55,2.55A2.55,2.55,0,0,1-267.17,150.87Z" transform="translate(577.11 162.24)"/><path class="cls-16" d="M-293,150.87a2.55,2.55,0,0,1-2.55-2.55,2.55,2.55,0,0,1,2.55-2.55,2.55,2.55,0,0,1,2.55,2.55A2.55,2.55,0,0,1-293,150.87Z" transform="translate(577.11 162.24)"/><path class="cls-16" d="M-318.8,150.87a2.55,2.55,0,0,1-2.55-2.55,2.55,2.55,0,0,1,2.55-2.55,2.55,2.55,0,0,1,2.55,2.55A2.55,2.55,0,0,1-318.8,150.87Z" transform="translate(577.11 162.24)"/><path class="cls-16" d="M-344.62,150.87a2.55,2.55,0,0,1-2.55-2.55,2.55,2.55,0,0,1,2.55-2.55,2.55,2.55,0,0,1,2.55,2.55A2.55,2.55,0,0,1-344.62,150.87Z" transform="translate(577.11 162.24)"/><path class="cls-16" d="M-189.73,175.4a2.55,2.55,0,0,1-2.55-2.54,2.56,2.56,0,0,1,2.55-2.56,2.56,2.56,0,0,1,2.55,2.56A2.55,2.55,0,0,1-189.73,175.4Z" transform="translate(577.11 162.24)"/><path class="cls-16" d="M-215.54,175.4a2.55,2.55,0,0,1-2.55-2.54,2.56,2.56,0,0,1,2.55-2.56,2.56,2.56,0,0,1,2.55,2.56A2.55,2.55,0,0,1-215.54,175.4Z" transform="translate(577.11 162.24)"/><path class="cls-16" d="M-241.36,175.4a2.55,2.55,0,0,1-2.55-2.54,2.56,2.56,0,0,1,2.55-2.56,2.56,2.56,0,0,1,2.55,2.56A2.55,2.55,0,0,1-241.36,175.4Z" transform="translate(577.11 162.24)"/><path class="cls-16" d="M-267.17,175.4a2.55,2.55,0,0,1-2.55-2.54,2.56,2.56,0,0,1,2.55-2.56,2.56,2.56,0,0,1,2.55,2.56A2.55,2.55,0,0,1-267.17,175.4Z" transform="translate(577.11 162.24)"/><path class="cls-16" d="M-293,175.4a2.55,2.55,0,0,1-2.55-2.54A2.56,2.56,0,0,1-293,170.3a2.56,2.56,0,0,1,2.55,2.56A2.55,2.55,0,0,1-293,175.4Z" transform="translate(577.11 162.24)"/><path class="cls-16" d="M-318.8,175.4a2.55,2.55,0,0,1-2.55-2.54,2.56,2.56,0,0,1,2.55-2.56,2.56,2.56,0,0,1,2.55,2.56A2.55,2.55,0,0,1-318.8,175.4Z" transform="translate(577.11 162.24)"/><path class="cls-16" d="M-344.62,175.4a2.55,2.55,0,0,1-2.55-2.54,2.56,2.56,0,0,1,2.55-2.56,2.56,2.56,0,0,1,2.55,2.56A2.55,2.55,0,0,1-344.62,175.4Z" transform="translate(577.11 162.24)"/></g></g></g></svg>