<svg xmlns="http://www.w3.org/2000/svg" viewBox="0 0 288.33 494.4"><defs><style>.cls-1{isolation:isolate;}.cls-2,.cls-9{fill:#384dad;}.cls-3{fill:#e06ca4;}.cls-4{fill:#7bd8f5;}.cls-5{fill:#ccd3e2;}.cls-6{fill:#fff;}.cls-7{fill:#e8eff9;}.cls-8{fill:#caaeff;}.cls-9{fill-rule:evenodd;}</style></defs><g id="Layer_2" data-name="Layer 2"><g id="OBJECTS"><g class="cls-1"><path class="cls-2" d="M287.89,397.16l0,13.93c0,3-2,6-5.94,8.34l0-13.92C285.9,403.21,287.88,400.19,287.89,397.16Z"/><path class="cls-2" d="M0,411l0-13.93c0,3.07,2,6.13,6,8.46l0,13.92C2,417.11,0,414,0,411Z"/><polygon class="cls-2" points="281.95 405.51 281.91 419.43 158.86 490.94 158.9 477.01 281.95 405.51"/><polygon class="cls-2" points="129.92 477.01 129.88 490.94 6.02 419.43 6.06 405.51 129.92 477.01"/><path class="cls-2" d="M158.9,477l0,13.93c-7.94,4.62-21,4.62-29,0l0-13.93C137.91,481.63,151,481.63,158.9,477Z"/><path class="cls-3" d="M281.87,388.71c8,4.62,8,12.17.08,16.8L158.9,477c-7.94,4.62-21,4.62-29,0L6.06,405.51c-8-4.62-8-12.17-.09-16.79L129,317.21c7.95-4.62,21-4.62,29,0Z"/></g><g class="cls-1"><path class="cls-4" d="M274.77,385.11l0,12.71c0,2.76-1.81,5.52-5.42,7.61l0-12.71C273,390.63,274.76,387.87,274.77,385.11Z"/><path class="cls-4" d="M12,397.72l0-12.71c0,2.79,1.82,5.59,5.49,7.71l0,12.71C13.84,403.31,12,400.51,12,397.72Z"/><polygon class="cls-4" points="269.35 392.72 269.31 405.43 157 470.7 157.04 457.99 269.35 392.72"/><polygon class="cls-4" points="130.59 457.99 130.55 470.7 17.51 405.43 17.54 392.72 130.59 457.99"/><path class="cls-4" d="M157,458l0,12.71c-7.25,4.21-19.15,4.21-26.45,0l0-12.71C137.88,462.2,149.79,462.2,157,458Z"/><path class="cls-4" d="M269.27,377.39c7.3,4.22,7.34,11.11.08,15.33L157,458c-7.25,4.21-19.16,4.21-26.45,0l-113-65.27c-7.29-4.21-7.33-11.11-.08-15.32l112.31-65.27c7.26-4.21,19.16-4.21,26.46,0Z"/></g><g class="cls-1"><path class="cls-2" d="M288.16,366.35l0,13.92c0,3-2,6.05-5.94,8.34l0-13.92C286.17,372.39,288.15,369.37,288.16,366.35Z"/><path class="cls-2" d="M.27,380.16l0-13.92c0,3.06,2,6.13,6,8.45l0,13.92C2.27,386.29.26,383.22.27,380.16Z"/><polygon class="cls-2" points="282.22 374.69 282.18 388.61 159.13 460.12 159.17 446.2 282.22 374.69"/><polygon class="cls-2" points="130.19 446.2 130.15 460.12 6.29 388.62 6.33 374.69 130.19 446.2"/><path class="cls-2" d="M159.17,446.2l0,13.92c-7.94,4.62-21,4.62-29,0l0-13.92C138.18,450.81,151.23,450.81,159.17,446.2Z"/><path class="cls-3" d="M282.13,357.89c8,4.62,8,12.18.09,16.8L159.17,446.2c-7.94,4.61-21,4.61-29,0L6.33,374.69c-8-4.62-8-12.17-.09-16.79l123.05-71.51c8-4.62,21-4.62,29,0Z"/></g><g class="cls-1"><path class="cls-4" d="M274.94,353.57l0,12.71c0,2.76-1.82,5.52-5.43,7.62l0-12.71C273.13,359.09,274.93,356.33,274.94,353.57Z"/><path class="cls-4" d="M12.18,366.18l0-12.7c0,2.79,1.82,5.59,5.49,7.71l0,12.71C14,371.78,12.17,369,12.18,366.18Z"/><polygon class="cls-4" points="269.52 361.19 269.49 373.9 157.18 439.17 157.21 426.46 269.52 361.19"/><polygon class="cls-4" points="130.76 426.46 130.72 439.17 17.68 373.9 17.71 361.19 130.76 426.46"/><path class="cls-4" d="M157.21,426.46l0,12.71c-7.25,4.21-19.16,4.21-26.46,0l0-12.71C138.06,430.67,150,430.67,157.21,426.46Z"/><path class="cls-4" d="M269.44,345.86c7.3,4.21,7.34,11.11.08,15.33L157.21,426.46c-7.25,4.21-19.15,4.21-26.45,0l-113-65.27c-7.29-4.21-7.33-11.11-.08-15.32L129.94,280.6c7.26-4.22,19.16-4.22,26.46,0Z"/></g><g class="cls-1"><path class="cls-2" d="M288.33,334.81l0,13.93c0,3-2,6-5.94,8.34l0-13.93C286.34,340.86,288.32,337.84,288.33,334.81Z"/><path class="cls-2" d="M.44,348.63l0-13.93c0,3.07,2,6.13,6,8.46l0,13.92C2.44,354.76.43,351.69.44,348.63Z"/><polygon class="cls-2" points="282.39 343.15 282.35 357.08 159.3 428.59 159.34 414.66 282.39 343.15"/><polygon class="cls-2" points="130.36 414.66 130.32 428.59 6.46 357.08 6.5 343.16 130.36 414.66"/><path class="cls-2" d="M159.34,414.66l0,13.93c-7.94,4.61-21,4.61-29,0l0-13.93C138.35,419.28,151.4,419.28,159.34,414.66Z"/><path class="cls-3" d="M282.31,326.36c8,4.62,8,12.17.08,16.79l-123,71.51c-7.94,4.62-21,4.62-29,0L6.5,343.16c-8-4.62-8-12.18-.09-16.79l123.05-71.51c7.95-4.62,21-4.62,29,0Z"/></g><g class="cls-1"><path class="cls-5" d="M156.27,253.69l0,13.92c-7-4.05-18.4-4.05-25.38,0l0-13.92C137.87,249.63,149.24,249.63,156.27,253.69Z"/><polygon class="cls-5" points="259.9 313.52 259.86 327.44 156.23 267.61 156.27 253.69 259.9 313.52"/><path class="cls-5" d="M265.19,320.92l0,13.92c0-2.67-1.76-5.36-5.29-7.4l0-13.92C263.43,315.56,265.2,318.24,265.19,320.92Z"/><path class="cls-5" d="M22.69,334.74l0-13.92c0-2.65,1.74-5.29,5.2-7.3l0,13.93C24.43,329.46,22.7,332.1,22.69,334.74Z"/><path class="cls-5" d="M270.31,320.93l0,13.93c0,3.4-2.24,6.79-6.69,9.38l0-13.93C268.07,327.73,270.3,324.33,270.31,320.93Z"/><path class="cls-5" d="M17.57,334.73l0-13.93c0,3.45,2.26,6.89,6.8,9.51l0,13.93C19.83,341.62,17.56,338.17,17.57,334.73Z"/><path class="cls-6" d="M263.51,311.42c9,5.21,9.07,13.69.11,18.89l-103,59.84c-9,5.2-23.6,5.2-32.62,0L24.41,330.31c-9-5.2-9.07-13.68-.11-18.89l103-59.83c9-5.21,23.6-5.21,32.62,0ZM157,388.05l103-59.83c7-4.06,6.93-10.65-.08-14.7L156.27,253.69c-7-4.06-18.4-4.06-25.38,0l-103,59.83c-7,4.05-6.94,10.64.09,14.7l103.63,59.83c7,4.05,18.41,4.05,25.37,0"/><polygon class="cls-5" points="130.89 253.69 130.85 267.61 27.89 327.44 27.93 313.52 130.89 253.69"/><polygon class="cls-5" points="263.62 330.31 263.58 344.24 160.62 404.07 160.66 390.15 263.62 330.31"/><polygon class="cls-5" points="128.04 390.15 128 404.07 24.37 344.24 24.41 330.31 128.04 390.15"/><path class="cls-5" d="M160.66,390.15l0,13.92c-9,5.21-23.6,5.21-32.62,0l0-13.92C137.06,395.35,151.69,395.35,160.66,390.15Z"/></g><g class="cls-1"><path class="cls-5" d="M233.16,330.23V333c0,3-2,6-5.94,8.34v-2.78C231.18,336.28,233.16,333.26,233.16,330.23Z"/><path class="cls-5" d="M54.72,332.91v-2.78c0,3.06,2,6.13,6,8.45v2.78C56.72,339,54.71,336,54.72,332.91Z"/><polygon class="cls-5" points="227.23 338.58 227.22 341.36 158.7 381.18 158.71 378.39 227.23 338.58"/><polygon class="cls-5" points="129.72 378.4 129.71 381.18 60.74 341.36 60.75 338.58 129.72 378.4"/><path class="cls-5" d="M158.71,378.39v2.79c-7.95,4.62-21,4.62-29,0V378.4C137.71,383,150.76,383,158.71,378.39Z"/><path class="cls-6" d="M227.14,321.78c8,4.62,8,12.17.09,16.8l-68.52,39.81c-8,4.62-21,4.62-29,0l-69-39.82c-8-4.62-8-12.17-.09-16.8L129.18,282c7.95-4.62,21-4.62,29,0Z"/></g><g class="cls-1"><path class="cls-6" d="M195.17,274.1a48.13,48.13,0,0,0,13.9,1.76l-1.7,3.19a48.13,48.13,0,0,1-13.9-1.76Z"/><path class="cls-6" d="M209.07,275.86c9-.28,15.18-3.64,18-8.83l-1.7,3.19c-2.77,5.19-9,8.55-17.95,8.83Z"/><path class="cls-6" d="M159.92,249.5c7,11.34,21.11,20.81,35.25,24.6l-1.7,3.19c-14.14-3.79-28.26-13.26-35.24-24.6-4.63-7.51-5.25-14.43-2.52-19.55l1.7-3.19C154.67,235.07,155.3,242,159.92,249.5Z"/><path class="cls-7" d="M155.71,233.14l1.7-3.19c2.76-5.2,9-8.55,17.93-8.83l-1.69,3.19C164.68,224.59,158.47,227.94,155.71,233.14Z"/><path class="cls-3" d="M150.05,227.7l1.7-3.19c3.66-6.87,11.88-11.32,23.76-11.69l-1.7,3.19C161.93,216.38,153.72,220.83,150.05,227.7Z"/><path class="cls-7" d="M173.65,224.31c17.84-.56,39.84,11.25,49.15,26.36s2.41,27.82-15.43,28.38-39.83-11.24-49.14-26.36S155.82,224.86,173.65,224.31Z"/><path class="cls-7" d="M227,267l-1.7,3.19c2.73-5.13,2.11-12-2.52-19.55-9.31-15.11-31.31-26.92-49.15-26.36l1.69-3.19c17.85-.56,39.85,11.25,49.16,26.36C229.13,255,229.75,261.9,227,267Z"/><path class="cls-3" d="M243.91,273.59l-1.7,3.19c3.61-6.79,2.79-15.94-3.33-25.88-12.33-20-41.46-35.63-65.07-34.89l1.7-3.19c23.61-.74,52.74,14.88,65.07,34.89C246.7,257.65,247.52,266.8,243.91,273.59Z"/><path class="cls-6" d="M173.81,216c23.61-.74,52.74,14.88,65.07,34.89s3.18,36.83-20.44,37.57-52.73-14.88-65.05-34.89S150.21,216.75,173.81,216Zm33.56,63c17.84-.56,24.74-13.27,15.43-28.38s-31.31-26.92-49.15-26.36-24.73,13.27-15.42,28.38,31.31,26.92,49.14,26.36"/></g><g class="cls-1"><path class="cls-8" d="M156.44,233.24l.57-1.07c-3.06,5.74-2.37,13.48,2.8,21.87,10.4,16.89,35.07,30.11,55,29.48l-.57,1.07c-19.91.62-44.58-12.6-55-29.49C154.07,246.71,153.39,239,156.44,233.24Z"/><path class="cls-8" d="M234.85,273.63l-.56,1.07c-3.1,5.81-10,9.57-20.07,9.89l.57-1.07C224.81,283.21,231.76,279.45,234.85,273.63Z"/><path class="cls-8" d="M153.83,231.85l.57-1.07c3.3-6.2,10.71-10.21,21.4-10.55l-.57,1.07C164.54,221.63,157.14,225.64,153.83,231.85Z"/><path class="cls-8" d="M237.46,275l-.57,1.07c3.26-6.13,2.53-14.38-3-23.33-11.11-18-37.42-32.13-58.68-31.46l.57-1.07c21.26-.66,47.57,13.45,58.67,31.47C240,260.65,240.72,268.9,237.46,275Z"/><path class="cls-2" d="M175.23,221.3c21.26-.67,47.57,13.44,58.68,31.46s2.83,33.21-18.43,33.88-47.56-13.45-58.66-31.46S154,222,175.23,221.3Zm39,63.29c19.92-.63,27.67-14.86,17.27-31.75s-35.07-30.12-55-29.49-27.65,14.87-17.25,31.75,35.07,30.11,55,29.49"/></g><g class="cls-1"><polygon class="cls-8" points="173.26 253.96 173.83 252.89 180.31 251.12 179.74 252.18 173.26 253.96"/><polygon class="cls-8" points="196.01 253.24 196.58 252.18 200.67 263.59 200.1 264.65 196.01 253.24"/><polygon class="cls-8" points="222.7 263.94 223.27 262.88 226.46 271.82 225.89 272.89 222.7 263.94"/><polygon class="cls-8" points="200.1 264.65 200.67 263.59 223.27 262.88 222.7 263.94 200.1 264.65"/><polygon class="cls-8" points="200.69 246.55 201.26 245.48 204.11 250.11 203.54 251.17 200.69 246.55"/><polygon class="cls-8" points="194.21 248.32 194.78 247.26 201.26 245.48 200.69 246.55 194.21 248.32"/><polygon class="cls-2" points="187.52 230.18 194.21 248.32 200.69 246.55 203.54 251.17 196.01 253.24 200.1 264.65 222.7 263.94 225.89 272.89 187.82 274.08 181.53 257.11 176.12 258.59 173.26 253.96 179.74 252.18 171.89 230.67 187.52 230.18"/><polygon class="cls-8" points="187.52 230.18 188.09 229.12 194.78 247.26 194.21 248.32 187.52 230.18"/><polygon class="cls-8" points="171.89 230.67 172.46 229.6 188.09 229.12 187.52 230.18 171.89 230.67"/></g><g class="cls-1"><path class="cls-6" d="M182.32,309.36c0-.14-.08-.27-.13-.4,0-1.36,0-2.72,0-4.08l.12.4C182.33,306.64,182.33,308,182.32,309.36Z"/><path class="cls-6" d="M182.32,309.36c0-.11,0-.23,0-.34,0-1.25,0-2.49,0-3.74a15.35,15.35,0,0,1,.72,4.52c0,1.36,0,2.72,0,4.08A15,15,0,0,0,182.32,309.36Z"/><path class="cls-6" d="M107,295.66c-8.6,5-12.91,11.54-12.93,18.09v-4.08c0-6.55,4.33-13.09,12.93-18.09,17.32-10.07,45.5-10.08,62.94,0,6.54,3.78,10.64,8.43,12.3,13.31,0,1.36,0,2.72,0,4.08-1.65-4.88-5.75-9.53-12.29-13.31C152.46,285.58,124.28,285.59,107,295.66Z"/><path class="cls-6" d="M183,314a.56.56,0,0,0,0-.13c0-1.36,0-2.72,0-4.08v.13C183,311.15,183,312.78,183,314Z"/><path class="cls-7" d="M183.05,309.93l0,4.08c0,6.55-4.32,13.1-12.93,18.1-17.32,10.06-45.49,10.06-62.93,0C98.39,327,94,320.39,94,313.75v-4.08C94,316.31,98.4,323,107.18,328c17.44,10.08,45.61,10.08,62.93,0C178.72,323,183,316.48,183.05,309.93Z"/><path class="cls-7" d="M169.91,291.57c17.44,10.07,17.52,26.4.2,36.46s-45.49,10.07-62.93,0-17.53-26.38-.21-36.44S152.47,281.5,169.91,291.57Z"/><path class="cls-3" d="M198.34,311.65l0,4.07c0,8.68-5.72,17.34-17.12,24C158.28,353,121,353,97.9,339.68c-11.61-6.7-17.41-15.5-17.39-24.29v-4.08c0,8.79,5.78,17.59,17.39,24.3,23.09,13.33,60.38,13.32,83.31,0C192.61,329,198.31,320.32,198.34,311.65Z"/><path class="cls-6" d="M180.94,287.35c23.09,13.33,23.2,34.93.28,48.26s-60.22,13.33-83.31,0-23.2-34.93-.27-48.26S157.87,274,180.94,287.35ZM107.18,328c17.44,10.08,45.61,10.08,62.93,0s17.24-26.39-.2-36.46-45.62-10.06-62.94,0S89.74,318,107.18,328"/></g><g class="cls-1"><path class="cls-8" d="M188.31,311.37v1.36c0-7.44-4.87-14.88-14.67-20.54-19.47-11.24-51.06-11.24-70.41,0-9.61,5.58-14.42,12.91-14.44,20.24v-1.36c0-7.33,4.84-14.66,14.44-20.24,19.35-11.25,50.94-11.25,70.41,0C183.43,296.49,188.33,303.93,188.31,311.37Z"/><path class="cls-8" d="M191.64,311.38v1.36c0,7.82-5.16,15.64-15.42,21.6-20.64,12-54.33,12-75.12,0-10.46-6-15.68-14-15.65-21.91v-1.36c0,7.93,5.2,15.87,15.65,21.91,20.79,12,54.48,12,75.13,0C186.49,327,191.62,319.21,191.64,311.38Z"/><path class="cls-2" d="M176,289.46c20.79,12,20.9,31.52.25,43.52s-54.34,12-75.13,0-20.88-31.51-.24-43.51S155.2,277.47,176,289.46Zm-72.53,42.15c19.48,11.25,51.07,11.25,70.41,0s19.25-29.54-.23-40.79-51.06-11.24-70.41,0-19.23,29.53.23,40.77"/></g><g class="cls-1"><polygon class="cls-8" points="128.97 317.21 128.97 318.57 120.93 300.9 120.93 299.54 128.97 317.21"/><polygon class="cls-2" points="159.5 321.81 128.97 317.21 120.93 299.54 171.6 292.44 159.5 321.81"/><polygon class="cls-8" points="159.5 321.81 159.5 323.17 128.97 318.57 128.97 317.21 159.5 321.81"/><polygon class="cls-8" points="171.6 292.44 171.59 293.8 159.5 323.17 159.5 321.81 171.6 292.44"/><polygon class="cls-8" points="158.13 324.56 158.13 325.92 109.81 329.71 109.81 328.35 158.13 324.56"/><polygon class="cls-2" points="124.94 319.55 158.13 324.56 109.81 328.35 116.2 300.35 124.94 319.55"/></g><g class="cls-1"><path class="cls-6" d="M90.11,221.62a48.24,48.24,0,0,0,13.61,3.2l-2,3a48.24,48.24,0,0,1-13.61-3.2Z"/><path class="cls-6" d="M57.69,193.49c5.74,12,18.77,22.88,32.42,28.13l-2,3c-13.65-5.25-26.68-16.14-32.42-28.13-3.81-7.94-3.7-14.87-.45-19.68l2-3C54,178.62,53.89,185.55,57.69,193.49Z"/><path class="cls-6" d="M103.72,224.82c8.94.66,15.46-2,18.75-6.88l-2,3c-3.29,4.87-9.81,7.55-18.75,6.89C102.31,226.91,103.12,225.72,103.72,224.82Z"/><path class="cls-7" d="M55.22,176.8l2-3c3.29-4.87,9.81-7.55,18.74-6.89l-2,3C65,169.26,58.52,171.94,55.22,176.8Z"/><path class="cls-3" d="M45.56,169.07l2-3c4.35-6.44,13-10,24.81-9.12l-2,3C58.54,159.08,49.92,162.63,45.56,169.07Z"/><path class="cls-7" d="M122.47,217.94l-2,3c3.25-4.8,3.36-11.73-.44-19.66-7.66-16-28.28-30-46-31.34l2-3c17.76,1.32,38.38,15.34,46,31.34C125.83,206.21,125.72,213.13,122.47,217.94Z"/><path class="cls-6" d="M70.37,160c23.51,1.75,50.79,20.32,60.93,41.48s-.71,36.89-24.22,35.15-50.79-20.31-60.93-41.47S46.86,158.22,70.37,160Zm31.33,67.85c17.76,1.32,26-10.57,18.31-26.55s-28.28-30-46-31.34-26,10.57-18.3,26.56,28.27,30,46,31.33"/><path class="cls-7" d="M74,169.92c17.76,1.32,38.38,15.34,46,31.34s-.55,27.87-18.31,26.55-38.37-15.34-46-31.33S56.21,168.6,74,169.92Z"/><path class="cls-3" d="M133.91,224.49l-2,3c4.3-6.36,4.44-15.53-.59-26C121.16,180.28,93.88,161.71,70.37,160l2-3c23.51,1.75,50.79,20.32,60.92,41.48C138.36,209,138.21,218.13,133.91,224.49Z"/></g><g class="cls-1"><path class="cls-8" d="M51,175.74l.67-1c-3.63,5.38-3.76,13.13.49,22,8.55,17.86,31.65,33.59,51.49,35.06l-.67,1C83.08,231.32,60,215.6,51.44,197.74,47.19,188.87,47.31,181.11,51,175.74Z"/><path class="cls-8" d="M124.56,224.09l-.68,1c-3.68,5.45-11,8.46-20.95,7.72l.67-1C113.59,232.54,120.87,229.53,124.56,224.09Z"/><path class="cls-8" d="M48.5,174.08l.68-1c3.93-5.81,11.7-9,22.36-8.23l-.68,1C60.21,165.06,52.44,168.27,48.5,174.08Z"/><path class="cls-8" d="M127,225.74l-.68,1c3.88-5.74,4-14-.51-23.47-9.13-19-33.78-35.84-54.95-37.41l.68-1c21.16,1.57,45.82,18.35,54.94,37.4C131,211.72,130.88,220,127,225.74Z"/><path class="cls-2" d="M70.86,165.85c21.17,1.57,45.82,18.36,55,37.41S125.13,236.53,104,235,58.14,216.61,49,197.56,49.7,164.28,70.86,165.85Zm32.07,67c19.84,1.47,29-11.86,20.47-29.72S91.75,169.5,71.91,168s-29,11.85-20.47,29.71,31.64,33.58,51.49,35.06"/></g><g class="cls-1"><path class="cls-8" d="M88.91,216.25l-.67,1c1.13-1.67,1.18-4.08-.15-6.86a14.76,14.76,0,0,0-2.25-3.26l.68-1a15.17,15.17,0,0,1,2.25,3.25C90.1,212.16,90.05,214.57,88.91,216.25Z"/><path class="cls-8" d="M65.45,201.82l.67-1c1.15-1.7,3.41-2.64,6.55-2.41a20.75,20.75,0,0,1,10,4.08l-.68,1A20.67,20.67,0,0,0,72,199.42C68.85,199.18,66.59,200.13,65.45,201.82Z"/><path class="cls-8" d="M86.59,200.07l-.67,1c-.44.65-1.68,1.11-3.88,2.43l.68-1C84.91,201.18,86.15,200.72,86.59,200.07Z"/><path class="cls-8" d="M87.94,195.16l.67-1c3.75,7.82.9,5,10.34,9.54l-.67,1C88.83,200.17,91.68,203,87.94,195.16Z"/><path class="cls-8" d="M98.41,204.49l.67-1c1.2-1.76,3.47-2.85,6.76-2.61,6.12.46,13.31,5.44,16,11,1.35,2.82,1.32,5.26.18,6.94l-.67,1c1.13-1.68,1.17-4.11-.18-6.93-2.64-5.52-9.83-10.5-16-11C101.88,201.64,99.61,202.72,98.41,204.49Z"/><path class="cls-8" d="M69.53,177.42l.68-1c1.16-1.72,3.45-2.65,6.55-2.42l-.67,1C73,174.77,70.69,175.71,69.53,177.42Z"/><path class="cls-8" d="M93,191.82l-.68,1c1.14-1.68,1.17-4.1-.15-6.86-2.71-5.64-9.84-10.49-16.1-11l.67-1c6.26.46,13.4,5.31,16.1,11C94.18,187.73,94.15,190.15,93,191.82Z"/><path class="cls-2" d="M76.09,175c6.26.47,13.39,5.32,16.1,11,2.33,4.87.44,8.69-4.25,9.2,3.74,7.82.89,5,10.34,9.54,1.15-1.89,3.47-3.07,6.89-2.82,6.12.45,13.31,5.43,16,11s-.13,9.75-6.25,9.3c-6.27-.47-13.4-5.33-16.1-11a8.88,8.88,0,0,1-1-3.16c-4.38-2.12-6-3.14-7.26-3.23s-2,.75-4.7,2.34a14.76,14.76,0,0,1,2.25,3.26c2.7,5.63-.28,9.74-6.4,9.29s-13.4-5.33-16.1-11,.13-9.76,6.4-9.29A20.67,20.67,0,0,1,82,203.5c5.12-3.08,5.06-1.48,1.69-8.52-5.69-1.29-11.65-5.69-14-10.69C67,178.65,70,174.55,76.09,175Z"/></g><g class="cls-1"><path class="cls-6" d="M223.72,158c3.35-8.14,2.84-15.06-.67-19.67l2.18,2.87c3.52,4.61,4,11.53.68,19.67-6.73,16.4-26.51,31.58-44.16,33.9l-2.19-2.86C197.21,189.57,217,174.39,223.72,158Z"/><path class="cls-6" d="M160.44,186.09c3.57,4.67,10.23,7,19.12,5.81l2.19,2.86c-8.89,1.18-15.55-1.13-19.12-5.8Z"/><path class="cls-7" d="M223,138.32l2.19,2.87c-3.56-4.67-10.22-7-19.1-5.8l-2.19-2.87C212.82,131.35,219.48,133.65,223,138.32Z"/><path class="cls-3" d="M240.81,130.18l2.19,2.87c-4.72-6.18-13.53-9.23-25.29-7.68l-2.19-2.87C227.28,121,236.09,124,240.81,130.18Z"/><path class="cls-7" d="M206.13,135.39c17.65-2.33,26.52,9.08,19.78,25.47s-26.51,31.58-44.16,33.9-26.53-9.07-19.8-25.46S188.47,137.72,206.13,135.39Z"/><path class="cls-7" d="M162.63,189l-2.19-2.87c-3.51-4.61-4-11.52-.67-19.66,6.73-16.39,26.51-31.58,44.17-33.91l2.19,2.87c-17.66,2.33-37.44,17.51-44.18,33.91C158.61,177.44,159.12,184.35,162.63,189Z"/><path class="cls-3" d="M160.14,196.29,158,193.42c-4.65-6.1-5.32-15.25-.89-26,8.91-21.7,35.08-41.79,58.46-44.88l2.19,2.87c-23.38,3.08-49.55,23.18-58.46,44.88C154.82,181,155.49,190.19,160.14,196.29Z"/><path class="cls-6" d="M217.71,125.37c23.37-3.08,35.09,12,26.18,33.72s-35.08,41.8-58.46,44.88-35.09-12-26.18-33.72S194.33,128.45,217.71,125.37Zm-36,69.39c17.65-2.32,37.43-17.5,44.16-33.9s-2.13-27.8-19.78-25.47S168.69,152.9,162,169.3s2.14,27.79,19.8,25.46"/></g><g class="cls-1"><path class="cls-8" d="M235.11,139.19l.73,1c3.94,5.16,4.51,12.89.77,22-7.52,18.3-29.68,35.32-49.4,37.92l-.73-.95c19.72-2.61,41.88-19.62,49.4-37.93C239.62,152.09,239.05,144.35,235.11,139.19Z"/><path class="cls-8" d="M165.84,193.57l-.73-1c4,5.23,11.44,7.82,21.37,6.51l.73.95C177.28,201.38,169.83,198.79,165.84,193.57Z"/><path class="cls-8" d="M237.45,137.4l.73,1c-4.25-5.58-12.2-8.34-22.78-6.94l-.73-1C225.25,129.07,233.2,131.83,237.45,137.4Z"/><path class="cls-8" d="M163.5,195.35l-.73-.95c-4.2-5.51-4.81-13.75-.83-23.46,8-19.55,31.68-37.7,52.73-40.48l.73,1c-21.05,2.78-44.7,20.93-52.73,40.48C158.69,181.6,159.3,189.85,163.5,195.35Z"/><path class="cls-2" d="M215.4,131.42c21-2.77,31.63,10.86,23.6,30.41s-31.66,37.69-52.71,40.47-31.64-10.86-23.62-30.4S194.35,134.2,215.4,131.42Zm-28.19,68.65c19.72-2.6,41.88-19.62,49.4-37.92s-2.4-31.11-22.13-28.51-41.89,19.63-49.41,37.94,2.41,31.1,22.14,28.49"/></g><g class="cls-1"><polygon class="cls-8" points="208.92 173.1 208.19 172.15 220.08 155.91 220.81 156.86 208.92 173.1"/><path class="cls-8" d="M232.83,146.79l.73,1c-.72-.94-2.21-1.34-4.42-1.05l-.73-1C230.63,145.44,232.11,145.84,232.83,146.79Z"/><polygon class="cls-8" points="179.19 177.03 178.46 176.07 208.19 172.15 208.92 173.1 179.19 177.03"/><polygon class="cls-8" points="171.8 187.2 171.07 186.24 178.46 176.07 179.19 177.03 171.8 187.2"/><polygon class="cls-8" points="191.08 160.78 190.35 159.83 197.69 149.79 198.42 150.74 191.08 160.78"/><polygon class="cls-8" points="198.42 150.74 197.69 149.79 228.41 145.73 229.14 146.69 198.42 150.74"/><path class="cls-2" d="M229.14,146.69c2.68-.35,4.29.31,4.78,1.73s-.16,3.63-2,6.1l-13.4,18.31a29.32,29.32,0,0,1-7.5,6.83,21.52,21.52,0,0,1-8.52,3.49l-30.72,4L179.19,177l29.73-3.92,11.89-16.25-29.73,3.92,7.34-10Z"/></g><polygon class="cls-9" points="182.85 164.59 203.19 161.11 197.43 171.63 176.61 174.64 182.85 164.59"/><g class="cls-1"><path class="cls-6" d="M108.39,68.66c7.12,12.34,17,23.12,27.88,29.41l-4.41,2.56C121,94.34,111.1,83.56,104,71.23Z"/><path class="cls-6" d="M96.91,29.92c0,12.52,4.35,26.41,11.48,38.74L104,71.23C96.85,58.89,92.46,45,92.5,32.48S96.93,11.27,104,7.15l4.41-2.56C101.34,8.71,97,17.46,96.91,29.92Z"/><path class="cls-6" d="M136.27,98.07c11,6.33,20.92,6.92,28.1,2.75L160,103.38c-7.18,4.18-17.13,3.59-28.1-2.75Z"/><path class="cls-7" d="M104,7.15l4.41-2.56C115.61.42,125.55,1,136.52,7.34L132.11,9.9C121.14,3.57,111.2,3,104,7.15Z"/><path class="cls-3" d="M104.19,6.09l4.41-2.56c9.5-5.52,22.66-4.75,37.18,3.64l-4.41,2.56C126.85,1.35,113.69.57,104.19,6.09Z"/><path class="cls-7" d="M132.11,9.9C153.92,22.49,171.54,53,171.47,78.07s-17.81,35.15-39.61,22.56S92.43,57.53,92.5,32.48,110.31-2.68,132.11,9.9Z"/><path class="cls-7" d="M164.37,100.82,160,103.38c7.08-4.11,11.48-12.87,11.51-25.31C171.54,53,153.92,22.49,132.11,9.9l4.41-2.56c21.81,12.59,39.43,43.1,39.36,68.17C175.85,88,171.45,96.7,164.37,100.82Z"/><path class="cls-3" d="M182.63,130.9l-4.42,2.56c9.39-5.45,15.2-17,15.25-33.51.09-33.16-23.23-73.56-52.09-90.22l4.41-2.56C174.64,23.83,198,64.22,197.87,97.39,197.82,113.86,192,125.45,182.63,130.9Z"/><path class="cls-6" d="M141.37,9.73c28.86,16.66,52.18,57.06,52.09,90.22S169.89,146.49,141,129.82,88.85,72.77,89,39.61,112.51-6.93,141.37,9.73Zm-9.51,90.9c21.8,12.59,39.54,2.49,39.61-22.56S153.92,22.49,132.11,9.9,92.57,7.41,92.5,32.48s17.56,55.57,39.36,68.15"/></g><g class="cls-1"><path class="cls-8" d="M108.24,17.55l1.47-.86C101.77,21.31,96.85,31.1,96.81,45c-.08,28,19.67,62.19,44,76.25l-1.47.85C115,108,95.26,73.83,95.34,45.86,95.38,32,100.3,22.16,108.24,17.55Z"/><path class="cls-8" d="M172.25,124.3l-1.48.86c-8,4.66-19.15,4-31.4-3.06l1.47-.85C153.09,128.32,164.21,129,172.25,124.3Z"/><path class="cls-8" d="M106.14,14l1.47-.86c8.58-5,20.45-4.29,33.52,3.26l-1.47.85C126.59,9.65,114.72,9,106.14,14Z"/><path class="cls-8" d="M174.35,127.9l-1.47.86c8.46-4.92,13.72-15.36,13.76-30.19.09-29.87-21-66.37-47-81.37l1.47-.85c26,15,47.07,51.5,47,81.37C188.07,112.54,182.81,123,174.35,127.9Z"/><path class="cls-2" d="M139.66,17.2c26,15,47.07,51.5,47,81.37s-21.3,41.93-47.28,26.93S92.3,74,92.38,44.15,113.68,2.2,139.66,17.2Zm-.29,104.9c24.35,14.07,44.22,2.73,44.3-25.24s-19.66-62.2-44-76.26S95.42,17.87,95.34,45.86,115,108,139.37,122.1"/></g><g class="cls-1"><polygon class="cls-8" points="111.48 78.26 112.95 77.4 121.49 82.33 120.02 83.19 111.48 78.26"/><polygon class="cls-8" points="135.45 103.51 136.92 102.66 136.9 111.15 135.43 112.01 135.45 103.51"/><polygon class="cls-2" points="148.54 110.25 150.01 109.39 149.99 118.71 148.52 119.56 148.54 110.25"/><polygon class="cls-8" points="132.14 90.09 133.61 89.24 141.79 93.96 140.32 94.81 132.14 90.09"/><polygon class="cls-2" points="132.19 72.97 133.66 72.11 133.61 89.24 132.14 90.09 132.19 72.97"/><path class="cls-8" d="M149.4,95.62l-1.47.85a4,4,0,0,1-.51.24c-1.55.53-3.91-.1-7.1-1.9l1.47-.85c3.19,1.8,5.55,2.42,7.1,1.89A2.94,2.94,0,0,0,149.4,95.62Z"/><polygon class="cls-8" points="132.22 61.94 133.69 61.08 140.72 65.14 139.25 65.99 132.22 61.94"/><polygon class="cls-8" points="132.26 47.34 133.73 46.48 133.69 61.08 132.22 61.94 132.26 47.34"/><path class="cls-8" d="M139.25,66l1.47-.85c.4.23.77.43,1.15.63,2.69,1.43,4.69,2,6,1.75l-1.47.85c-1.3.26-3.3-.31-6-1.75C140,66.43,139.65,66.23,139.25,66Z"/><polygon class="cls-2" points="152.21 78.27 153.68 77.42 153.68 77.88 152.21 78.73 152.21 78.27"/><path class="cls-2" d="M148.53,67.26l-1.47.85a2.28,2.28,0,0,1-.67.26l1.47-.85A2.59,2.59,0,0,0,148.53,67.26Z"/><polygon class="cls-8" points="111.64 24 113.11 23.14 128.86 32.24 127.39 33.09 111.64 24"/><path class="cls-8" d="M159.72,109.23l-1.47.85c2.75-1.6,4.15-5,4.17-10.06A27.33,27.33,0,0,0,160,88.46l1.47-.85a27.31,27.31,0,0,1,2.38,11.55C163.87,104.27,162.47,107.63,159.72,109.23Z"/><path class="cls-8" d="M152.21,78.73l1.47-.85a28.17,28.17,0,0,1,7.83,9.73l-1.47.85A28.17,28.17,0,0,0,152.21,78.73Z"/><polygon class="cls-8" points="135.64 37.85 137.11 37 139.42 38.33 137.95 39.19 135.64 37.85"/><path class="cls-8" d="M138,39.19l1.47-.86c.87.5,1.71,1,2.52,1.52l-1.47.85C139.66,40.19,138.82,39.69,138,39.19Z"/><polygon class="cls-8" points="127.42 24.61 128.89 23.76 137.13 28.52 135.66 29.37 127.42 24.61"/><polygon class="cls-8" points="135.66 29.37 137.13 28.52 137.11 37 135.64 37.85 135.66 29.37"/><path class="cls-8" d="M159,77.38l-1.47.86a5,5,0,0,0,1-.81c1.62-1.56,2.43-4.34,2.44-8.25a25.34,25.34,0,0,0-5.45-15.82,41.73,41.73,0,0,0-6.88-6.88l1.47-.85a41.73,41.73,0,0,1,6.88,6.88,25.34,25.34,0,0,1,5.45,15.82c0,3.9-.82,6.69-2.44,8.25A4.9,4.9,0,0,1,159,77.38Z"/><polygon class="cls-8" points="148.75 36.93 150.22 36.08 150.19 45.63 148.72 46.48 148.75 36.93"/><polygon class="cls-8" points="140.5 32.16 141.97 31.31 150.22 36.08 148.75 36.93 140.5 32.16"/><path class="cls-2" d="M160,88.46A27.33,27.33,0,0,1,162.42,100c0,6-1.94,9.56-5.7,10.73a13.61,13.61,0,0,1-8.18-.5l0,9.31-8.26-4.76,0-8.5-4.83-2.79,0,8.5-8.25-4.76,0-8.5-15.76-9.09,0-11.4L120,83.19l.12-42.85-8.53-4.93,0-11.41,15.75,9.09,0-8.48,8.24,4.76,0,8.48L138,39.19c.87.5,1.71,1,2.52,1.51l0-8.54,8.26,4.77,0,9.55a41.73,41.73,0,0,1,6.88,6.88,25.34,25.34,0,0,1,5.45,15.82c0,3.91-.82,6.69-2.44,8.25s-3.74,1.88-6.4.84v.46A28.17,28.17,0,0,1,160,88.46Zm-11.46,7.46c.82-.89,1.24-2.41,1.24-4.57A12.08,12.08,0,0,0,148.61,86c-1.43-3-4.17-5.82-8.24-8.28l-.68-.4L132.19,73l-.05,17.12,8.18,4.72c3.19,1.8,5.55,2.43,7.1,1.9a2.54,2.54,0,0,0,1.16-.79M132.26,47.34l0,14.59,7,4.06c.4.24.77.44,1.15.63,2.69,1.44,4.69,2,6,1.75,1.47-.33,2.22-1.84,2.23-4.52A10.58,10.58,0,0,0,146.21,57a23.38,23.38,0,0,0-5.77-4.91c-.56-.37-1.17-.74-1.81-1.11l-6.37-3.67"/></g></g></g></svg>